<svg version="1.1" viewBox="0.0 0.0 958.0 514.0" fill="none" stroke="none" stroke-linecap="square" stroke-miterlimit="10" width="958" height="514" xmlns:xlink="http://www.w3.org/1999/xlink" xmlns="http://www.w3.org/2000/svg"><path fill="#ffffff" fill-opacity="0.0" d="M0 0L958.0 0L958.0 514.0L0 514.0L0 0Z" fill-rule="nonzero"/><path fill="#9d4747" d="M474.4959 158.75893C475.99655 158.71797 477.4982 158.6975 479.0 158.6975L479.0 193.3925C477.4982 193.3925 475.99655 193.41298 474.4959 193.45392Z" fill-rule="nonzero"/><path fill="#e06666" d="M469.99182 77.86534C472.99313 77.783455 475.99643 77.7425 479.0 77.7425L479.0 158.6975C477.4982 158.6975 475.99655 158.71797 474.4959 158.75893Z" fill-rule="nonzero"/><path fill="#678958" d="M439.00565 163.69243C450.39267 160.75464 462.36932 159.08977 474.4959 158.75893L474.4959 193.45392C462.36932 193.78476 450.39267 195.44965 439.00565 198.38742Z" fill-rule="nonzero"/><path fill="#93c47d" d="M399.0113 87.732346C421.78534 81.85678 445.73862 78.52703 469.99182 77.86534L474.4959 158.75893C462.36932 159.08977 450.39267 160.75464 439.00565 163.69243Z" fill-rule="nonzero"/><path fill="#003044" d="M710.3 274.3475C710.3 363.7679 606.74347 436.2575 479.0 436.2575C351.25653 436.2575 247.7 363.7679 247.7 274.3475L247.7 239.6525C247.7 329.07294 351.25653 401.5625 479.0 401.5625C606.74347 401.5625 710.3 329.07294 710.3 239.6525Z" fill-rule="nonzero"/><path fill="#003044" d="M479.0 158.6975C542.8717 158.6975 594.65 194.94229 594.65 239.6525L594.65 274.3475C594.65 229.63728 542.8717 193.3925 479.0 193.3925Z" fill-rule="nonzero"/><path fill="#003044" d="M363.35 239.6525C363.35 205.73924 393.54733 175.42038 439.00565 163.69243L439.00565 198.38742C393.54733 210.11539 363.35 240.43423 363.35 274.3475Z" fill-rule="nonzero"/><path fill="#004561" d="M479.0 77.7425C598.84033 77.7425 698.8337 141.81625 709.3993 225.37784C719.9649 308.93942 637.6033 384.31122 519.6259 399.04547C401.64856 413.77975 287.13254 362.99615 255.76419 282.03265C224.39583 201.06912 286.5651 116.74277 399.0113 87.732346L439.00565 163.69243C382.78253 178.19763 351.6979 220.36081 367.38208 260.84256C383.06628 301.32434 440.32428 326.71613 499.31296 319.349C558.30164 311.98184 599.4825 274.29596 594.19965 232.51517C588.9169 190.73438 538.92017 158.6975 479.0 158.6975Z" fill-rule="nonzero"/><path fill="#1a1a1a" d="M27.278126 55.32563L27.278126 41.01313L37.6375 41.01313L37.6375 42.70063L29.184376 42.70063L29.184376 47.07563L37.090626 47.07563L37.090626 48.76313L29.184376 48.76313L29.184376 53.63813L37.965626 53.63813L37.965626 55.32563L27.278126 55.32563ZM38.840626 55.32563L42.6375 49.935005L39.1375 44.95063L41.325 44.95063L42.91875 47.38813Q43.371876 48.07563 43.6375 48.54438Q44.075 47.903755 44.434376 47.403755L46.184376 44.95063L48.278126 44.95063L44.7 49.841255L48.559376 55.32563L46.403126 55.32563L44.2625 52.10688L43.7 51.23188L40.98125 55.32563L38.840626 55.32563ZM50.0125 59.29438L50.0125 44.95063L51.621876 44.95063L51.621876 46.29438Q52.184376 45.51313 52.8875 45.122505Q53.60625 44.716255 54.621876 44.716255Q55.95 44.716255 56.965626 45.403755Q57.98125 46.091255 58.496876 47.341255Q59.028126 48.57563 59.028126 50.060005Q59.028126 51.653755 58.45 52.935005Q57.8875 54.20063 56.79375 54.88813Q55.7 55.560005 54.496876 55.560005Q53.621876 55.560005 52.91875 55.185005Q52.23125 54.810005 51.778126 54.247505L51.778126 59.29438L50.0125 59.29438ZM51.60625 50.20063Q51.60625 52.20063 52.41875 53.153755Q53.23125 54.10688 54.3875 54.10688Q55.559376 54.10688 56.3875 53.122505Q57.23125 52.13813 57.23125 50.04438Q57.23125 48.07563 56.403126 47.091255Q55.590626 46.091255 54.465626 46.091255Q53.340626 46.091255 52.465626 47.153755Q51.60625 48.20063 51.60625 50.20063ZM68.12187 51.98188L69.93437 52.216255Q69.5125 53.79438 68.34062 54.685005Q67.18437 55.560005 65.37187 55.560005Q63.10625 55.560005 61.7625 54.16938Q60.434376 52.76313 60.434376 50.23188Q60.434376 47.60688 61.778126 46.16938Q63.121876 44.716255 65.27812 44.716255Q67.35625 44.716255 68.66875 46.13813Q69.99687 47.54438 69.99687 50.122505Q69.99687 50.278755 69.98125 50.591255L62.246876 50.591255Q62.340626 52.29438 63.215626 53.20063Q64.09062 54.10688 65.3875 54.10688Q66.35625 54.10688 67.02812 53.60688Q67.71562 53.091255 68.12187 51.98188ZM62.340626 49.13813L68.1375 49.13813Q68.02812 47.841255 67.48125 47.185005Q66.6375 46.16938 65.29375 46.16938Q64.09062 46.16938 63.2625 46.98188Q62.434376 47.778755 62.340626 49.13813ZM72.0125 55.32563L72.0125 44.95063L73.60625 44.95063L73.60625 46.435005Q74.74687 44.716255 76.90312 44.716255Q77.84062 44.716255 78.62187 45.060005Q79.41875 45.38813 79.80937 45.935005Q80.2 46.48188 80.35625 47.23188Q80.45 47.73188 80.45 48.95063L80.45 55.32563L78.68437 55.32563L78.68437 49.01313Q78.68437 47.935005 78.48125 47.403755Q78.27812 46.872505 77.74687 46.560005Q77.23125 46.247505 76.52812 46.247505Q75.40312 46.247505 74.59062 46.966255Q73.77812 47.66938 73.77812 49.653755L73.77812 55.32563L72.0125 55.32563ZM82.30937 52.23188L84.05937 51.95063Q84.2 52.997505 84.87187 53.560005Q85.54375 54.10688 86.74687 54.10688Q87.95 54.10688 88.52812 53.622505Q89.12187 53.122505 89.12187 52.466255Q89.12187 51.872505 88.60625 51.528755Q88.24687 51.29438 86.80937 50.935005Q84.87187 50.435005 84.12187 50.091255Q83.3875 49.73188 82.99687 49.10688Q82.60625 48.466255 82.60625 47.70063Q82.60625 47.01313 82.91875 46.41938Q83.24687 45.82563 83.79375 45.435005Q84.2 45.13813 84.90312 44.935005Q85.62187 44.716255 86.43437 44.716255Q87.65312 44.716255 88.575 45.07563Q89.49687 45.41938 89.93437 46.028755Q90.37187 46.622505 90.54375 47.622505L88.825 47.85688Q88.7 47.060005 88.1375 46.622505Q87.575 46.16938 86.55937 46.16938Q85.34062 46.16938 84.825 46.57563Q84.30937 46.966255 84.30937 47.497505Q84.30937 47.841255 84.52812 48.122505Q84.73125 48.403755 85.2 48.591255Q85.46562 48.685005 86.74687 49.028755Q88.62187 49.528755 89.35625 49.85688Q90.09062 50.16938 90.5125 50.778755Q90.93437 51.372505 90.93437 52.278755Q90.93437 53.153755 90.41875 53.935005Q89.90312 54.716255 88.93437 55.13813Q87.96562 55.560005 86.74687 55.560005Q84.73125 55.560005 83.66875 54.716255Q82.60625 53.872505 82.30937 52.23188ZM100.12187 51.98188L101.93437 52.216255Q101.5125 53.79438 100.34062 54.685005Q99.18437 55.560005 97.37187 55.560005Q95.10625 55.560005 93.7625 54.16938Q92.43437 52.76313 92.43437 50.23188Q92.43437 47.60688 93.77812 46.16938Q95.12187 44.716255 97.27812 44.716255Q99.35625 44.716255 100.66875 46.13813Q101.99687 47.54438 101.99687 50.122505Q101.99687 50.278755 101.98125 50.591255L94.24687 50.591255Q94.34062 52.29438 95.21562 53.20063Q96.09062 54.10688 97.3875 54.10688Q98.35625 54.10688 99.02812 53.60688Q99.71562 53.091255 100.12187 51.98188ZM94.34062 49.13813L100.1375 49.13813Q100.02812 47.841255 99.48125 47.185005Q98.6375 46.16938 97.29375 46.16938Q96.09062 46.16938 95.2625 46.98188Q94.43437 47.778755 94.34062 49.13813ZM110.27812 55.32563L110.27812 41.01313L116.62187 41.01313Q118.52812 41.01313 119.52812 41.403755Q120.52812 41.778755 121.12187 42.76313Q121.71562 43.73188 121.71562 44.91938Q121.71562 46.435005 120.73125 47.48188Q119.74687 48.528755 117.68437 48.810005Q118.43437 49.16938 118.825 49.528755Q119.65312 50.278755 120.40312 51.435005L122.8875 55.32563L120.5125 55.32563L118.60625 52.341255Q117.77812 51.060005 117.24687 50.372505Q116.71562 49.685005 116.27812 49.41938Q115.85625 49.13813 115.41875 49.028755Q115.09062 48.966255 114.37187 48.966255L112.16875 48.966255L112.16875 55.32563L110.27812 55.32563ZM112.16875 47.32563L116.24687 47.32563Q117.54375 47.32563 118.2625 47.060005Q118.99687 46.79438 119.37187 46.20063Q119.7625 45.60688 119.7625 44.91938Q119.7625 43.903755 119.02812 43.247505Q118.29375 42.591255 116.7 42.591255L112.16875 42.591255L112.16875 47.32563ZM130.79375 54.04438Q129.80937 54.872505 128.90312 55.216255Q127.99687 55.560005 126.96562 55.560005Q125.2625 55.560005 124.34062 54.73188Q123.41875 53.88813 123.41875 52.591255Q123.41875 51.82563 123.7625 51.20063Q124.12187 50.57563 124.68437 50.20063Q125.24687 49.810005 125.95 49.60688Q126.46562 49.48188 127.5125 49.341255Q129.6375 49.091255 130.6375 48.747505Q130.65312 48.38813 130.65312 48.278755Q130.65312 47.216255 130.15312 46.76313Q129.48125 46.16938 128.15312 46.16938Q126.90312 46.16938 126.30937 46.60688Q125.73125 47.04438 125.45 48.153755L123.73125 47.91938Q123.96562 46.810005 124.49687 46.13813Q125.02812 45.45063 126.04375 45.091255Q127.05937 44.716255 128.40312 44.716255Q129.73125 44.716255 130.55937 45.028755Q131.3875 45.341255 131.77812 45.82563Q132.16875 46.29438 132.325 47.01313Q132.41875 47.466255 132.41875 48.63813L132.41875 50.98188Q132.41875 53.435005 132.52812 54.091255Q132.6375 54.73188 132.98125 55.32563L131.1375 55.32563Q130.87187 54.778755 130.79375 54.04438ZM130.6375 50.122505Q129.68437 50.51313 127.7625 50.778755Q126.68437 50.935005 126.23125 51.13813Q125.79375 51.32563 125.54375 51.70063Q125.29375 52.07563 125.29375 52.54438Q125.29375 53.247505 125.825 53.716255Q126.35625 54.185005 127.3875 54.185005Q128.40312 54.185005 129.18437 53.747505Q129.98125 53.29438 130.35625 52.528755Q130.6375 51.91938 130.6375 50.76313L130.6375 50.122505ZM138.85625 53.747505L139.10625 55.310005Q138.37187 55.466255 137.77812 55.466255Q136.825 55.466255 136.29375 55.16938Q135.77812 54.85688 135.55937 54.372505Q135.34062 53.872505 135.34062 52.29438L135.34062 46.32563L134.05937 46.32563L134.05937 44.95063L135.34062 44.95063L135.34062 42.38813L137.09062 41.32563L137.09062 44.95063L138.85625 44.95063L138.85625 46.32563L137.09062 46.32563L137.09062 52.38813Q137.09062 53.13813 137.18437 53.35688Q137.27812 53.560005 137.48125 53.70063Q137.7 53.82563 138.09062 53.82563Q138.37187 53.82563 138.85625 53.747505ZM141.02812 43.028755L141.02812 41.01313L142.79375 41.01313L142.79375 43.028755L141.02812 43.028755ZM141.02812 55.32563L141.02812 44.95063L142.79375 44.95063L142.79375 55.32563L141.02812 55.32563ZM144.37187 50.13813Q144.37187 47.26313 145.96562 45.872505Q147.30937 44.716255 149.23125 44.716255Q151.37187 44.716255 152.71562 46.122505Q154.075 47.528755 154.075 49.997505Q154.075 51.997505 153.48125 53.153755Q152.8875 54.29438 151.73125 54.935005Q150.59062 55.560005 149.23125 55.560005Q147.04375 55.560005 145.7 54.16938Q144.37187 52.76313 144.37187 50.13813ZM146.16875 50.13813Q146.16875 52.13813 147.02812 53.122505Q147.90312 54.10688 149.23125 54.10688Q150.54375 54.10688 151.40312 53.122505Q152.27812 52.122505 152.27812 50.07563Q152.27812 48.153755 151.40312 47.16938Q150.52812 46.16938 149.23125 46.16938Q147.90312 46.16938 147.02812 47.16938Q146.16875 48.153755 146.16875 50.13813Z" fill-rule="nonzero"/><path fill="#9e9e9e" d="M26.528126 75.26313Q26.528126 72.73188 27.04375 71.185005Q27.575 69.622505 28.60625 68.79438Q29.6375 67.95063 31.2 67.95063Q32.35625 67.95063 33.215626 68.41938Q34.090626 68.872505 34.653126 69.747505Q35.215626 70.622505 35.54375 71.88813Q35.871876 73.13813 35.871876 75.26313Q35.871876 77.778755 35.340626 79.32563Q34.825 80.872505 33.79375 81.73188Q32.778126 82.57563 31.2 82.57563Q29.121876 82.57563 27.95 81.091255Q26.528126 79.29438 26.528126 75.26313ZM28.340626 75.26313Q28.340626 78.79438 29.153126 79.966255Q29.98125 81.122505 31.2 81.122505Q32.403126 81.122505 33.23125 79.95063Q34.059376 78.778755 34.059376 75.26313Q34.059376 71.73188 33.23125 70.57563Q32.403126 69.403755 31.184376 69.403755Q29.965626 69.403755 29.246876 70.435005Q28.340626 71.73188 28.340626 75.26313ZM38.5125 82.32563L38.5125 80.32563L40.5125 80.32563L40.5125 82.32563L38.5125 82.32563ZM52.653126 71.51313L50.903126 71.653755Q50.66875 70.622505 50.246876 70.153755Q49.528126 69.38813 48.48125 69.38813Q47.6375 69.38813 47.0125 69.85688Q46.184376 70.466255 45.7 71.63813Q45.215626 72.79438 45.2 74.935005Q45.840626 73.98188 46.746876 73.51313Q47.66875 73.04438 48.684376 73.04438Q50.434376 73.04438 51.66875 74.341255Q52.903126 75.622505 52.903126 77.66938Q52.903126 79.028755 52.325 80.185005Q51.746876 81.341255 50.73125 81.966255Q49.715626 82.57563 48.41875 82.57563Q46.23125 82.57563 44.840626 80.966255Q43.45 79.341255 43.45 75.622505Q43.45 71.48188 44.98125 69.591255Q46.325 67.95063 48.590626 67.95063Q50.278126 67.95063 51.35625 68.903755Q52.434376 69.841255 52.653126 71.51313ZM45.48125 77.685005Q45.48125 78.591255 45.85625 79.41938Q46.246876 80.247505 46.934376 80.685005Q47.6375 81.122505 48.3875 81.122505Q49.5125 81.122505 50.309376 80.23188Q51.10625 79.32563 51.10625 77.778755Q51.10625 76.29438 50.309376 75.45063Q49.528126 74.591255 48.325 74.591255Q47.1375 74.591255 46.309376 75.45063Q45.48125 76.29438 45.48125 77.685005ZM54.85625 71.45063Q54.85625 69.91938 55.621876 68.841255Q56.403126 67.76313 57.871876 67.76313Q59.215626 67.76313 60.090626 68.73188Q60.98125 69.685005 60.98125 71.560005Q60.98125 73.372505 60.090626 74.35688Q59.2 75.32563 57.8875 75.32563Q56.590626 75.32563 55.715626 74.372505Q54.85625 73.403755 54.85625 71.45063ZM57.91875 68.98188Q57.2625 68.98188 56.825 69.54438Q56.403126 70.10688 56.403126 71.622505Q56.403126 72.997505 56.840626 73.560005Q57.278126 74.122505 57.91875 74.122505Q58.590626 74.122505 59.0125 73.560005Q59.45 72.98188 59.45 71.48188Q59.45 70.091255 59.0125 69.54438Q58.575 68.98188 57.91875 68.98188ZM57.934376 82.85688L65.7625 67.76313L67.18437 67.76313L59.3875 82.85688L57.934376 82.85688ZM64.12187 78.966255Q64.12187 77.41938 64.8875 76.35688Q65.66875 75.278755 67.1375 75.278755Q68.48125 75.278755 69.35625 76.247505Q70.24687 77.20063 70.24687 79.07563Q70.24687 80.88813 69.35625 81.872505Q68.46562 82.85688 67.15312 82.85688Q65.85625 82.85688 64.98125 81.88813Q64.12187 80.903755 64.12187 78.966255ZM67.18437 76.497505Q66.52812 76.497505 66.09062 77.060005Q65.65312 77.622505 65.65312 79.13813Q65.65312 80.51313 66.09062 81.07563Q66.52812 81.63813 67.18437 81.63813Q67.85625 81.63813 68.27812 81.07563Q68.71562 80.51313 68.71562 78.997505Q68.71562 77.622505 68.27812 77.060005Q67.84062 76.497505 67.18437 76.497505Z" fill-rule="nonzero"/><path stroke="#757575" stroke-width="1.0" stroke-linecap="butt" d="M25.7 61.82563L241.7 61.82563L474.7203 85.86718" fill-rule="nonzero"/><path fill="#9e9e9e" d="M476.7203 85.86718C476.7203 84.7626 475.82486 83.86718 474.7203 83.86718C473.61572 83.86718 472.7203 84.7626 472.7203 85.86718C472.7203 86.97175 473.61572 87.86718 474.7203 87.86718C475.82486 87.86718 476.7203 86.97175 476.7203 85.86718" fill-rule="nonzero"/><path fill="#1a1a1a" d="M33.95 100.716255L33.95 99.028755L40.0125 99.01313L40.0125 104.32563Q38.60625 105.45063 37.121876 106.01313Q35.6375 106.57563 34.075 106.57563Q31.965626 106.57563 30.246876 105.66938Q28.528126 104.76313 27.6375 103.060005Q26.7625 101.341255 26.7625 99.23188Q26.7625 97.13813 27.6375 95.341255Q28.5125 93.528755 30.153126 92.653755Q31.79375 91.76313 33.934376 91.76313Q35.48125 91.76313 36.73125 92.26313Q37.996876 92.76313 38.7 93.66938Q39.41875 94.560005 39.79375 96.01313L38.090626 96.48188Q37.7625 95.38813 37.278126 94.76313Q36.809376 94.13813 35.91875 93.76313Q35.028126 93.38813 33.95 93.38813Q32.6375 93.38813 31.684376 93.778755Q30.746876 94.16938 30.16875 94.82563Q29.590626 95.466255 29.2625 96.23188Q28.715626 97.560005 28.715626 99.122505Q28.715626 101.028755 29.371876 102.32563Q30.04375 103.60688 31.29375 104.23188Q32.559376 104.85688 33.965626 104.85688Q35.2 104.85688 36.371876 104.38813Q37.54375 103.91938 38.153126 103.372505L38.153126 100.716255L33.95 100.716255ZM42.996876 106.32563L42.996876 95.95063L44.575 95.95063L44.575 97.528755Q45.184376 96.41938 45.7 96.07563Q46.215626 95.716255 46.825 95.716255Q47.715626 95.716255 48.6375 96.278755L48.028126 97.91938Q47.3875 97.528755 46.746876 97.528755Q46.16875 97.528755 45.7 97.88813Q45.246876 98.23188 45.04375 98.841255Q44.7625 99.778755 44.7625 100.88813L44.7625 106.32563L42.996876 106.32563ZM56.79375 105.04438Q55.809376 105.872505 54.903126 106.216255Q53.996876 106.560005 52.965626 106.560005Q51.2625 106.560005 50.340626 105.73188Q49.41875 104.88813 49.41875 103.591255Q49.41875 102.82563 49.7625 102.20063Q50.121876 101.57563 50.684376 101.20063Q51.246876 100.810005 51.95 100.60688Q52.465626 100.48188 53.5125 100.341255Q55.6375 100.091255 56.6375 99.747505Q56.653126 99.38813 56.653126 99.278755Q56.653126 98.216255 56.153126 97.76313Q55.48125 97.16938 54.153126 97.16938Q52.903126 97.16938 52.309376 97.60688Q51.73125 98.04438 51.45 99.153755L49.73125 98.91938Q49.965626 97.810005 50.496876 97.13813Q51.028126 96.45063 52.04375 96.091255Q53.059376 95.716255 54.403126 95.716255Q55.73125 95.716255 56.559376 96.028755Q57.3875 96.341255 57.778126 96.82563Q58.16875 97.29438 58.325 98.01313Q58.41875 98.466255 58.41875 99.63813L58.41875 101.98188Q58.41875 104.435005 58.528126 105.091255Q58.6375 105.73188 58.98125 106.32563L57.1375 106.32563Q56.871876 105.778755 56.79375 105.04438ZM56.6375 101.122505Q55.684376 101.51313 53.7625 101.778755Q52.684376 101.935005 52.23125 102.13813Q51.79375 102.32563 51.54375 102.70063Q51.29375 103.07563 51.29375 103.54438Q51.29375 104.247505 51.825 104.716255Q52.35625 105.185005 53.3875 105.185005Q54.403126 105.185005 55.184376 104.747505Q55.98125 104.29438 56.35625 103.528755Q56.6375 102.91938 56.6375 101.76313L56.6375 101.122505ZM61.0125 106.32563L61.0125 95.95063L62.60625 95.95063L62.60625 97.435005Q63.746876 95.716255 65.90312 95.716255Q66.84062 95.716255 67.62187 96.060005Q68.41875 96.38813 68.80937 96.935005Q69.2 97.48188 69.35625 98.23188Q69.45 98.73188 69.45 99.95063L69.45 106.32563L67.68437 106.32563L67.68437 100.01313Q67.68437 98.935005 67.48125 98.403755Q67.27812 97.872505 66.74687 97.560005Q66.23125 97.247505 65.52812 97.247505Q64.40312 97.247505 63.590626 97.966255Q62.778126 98.66938 62.778126 100.653755L62.778126 106.32563L61.0125 106.32563ZM75.85625 104.747505L76.10625 106.310005Q75.37187 106.466255 74.77812 106.466255Q73.825 106.466255 73.29375 106.16938Q72.77812 105.85688 72.55937 105.372505Q72.34062 104.872505 72.34062 103.29438L72.34062 97.32563L71.05937 97.32563L71.05937 95.95063L72.34062 95.95063L72.34062 93.38813L74.09062 92.32563L74.09062 95.95063L75.85625 95.95063L75.85625 97.32563L74.09062 97.32563L74.09062 103.38813Q74.09062 104.13813 74.18437 104.35688Q74.27812 104.560005 74.48125 104.70063Q74.7 104.82563 75.09062 104.82563Q75.37187 104.82563 75.85625 104.747505ZM77.30937 103.23188L79.05937 102.95063Q79.2 103.997505 79.87187 104.560005Q80.54375 105.10688 81.74687 105.10688Q82.95 105.10688 83.52812 104.622505Q84.12187 104.122505 84.12187 103.466255Q84.12187 102.872505 83.60625 102.528755Q83.24687 102.29438 81.80937 101.935005Q79.87187 101.435005 79.12187 101.091255Q78.3875 100.73188 77.99687 100.10688Q77.60625 99.466255 77.60625 98.70063Q77.60625 98.01313 77.91875 97.41938Q78.24687 96.82563 78.79375 96.435005Q79.2 96.13813 79.90312 95.935005Q80.62187 95.716255 81.43437 95.716255Q82.65312 95.716255 83.575 96.07563Q84.49687 96.41938 84.93437 97.028755Q85.37187 97.622505 85.54375 98.622505L83.825 98.85688Q83.7 98.060005 83.1375 97.622505Q82.575 97.16938 81.55937 97.16938Q80.34062 97.16938 79.825 97.57563Q79.30937 97.966255 79.30937 98.497505Q79.30937 98.841255 79.52812 99.122505Q79.73125 99.403755 80.2 99.591255Q80.46562 99.685005 81.74687 100.028755Q83.62187 100.528755 84.35625 100.85688Q85.09062 101.16938 85.5125 101.778755Q85.93437 102.372505 85.93437 103.278755Q85.93437 104.153755 85.41875 104.935005Q84.90312 105.716255 83.93437 106.13813Q82.96562 106.560005 81.74687 106.560005Q79.73125 106.560005 78.66875 105.716255Q77.60625 104.872505 77.30937 103.23188Z" fill-rule="nonzero"/><path fill="#9e9e9e" d="M26.528126 129.57562L28.371876 129.41937Q28.575 130.76312 29.325 131.45062Q30.075 132.1225 31.1375 132.1225Q32.403126 132.1225 33.278126 131.16937Q34.153126 130.21625 34.153126 128.6225Q34.153126 127.1225 33.309376 126.26312Q32.465626 125.38812 31.10625 125.38812Q30.246876 125.38812 29.559376 125.77875Q28.8875 126.15375 28.496876 126.77875L26.840626 126.56L28.23125 119.20062L35.35625 119.20062L35.35625 120.88812L29.6375 120.88812L28.871876 124.73187Q30.153126 123.82562 31.575 123.82562Q33.45 123.82562 34.73125 125.13812Q36.028126 126.435 36.028126 128.46625Q36.028126 130.41937 34.8875 131.82562Q33.5125 133.57562 31.1375 133.57562Q29.184376 133.57562 27.934376 132.48187Q26.7 131.38812 26.528126 129.57562ZM38.5125 133.32562L38.5125 131.32562L40.5125 131.32562L40.5125 133.32562L38.5125 133.32562ZM43.528126 126.26312Q43.528126 123.73187 44.04375 122.185Q44.575 120.6225 45.60625 119.79437Q46.6375 118.95062 48.2 118.95062Q49.35625 118.95062 50.215626 119.41937Q51.090626 119.8725 51.653126 120.7475Q52.215626 121.6225 52.54375 122.88812Q52.871876 124.13812 52.871876 126.26312Q52.871876 128.77875 52.340626 130.32562Q51.825 131.8725 50.79375 132.73187Q49.778126 133.57562 48.2 133.57562Q46.121876 133.57562 44.95 132.09125Q43.528126 130.29437 43.528126 126.26312ZM45.340626 126.26312Q45.340626 129.79437 46.153126 130.96625Q46.98125 132.1225 48.2 132.1225Q49.403126 132.1225 50.23125 130.95062Q51.059376 129.77875 51.059376 126.26312Q51.059376 122.73187 50.23125 121.57562Q49.403126 120.40375 48.184376 120.40375Q46.965626 120.40375 46.246876 121.435Q45.340626 122.73187 45.340626 126.26312ZM54.85625 122.45062Q54.85625 120.91937 55.621876 119.84125Q56.403126 118.76312 57.871876 118.76312Q59.215626 118.76312 60.090626 119.73187Q60.98125 120.685 60.98125 122.56Q60.98125 124.3725 60.090626 125.35687Q59.2 126.32562 57.8875 126.32562Q56.590626 126.32562 55.715626 125.3725Q54.85625 124.40375 54.85625 122.45062ZM57.91875 119.98187Q57.2625 119.98187 56.825 120.54437Q56.403126 121.10687 56.403126 122.6225Q56.403126 123.9975 56.840626 124.56Q57.278126 125.1225 57.91875 125.1225Q58.590626 125.1225 59.0125 124.56Q59.45 123.98187 59.45 122.48187Q59.45 121.09125 59.0125 120.54437Q58.575 119.98187 57.91875 119.98187ZM57.934376 133.85687L65.7625 118.76312L67.18437 118.76312L59.3875 133.85687L57.934376 133.85687ZM64.12187 129.96625Q64.12187 128.41937 64.8875 127.35687Q65.66875 126.27875 67.1375 126.27875Q68.48125 126.27875 69.35625 127.2475Q70.24687 128.20062 70.24687 130.07562Q70.24687 131.88812 69.35625 132.8725Q68.46562 133.85687 67.15312 133.85687Q65.85625 133.85687 64.98125 132.88812Q64.12187 131.90375 64.12187 129.96625ZM67.18437 127.4975Q66.52812 127.4975 66.09062 128.06Q65.65312 128.6225 65.65312 130.13812Q65.65312 131.51312 66.09062 132.07562Q66.52812 132.63812 67.18437 132.63812Q67.85625 132.63812 68.27812 132.07562Q68.71562 131.51312 68.71562 129.9975Q68.71562 128.6225 68.27812 128.06Q67.84062 127.4975 67.18437 127.4975Z" fill-rule="nonzero"/><path stroke="#757575" stroke-width="1.0" stroke-linecap="butt" d="M25.7 112.82563L241.7 112.82563L436.19952 88.78408" fill-rule="nonzero"/><path fill="#9e9e9e" d="M438.19952 88.78408C438.19952 87.67951 437.3041 86.78408 436.19952 86.78408C435.09497 86.78408 434.19952 87.67951 434.19952 88.78408C434.19952 89.88865 435.09497 90.78408 436.19952 90.78408C437.3041 90.78408 438.19952 89.88865 438.19952 88.78408" fill-rule="nonzero"/><path fill="#1a1a1a" d="M772.8781 384.57584L772.8781 370.26334L779.22186 370.26334Q781.1281 370.26334 782.1281 370.65396Q783.1281 371.02896 783.72186 372.01334Q784.3156 372.9821 784.3156 374.1696Q784.3156 375.6852 783.33124 376.7321Q782.34686 377.77896 780.28436 378.0602Q781.03436 378.4196 781.425 378.77896Q782.2531 379.52896 783.0031 380.6852L785.4875 384.57584L783.1125 384.57584L781.20624 381.59146Q780.3781 380.3102 779.84686 379.6227Q779.3156 378.9352 778.8781 378.6696Q778.45624 378.38834 778.01874 378.27896Q777.6906 378.21646 776.97186 378.21646L774.76874 378.21646L774.76874 384.57584L772.8781 384.57584ZM774.76874 376.57584L778.84686 376.57584Q780.14374 376.57584 780.8625 376.3102Q781.59686 376.0446 781.97186 375.45084Q782.3625 374.8571 782.3625 374.1696Q782.3625 373.15396 781.6281 372.4977Q780.89374 371.84146 779.3 371.84146L774.76874 371.84146L774.76874 376.57584ZM793.72186 381.2321L795.53436 381.46646Q795.1125 383.0446 793.9406 383.9352Q792.78436 384.8102 790.97186 384.8102Q788.70624 384.8102 787.3625 383.4196Q786.03436 382.01334 786.03436 379.4821Q786.03436 376.8571 787.3781 375.4196Q788.72186 373.96646 790.8781 373.96646Q792.95624 373.96646 794.26874 375.38834Q795.59686 376.7946 795.59686 379.3727Q795.59686 379.52896 795.58124 379.84146L787.84686 379.84146Q787.9406 381.5446 788.8156 382.45084Q789.6906 383.3571 790.9875 383.3571Q791.95624 383.3571 792.6281 382.8571Q793.3156 382.34146 793.72186 381.2321ZM787.9406 378.38834L793.7375 378.38834Q793.6281 377.09146 793.08124 376.4352Q792.2375 375.4196 790.89374 375.4196Q789.6906 375.4196 788.8625 376.2321Q788.03436 377.02896 787.9406 378.38834ZM797.6125 384.57584L797.6125 374.20084L799.1906 374.20084L799.1906 375.65396Q799.675 374.90396 800.4875 374.4352Q801.3 373.96646 802.33124 373.96646Q803.4875 373.96646 804.22186 374.45084Q804.95624 374.9196 805.26874 375.77896Q806.5031 373.96646 808.47186 373.96646Q810.01874 373.96646 810.84686 374.82584Q811.675 375.6852 811.675 377.45084L811.675 384.57584L809.925 384.57584L809.925 378.0446Q809.925 376.9821 809.7531 376.52896Q809.58124 376.0602 809.1281 375.77896Q808.6906 375.4977 808.08124 375.4977Q806.9875 375.4977 806.2531 376.2321Q805.53436 376.95084 805.53436 378.5446L805.53436 384.57584L803.78436 384.57584L803.78436 377.84146Q803.78436 376.6696 803.34686 376.09146Q802.925 375.4977 801.9406 375.4977Q801.20624 375.4977 800.5656 375.88834Q799.9406 376.27896 799.65936 377.02896Q799.3781 377.77896 799.3781 379.20084L799.3781 384.57584L797.6125 384.57584ZM821.39374 383.2946Q820.40936 384.1227 819.5031 384.46646Q818.59686 384.8102 817.5656 384.8102Q815.8625 384.8102 814.9406 383.9821Q814.01874 383.13834 814.01874 381.84146Q814.01874 381.07584 814.3625 380.45084Q814.72186 379.82584 815.28436 379.45084Q815.84686 379.0602 816.55 378.8571Q817.0656 378.7321 818.1125 378.59146Q820.2375 378.34146 821.2375 377.9977Q821.2531 377.63834 821.2531 377.52896Q821.2531 376.46646 820.7531 376.01334Q820.08124 375.4196 818.7531 375.4196Q817.5031 375.4196 816.90936 375.8571Q816.33124 376.2946 816.05 377.40396L814.33124 377.1696Q814.5656 376.0602 815.09686 375.38834Q815.6281 374.70084 816.64374 374.34146Q817.65936 373.96646 819.0031 373.96646Q820.33124 373.96646 821.15936 374.27896Q821.9875 374.59146 822.3781 375.07584Q822.76874 375.5446 822.925 376.26334Q823.01874 376.71646 823.01874 377.88834L823.01874 380.2321Q823.01874 382.6852 823.1281 383.34146Q823.2375 383.9821 823.58124 384.57584L821.7375 384.57584Q821.47186 384.02896 821.39374 383.2946ZM821.2375 379.3727Q820.28436 379.76334 818.3625 380.02896Q817.28436 380.1852 816.83124 380.38834Q816.39374 380.57584 816.14374 380.95084Q815.89374 381.32584 815.89374 381.7946Q815.89374 382.4977 816.425 382.96646Q816.95624 383.4352 817.9875 383.4352Q819.0031 383.4352 819.78436 382.9977Q820.58124 382.5446 820.95624 381.77896Q821.2375 381.1696 821.2375 380.01334L821.2375 379.3727ZM825.6281 372.27896L825.6281 370.26334L827.39374 370.26334L827.39374 372.27896L825.6281 372.27896ZM825.6281 384.57584L825.6281 374.20084L827.39374 374.20084L827.39374 384.57584L825.6281 384.57584ZM829.6125 384.57584L829.6125 374.20084L831.20624 374.20084L831.20624 375.6852Q832.34686 373.96646 834.5031 373.96646Q835.4406 373.96646 836.22186 374.3102Q837.01874 374.63834 837.40936 375.1852Q837.8 375.7321 837.95624 376.4821Q838.05 376.9821 838.05 378.20084L838.05 384.57584L836.28436 384.57584L836.28436 378.26334Q836.28436 377.1852 836.08124 376.65396Q835.8781 376.1227 835.34686 375.8102Q834.83124 375.4977 834.1281 375.4977Q833.0031 375.4977 832.1906 376.21646Q831.3781 376.9196 831.3781 378.90396L831.3781 384.57584L829.6125 384.57584ZM840.6281 372.27896L840.6281 370.26334L842.39374 370.26334L842.39374 372.27896L840.6281 372.27896ZM840.6281 384.57584L840.6281 374.20084L842.39374 374.20084L842.39374 384.57584L840.6281 384.57584ZM844.6125 384.57584L844.6125 374.20084L846.20624 374.20084L846.20624 375.6852Q847.34686 373.96646 849.5031 373.96646Q850.4406 373.96646 851.22186 374.3102Q852.01874 374.63834 852.40936 375.1852Q852.8 375.7321 852.95624 376.4821Q853.05 376.9821 853.05 378.20084L853.05 384.57584L851.28436 384.57584L851.28436 378.26334Q851.28436 377.1852 851.08124 376.65396Q850.8781 376.1227 850.34686 375.8102Q849.83124 375.4977 849.1281 375.4977Q848.0031 375.4977 847.1906 376.21646Q846.3781 376.9196 846.3781 378.90396L846.3781 384.57584L844.6125 384.57584ZM855.3 385.4352L857.0031 385.6852Q857.1125 386.4821 857.59686 386.84146Q858.2531 387.32584 859.39374 387.32584Q860.6125 387.32584 861.26874 386.84146Q861.9406 386.3571 862.175 385.4821Q862.3156 384.9352 862.3 383.21646Q861.14374 384.57584 859.425 384.57584Q857.28436 384.57584 856.1125 383.02896Q854.9406 381.4821 854.9406 379.32584Q854.9406 377.84146 855.47186 376.59146Q856.01874 375.34146 857.03436 374.65396Q858.0656 373.96646 859.4406 373.96646Q861.26874 373.96646 862.47186 375.45084L862.47186 374.20084L864.08124 374.20084L864.08124 383.1696Q864.08124 385.59146 863.58124 386.59146Q863.09686 387.6071 862.01874 388.1852Q860.95624 388.77896 859.39374 388.77896Q857.55 388.77896 856.39374 387.95084Q855.2531 387.1227 855.3 385.4352ZM856.7531 379.20084Q856.7531 381.2477 857.5656 382.1852Q858.3781 383.1227 859.59686 383.1227Q860.8 383.1227 861.6125 382.1852Q862.4406 381.2477 862.4406 379.26334Q862.4406 377.3571 861.59686 376.38834Q860.7531 375.4196 859.5656 375.4196Q858.39374 375.4196 857.5656 376.3727Q856.7531 377.32584 856.7531 379.20084ZM883.0656 379.5602L884.95624 380.02896Q884.3625 382.3727 882.8156 383.6071Q881.26874 384.82584 879.01874 384.82584Q876.70624 384.82584 875.2531 383.88834Q873.8156 382.9352 873.05 381.15396Q872.3 379.3571 872.3 377.3102Q872.3 375.07584 873.14374 373.4196Q874.0031 371.7477 875.58124 370.88834Q877.15936 370.01334 879.05 370.01334Q881.20624 370.01334 882.65936 371.1071Q884.1281 372.20084 884.70624 374.1852L882.84686 374.6227Q882.34686 373.0602 881.39374 372.3571Q880.45624 371.63834 879.01874 371.63834Q877.3625 371.63834 876.2531 372.4352Q875.14374 373.21646 874.6906 374.5602Q874.2531 375.88834 874.2531 377.2946Q874.2531 379.1227 874.78436 380.4977Q875.3156 381.8571 876.4406 382.52896Q877.5656 383.20084 878.8625 383.20084Q880.45624 383.20084 881.5656 382.27896Q882.675 381.3571 883.0656 379.5602ZM893.39374 383.2946Q892.40936 384.1227 891.5031 384.46646Q890.59686 384.8102 889.5656 384.8102Q887.8625 384.8102 886.9406 383.9821Q886.01874 383.13834 886.01874 381.84146Q886.01874 381.07584 886.3625 380.45084Q886.72186 379.82584 887.28436 379.45084Q887.84686 379.0602 888.55 378.8571Q889.0656 378.7321 890.1125 378.59146Q892.2375 378.34146 893.2375 377.9977Q893.2531 377.63834 893.2531 377.52896Q893.2531 376.46646 892.7531 376.01334Q892.08124 375.4196 890.7531 375.4196Q889.5031 375.4196 888.90936 375.8571Q888.33124 376.2946 888.05 377.40396L886.33124 377.1696Q886.5656 376.0602 887.09686 375.38834Q887.6281 374.70084 888.64374 374.34146Q889.65936 373.96646 891.0031 373.96646Q892.33124 373.96646 893.15936 374.27896Q893.9875 374.59146 894.3781 375.07584Q894.76874 375.5446 894.925 376.26334Q895.01874 376.71646 895.01874 377.88834L895.01874 380.2321Q895.01874 382.6852 895.1281 383.34146Q895.2375 383.9821 895.58124 384.57584L893.7375 384.57584Q893.47186 384.02896 893.39374 383.2946ZM893.2375 379.3727Q892.28436 379.76334 890.3625 380.02896Q889.28436 380.1852 888.83124 380.38834Q888.39374 380.57584 888.14374 380.95084Q887.89374 381.32584 887.89374 381.7946Q887.89374 382.4977 888.425 382.96646Q888.95624 383.4352 889.9875 383.4352Q891.0031 383.4352 891.78436 382.9977Q892.58124 382.5446 892.95624 381.77896Q893.2375 381.1696 893.2375 380.01334L893.2375 379.3727ZM897.6125 388.5446L897.6125 374.20084L899.22186 374.20084L899.22186 375.5446Q899.78436 374.76334 900.4875 374.3727Q901.20624 373.96646 902.22186 373.96646Q903.55 373.96646 904.5656 374.65396Q905.58124 375.34146 906.09686 376.59146Q906.6281 377.82584 906.6281 379.3102Q906.6281 380.90396 906.05 382.1852Q905.4875 383.45084 904.39374 384.13834Q903.3 384.8102 902.09686 384.8102Q901.22186 384.8102 900.51874 384.4352Q899.83124 384.0602 899.3781 383.4977L899.3781 388.5446L897.6125 388.5446ZM899.20624 379.45084Q899.20624 381.45084 900.01874 382.40396Q900.83124 383.3571 901.9875 383.3571Q903.15936 383.3571 903.9875 382.3727Q904.83124 381.38834 904.83124 379.2946Q904.83124 377.32584 904.0031 376.34146Q903.1906 375.34146 902.0656 375.34146Q900.9406 375.34146 900.0656 376.40396Q899.20624 377.45084 899.20624 379.45084ZM908.6281 372.27896L908.6281 370.26334L910.39374 370.26334L910.39374 372.27896L908.6281 372.27896ZM908.6281 384.57584L908.6281 374.20084L910.39374 374.20084L910.39374 384.57584L908.6281 384.57584ZM916.45624 382.9977L916.70624 384.5602Q915.97186 384.71646 915.3781 384.71646Q914.425 384.71646 913.89374 384.4196Q913.3781 384.1071 913.15936 383.6227Q912.9406 383.1227 912.9406 381.5446L912.9406 375.57584L911.65936 375.57584L911.65936 374.20084L912.9406 374.20084L912.9406 371.63834L914.6906 370.57584L914.6906 374.20084L916.45624 374.20084L916.45624 375.57584L914.6906 375.57584L914.6906 381.63834Q914.6906 382.38834 914.78436 382.6071Q914.8781 382.8102 915.08124 382.95084Q915.3 383.07584 915.6906 383.07584Q915.97186 383.07584 916.45624 382.9977ZM925.39374 383.2946Q924.40936 384.1227 923.5031 384.46646Q922.59686 384.8102 921.5656 384.8102Q919.8625 384.8102 918.9406 383.9821Q918.01874 383.13834 918.01874 381.84146Q918.01874 381.07584 918.3625 380.45084Q918.72186 379.82584 919.28436 379.45084Q919.84686 379.0602 920.55 378.8571Q921.0656 378.7321 922.1125 378.59146Q924.2375 378.34146 925.2375 377.9977Q925.2531 377.63834 925.2531 377.52896Q925.2531 376.46646 924.7531 376.01334Q924.08124 375.4196 922.7531 375.4196Q921.5031 375.4196 920.90936 375.8571Q920.33124 376.2946 920.05 377.40396L918.33124 377.1696Q918.5656 376.0602 919.09686 375.38834Q919.6281 374.70084 920.64374 374.34146Q921.65936 373.96646 923.0031 373.96646Q924.33124 373.96646 925.15936 374.27896Q925.9875 374.59146 926.3781 375.07584Q926.76874 375.5446 926.925 376.26334Q927.01874 376.71646 927.01874 377.88834L927.01874 380.2321Q927.01874 382.6852 927.1281 383.34146Q927.2375 383.9821 927.58124 384.57584L925.7375 384.57584Q925.47186 384.02896 925.39374 383.2946ZM925.2375 379.3727Q924.28436 379.76334 922.3625 380.02896Q921.28436 380.1852 920.83124 380.38834Q920.39374 380.57584 920.14374 380.95084Q919.89374 381.32584 919.89374 381.7946Q919.89374 382.4977 920.425 382.96646Q920.95624 383.4352 921.9875 383.4352Q923.0031 383.4352 923.78436 382.9977Q924.58124 382.5446 924.95624 381.77896Q925.2375 381.1696 925.2375 380.01334L925.2375 379.3727ZM929.58124 384.57584L929.58124 370.26334L931.33124 370.26334L931.33124 384.57584L929.58124 384.57584Z" fill-rule="nonzero"/><path fill="#9e9e9e" d="M876.39374 408.26334L878.08124 408.1071Q878.3 409.2946 878.89374 409.84146Q879.5031 410.3727 880.45624 410.3727Q881.26874 410.3727 881.8781 410.01334Q882.4875 409.63834 882.8781 409.01334Q883.26874 408.38834 883.53436 407.34146Q883.8 406.27896 883.8 405.1852Q883.8 405.07584 883.78436 404.84146Q883.2531 405.6696 882.34686 406.20084Q881.4406 406.71646 880.3625 406.71646Q878.59686 406.71646 877.3625 405.4352Q876.1281 404.13834 876.1281 402.02896Q876.1281 399.8571 877.40936 398.52896Q878.70624 397.20084 880.6281 397.20084Q882.03436 397.20084 883.1906 397.95084Q884.34686 398.70084 884.9406 400.09146Q885.55 401.4821 885.55 404.1227Q885.55 406.8727 884.9406 408.4977Q884.34686 410.1227 883.175 410.9821Q882.0031 411.82584 880.425 411.82584Q878.7375 411.82584 877.675 410.88834Q876.6125 409.95084 876.39374 408.26334ZM883.59686 401.95084Q883.59686 400.4352 882.78436 399.5446Q881.9875 398.65396 880.84686 398.65396Q879.675 398.65396 878.8 399.6227Q877.9406 400.57584 877.9406 402.09146Q877.9406 403.46646 878.7531 404.32584Q879.58124 405.1696 880.8 405.1696Q882.01874 405.1696 882.8 404.32584Q883.59686 403.46646 883.59686 401.95084ZM892.76874 411.57584L892.76874 408.15396L886.55 408.15396L886.55 406.52896L893.08124 397.26334L894.51874 397.26334L894.51874 406.52896L896.45624 406.52896L896.45624 408.15396L894.51874 408.15396L894.51874 411.57584L892.76874 411.57584ZM892.76874 406.52896L892.76874 400.07584L888.28436 406.52896L892.76874 406.52896ZM899.1125 411.57584L899.1125 409.57584L901.1125 409.57584L901.1125 411.57584L899.1125 411.57584ZM909.76874 411.57584L909.76874 408.15396L903.55 408.15396L903.55 406.52896L910.08124 397.26334L911.51874 397.26334L911.51874 406.52896L913.45624 406.52896L913.45624 408.15396L911.51874 408.15396L911.51874 411.57584L909.76874 411.57584ZM909.76874 406.52896L909.76874 400.07584L905.28436 406.52896L909.76874 406.52896ZM915.45624 400.70084Q915.45624 399.1696 916.22186 398.09146Q917.0031 397.01334 918.47186 397.01334Q919.8156 397.01334 920.6906 397.9821Q921.58124 398.9352 921.58124 400.8102Q921.58124 402.6227 920.6906 403.6071Q919.8 404.57584 918.4875 404.57584Q917.1906 404.57584 916.3156 403.6227Q915.45624 402.65396 915.45624 400.70084ZM918.51874 398.2321Q917.8625 398.2321 917.425 398.7946Q917.0031 399.3571 917.0031 400.8727Q917.0031 402.2477 917.4406 402.8102Q917.8781 403.3727 918.51874 403.3727Q919.1906 403.3727 919.6125 402.8102Q920.05 402.2321 920.05 400.7321Q920.05 399.34146 919.6125 398.7946Q919.175 398.2321 918.51874 398.2321ZM918.53436 412.1071L926.3625 397.01334L927.78436 397.01334L919.9875 412.1071L918.53436 412.1071ZM924.72186 408.21646Q924.72186 406.6696 925.4875 405.6071Q926.26874 404.52896 927.7375 404.52896Q929.08124 404.52896 929.95624 405.4977Q930.84686 406.45084 930.84686 408.32584Q930.84686 410.13834 929.95624 411.1227Q929.0656 412.1071 927.7531 412.1071Q926.45624 412.1071 925.58124 411.13834Q924.72186 410.15396 924.72186 408.21646ZM927.78436 405.7477Q927.1281 405.7477 926.6906 406.3102Q926.2531 406.8727 926.2531 408.38834Q926.2531 409.76334 926.6906 410.32584Q927.1281 410.88834 927.78436 410.88834Q928.45624 410.88834 928.8781 410.32584Q929.3156 409.76334 929.3156 408.2477Q929.3156 406.8727 928.8781 406.3102Q928.4406 405.7477 927.78436 405.7477Z" fill-rule="nonzero"/><path stroke="#757575" stroke-width="1.0" stroke-linecap="butt" d="M932.3 391.07584L716.3 391.07584L517.5946 391.07584" fill-rule="nonzero"/><path fill="#9e9e9e" d="M519.5946 391.07584C519.5946 389.97125 518.69916 389.07584 517.5946 389.07584C516.49005 389.07584 515.5946 389.97125 515.5946 391.07584C515.5946 392.1804 516.49005 393.07584 517.5946 393.07584C518.69916 393.07584 519.5946 392.1804 519.5946 391.07584" fill-rule="nonzero"/></svg>