<svg version="1.1" viewBox="0.0 0.0 993.0 442.0" fill="none" stroke="none" stroke-linecap="square" stroke-miterlimit="10" width="993" height="442" xmlns:xlink="http://www.w3.org/1999/xlink" xmlns="http://www.w3.org/2000/svg"><path fill="#ffffff" fill-opacity="0.0" d="M0 0L993.0 0L993.0 442.0L0 442.0L0 0Z" fill-rule="nonzero"/><path fill="#3e6679" d="M695.4 235.9175L695.4 206.0825Z" fill-rule="nonzero"/><path fill="#3e6679" d="M496.5 136.4675C551.42474 136.4675 595.95 167.6352 595.95 206.0825L595.95 235.9175C595.95 197.4702 551.42474 166.3025 496.5 166.3025Z" fill-rule="nonzero"/><path fill="#5891ad" d="M496.5 66.8525C606.3494 66.8525 695.4 129.1879 695.4 206.0825L595.95 206.0825C595.95 167.6352 551.42474 136.4675 496.5 136.4675Z" fill-rule="nonzero"/><path fill="#003044" d="M695.4 235.9175C695.4 312.8121 606.3494 375.1475 496.5 375.1475L496.5 345.3125C606.3494 345.3125 695.4 282.9771 695.4 206.0825Z" fill-rule="nonzero"/><path fill="#003044" d="M595.95 206.0825L595.95 235.9175Z" fill-rule="nonzero"/><path fill="#004561" d="M695.4 206.0825C695.4 282.9771 606.3494 345.3125 496.5 345.3125L496.5 275.6975C551.42474 275.6975 595.95 244.5298 595.95 206.0825Z" fill-rule="nonzero"/><path fill="#14535d" d="M297.6 235.9175L297.6 206.0825Z" fill-rule="nonzero"/><path fill="#14535d" d="M397.05 206.0825C397.05 167.6352 441.5753 136.4675 496.5 136.4675L496.5 166.3025C441.5753 166.3025 397.05 197.4702 397.05 235.9175Z" fill-rule="nonzero"/><path fill="#1c7685" d="M297.6 206.0825C297.6 129.1879 386.65057 66.8525 496.5 66.8525L496.5 136.4675C441.5753 136.4675 397.05 167.6352 397.05 206.0825Z" fill-rule="nonzero"/><path fill="#b34e22" d="M496.5 375.1475C386.65057 375.1475 297.6 312.8121 297.6 235.9175L297.6 206.0825C297.6 282.9771 386.65057 345.3125 496.5 345.3125Z" fill-rule="nonzero"/><path fill="#b34e22" d="M397.05 206.0825L397.05 235.9175Z" fill-rule="nonzero"/><path fill="#ff6f31" d="M496.5 345.3125C386.65057 345.3125 297.6 282.9771 297.6 206.0825L397.05 206.0825C397.05 244.5298 441.5753 275.6975 496.5 275.6975Z" fill-rule="nonzero"/><path fill="#1a1a1a" d="M23.38125 106.05455L23.38125 93.163925L27.271875 93.163925L29.6 101.9608L31.9125 93.163925L35.81875 93.163925L35.81875 106.05455L33.396873 106.05455L33.396873 95.913925L30.85 106.05455L28.334375 106.05455L25.7875 95.913925L25.7875 106.05455L23.38125 106.05455ZM43.803123 103.0858L46.25625 103.49205Q45.7875 104.851425 44.75625 105.570175Q43.740623 106.2733 42.19375 106.2733Q39.75625 106.2733 38.6 104.67955Q37.678123 103.3983 37.678123 101.4608Q37.678123 99.132675 38.88125 97.820175Q40.1 96.507675 41.959373 96.507675Q44.0375 96.507675 45.240623 97.882675Q46.44375 99.257675 46.396873 102.101425L40.209373 102.101425Q40.225 103.195175 40.7875 103.80455Q41.365623 104.413925 42.225 104.413925Q42.803123 104.413925 43.19375 104.101425Q43.6 103.788925 43.803123 103.0858ZM43.94375 100.5858Q43.9125 99.507675 43.38125 98.9608Q42.85 98.3983 42.1 98.3983Q41.2875 98.3983 40.771873 98.99205Q40.240623 99.570175 40.240623 100.5858L43.94375 100.5858ZM56.959373 106.05455L54.6625 106.05455L54.6625 104.67955Q54.084373 105.476425 53.303123 105.882675Q52.5375 106.2733 51.740623 106.2733Q50.13125 106.2733 48.975 104.976425Q47.834373 103.67955 47.834373 101.351425Q47.834373 98.976425 48.94375 97.74205Q50.06875 96.507675 51.771873 96.507675Q53.334373 96.507675 54.490623 97.80455L54.490623 93.163925L56.959373 93.163925L56.959373 106.05455ZM50.365623 101.17955Q50.365623 102.67955 50.771873 103.351425Q51.365623 104.320175 52.44375 104.320175Q53.303123 104.320175 53.896873 103.601425Q54.490623 102.86705 54.490623 101.42955Q54.490623 99.820175 53.9125 99.11705Q53.334373 98.3983 52.428123 98.3983Q51.553123 98.3983 50.959373 99.101425Q50.365623 99.788925 50.365623 101.17955ZM59.396873 95.4608L59.396873 93.163925L61.865623 93.163925L61.865623 95.4608L59.396873 95.4608ZM59.396873 106.05455L59.396873 96.726425L61.865623 96.726425L61.865623 106.05455L59.396873 106.05455ZM72.5375 99.476425L70.1 99.913925Q69.975 99.195175 69.5375 98.820175Q69.1 98.445175 68.4125 98.445175Q67.49062 98.445175 66.92812 99.0858Q66.38125 99.726425 66.38125 101.226425Q66.38125 102.882675 66.94375 103.570175Q67.50625 104.257675 68.44375 104.257675Q69.14687 104.257675 69.58437 103.851425Q70.0375 103.445175 70.225 102.476425L72.64687 102.882675Q72.27187 104.55455 71.19375 105.413925Q70.13125 106.2733 68.33437 106.2733Q66.2875 106.2733 65.06875 104.976425Q63.85 103.67955 63.85 101.3983Q63.85 99.0858 65.06875 97.80455Q66.2875 96.507675 68.38125 96.507675Q70.08437 96.507675 71.08437 97.24205Q72.08437 97.976425 72.5375 99.476425ZM76.24062 99.570175L73.99062 99.163925Q74.38125 97.80455 75.30312 97.163925Q76.225 96.507675 78.0375 96.507675Q79.69375 96.507675 80.49062 96.8983Q81.30312 97.288925 81.63125 97.8983Q81.975 98.49205 81.975 100.101425L81.94375 102.99205Q81.94375 104.2108 82.05312 104.80455Q82.17812 105.382675 82.50625 106.05455L80.06875 106.05455Q79.95937 105.80455 79.81875 105.320175Q79.75625 105.101425 79.74062 105.038925Q79.1 105.6483 78.38125 105.9608Q77.6625 106.2733 76.85 106.2733Q75.39687 106.2733 74.56875 105.49205Q73.74062 104.695175 73.74062 103.507675Q73.74062 102.7108 74.11562 102.101425Q74.49062 101.476425 75.17812 101.1483Q75.86562 100.820175 77.14687 100.570175Q78.88125 100.24205 79.5375 99.9608L79.5375 99.7108Q79.5375 99.007675 79.17812 98.7108Q78.83437 98.3983 77.86562 98.3983Q77.20937 98.3983 76.83437 98.663925Q76.45937 98.913925 76.24062 99.570175ZM79.5375 101.570175Q79.06875 101.726425 78.0375 101.945175Q77.00625 102.163925 76.69375 102.382675Q76.20937 102.726425 76.20937 103.257675Q76.20937 103.7733 76.6 104.1483Q76.99062 104.5233 77.58437 104.5233Q78.25625 104.5233 78.85 104.0858Q79.30312 103.757675 79.44375 103.2733Q79.5375 102.945175 79.5375 102.070175L79.5375 101.570175ZM84.39687 106.05455L84.39687 93.163925L86.86562 93.163925L86.86562 106.05455L84.39687 106.05455ZM93.75625 101.86705L96.2875 101.61705Q96.50625 102.882675 97.20937 103.49205Q97.9125 104.0858 99.1 104.0858Q100.35 104.0858 100.99062 103.55455Q101.63125 103.0233 101.63125 102.30455Q101.63125 101.851425 101.35 101.538925Q101.08437 101.2108 100.42812 100.976425Q99.95937 100.820175 98.33437 100.413925Q96.24062 99.8983 95.39687 99.132675Q94.20937 98.070175 94.20937 96.538925Q94.20937 95.55455 94.77187 94.7108Q95.33437 93.851425 96.38125 93.3983Q97.42812 92.945175 98.9125 92.945175Q101.35 92.945175 102.56875 94.007675Q103.80312 95.070175 103.86562 96.851425L101.25625 96.9608Q101.08437 95.976425 100.5375 95.538925Q99.99062 95.101425 98.89687 95.101425Q97.75625 95.101425 97.11562 95.570175Q96.70937 95.86705 96.70937 96.36705Q96.70937 96.820175 97.08437 97.1483Q97.58437 97.570175 99.475 98.0233Q101.38125 98.4608 102.2875 98.945175Q103.19375 99.413925 103.70937 100.257675Q104.225 101.0858 104.225 102.30455Q104.225 103.413925 103.6 104.382675Q102.99062 105.3358 101.86562 105.820175Q100.74062 106.288925 99.06875 106.288925Q96.63125 106.288925 95.31875 105.163925Q94.00625 104.0233 93.75625 101.86705ZM106.31875 96.726425L108.63125 96.726425L108.63125 98.0858Q109.06875 97.382675 109.83437 96.945175Q110.6 96.507675 111.5375 96.507675Q113.1625 96.507675 114.2875 97.788925Q115.42812 99.05455 115.42812 101.3358Q115.42812 103.67955 114.2875 104.976425Q113.14687 106.2733 111.52187 106.2733Q110.74062 106.2733 110.11562 105.9608Q109.49062 105.6483 108.7875 104.8983L108.7875 109.601425L106.31875 109.601425L106.31875 96.726425ZM108.77187 101.226425Q108.77187 102.80455 109.38125 103.55455Q110.00625 104.30455 110.9125 104.30455Q111.77187 104.30455 112.33437 103.61705Q112.9125 102.92955 112.9125 101.351425Q112.9125 99.882675 112.31875 99.17955Q111.74062 98.4608 110.86562 98.4608Q109.95937 98.4608 109.36562 99.163925Q108.77187 99.851425 108.77187 101.226425ZM122.80312 103.0858L125.25625 103.49205Q124.7875 104.851425 123.75625 105.570175Q122.74062 106.2733 121.19375 106.2733Q118.75625 106.2733 117.6 104.67955Q116.67812 103.3983 116.67812 101.4608Q116.67812 99.132675 117.88125 97.820175Q119.1 96.507675 120.95937 96.507675Q123.0375 96.507675 124.24062 97.882675Q125.44375 99.257675 125.39687 102.101425L119.20937 102.101425Q119.225 103.195175 119.7875 103.80455Q120.36562 104.413925 121.225 104.413925Q121.80312 104.413925 122.19375 104.101425Q122.6 103.788925 122.80312 103.0858ZM122.94375 100.5858Q122.9125 99.507675 122.38125 98.9608Q121.85 98.3983 121.1 98.3983Q120.2875 98.3983 119.77187 98.99205Q119.24062 99.570175 119.24062 100.5858L122.94375 100.5858ZM135.5375 99.476425L133.1 99.913925Q132.975 99.195175 132.5375 98.820175Q132.1 98.445175 131.4125 98.445175Q130.49063 98.445175 129.92813 99.0858Q129.38126 99.726425 129.38126 101.226425Q129.38126 102.882675 129.94376 103.570175Q130.50626 104.257675 131.44376 104.257675Q132.14688 104.257675 132.58438 103.851425Q133.0375 103.445175 133.225 102.476425L135.64688 102.882675Q135.27188 104.55455 134.19376 105.413925Q133.13126 106.2733 131.33438 106.2733Q129.2875 106.2733 128.06876 104.976425Q126.85 103.67955 126.85 101.3983Q126.85 99.0858 128.06876 97.80455Q129.2875 96.507675 131.38126 96.507675Q133.08438 96.507675 134.08438 97.24205Q135.08438 97.976425 135.5375 99.476425ZM137.39688 95.4608L137.39688 93.163925L139.86563 93.163925L139.86563 95.4608L137.39688 95.4608ZM137.39688 106.05455L137.39688 96.726425L139.86563 96.726425L139.86563 106.05455L137.39688 106.05455ZM144.24063 99.570175L141.99063 99.163925Q142.38126 97.80455 143.30313 97.163925Q144.225 96.507675 146.0375 96.507675Q147.69376 96.507675 148.49063 96.8983Q149.30313 97.288925 149.63126 97.8983Q149.975 98.49205 149.975 100.101425L149.94376 102.99205Q149.94376 104.2108 150.05313 104.80455Q150.17813 105.382675 150.50626 106.05455L148.06876 106.05455Q147.95938 105.80455 147.81876 105.320175Q147.75626 105.101425 147.74063 105.038925Q147.1 105.6483 146.38126 105.9608Q145.6625 106.2733 144.85 106.2733Q143.39688 106.2733 142.56876 105.49205Q141.74063 104.695175 141.74063 103.507675Q141.74063 102.7108 142.11563 102.101425Q142.49063 101.476425 143.17813 101.1483Q143.86563 100.820175 145.14688 100.570175Q146.88126 100.24205 147.5375 99.9608L147.5375 99.7108Q147.5375 99.007675 147.17813 98.7108Q146.83438 98.3983 145.86563 98.3983Q145.20938 98.3983 144.83438 98.663925Q144.45938 98.913925 144.24063 99.570175ZM147.5375 101.570175Q147.06876 101.726425 146.0375 101.945175Q145.00626 102.163925 144.69376 102.382675Q144.20938 102.726425 144.20938 103.257675Q144.20938 103.7733 144.6 104.1483Q144.99063 104.5233 145.58438 104.5233Q146.25626 104.5233 146.85 104.0858Q147.30313 103.757675 147.44376 103.2733Q147.5375 102.945175 147.5375 102.070175L147.5375 101.570175ZM152.39688 106.05455L152.39688 93.163925L154.86563 93.163925L154.86563 106.05455L152.39688 106.05455ZM161.67813 96.726425L161.67813 98.695175L159.99063 98.695175L159.99063 102.445175Q159.99063 103.5858 160.0375 103.788925Q160.08438 103.976425 160.25626 104.101425Q160.42813 104.2108 160.67813 104.2108Q161.00626 104.2108 161.6625 103.976425L161.88126 105.8983Q161.00626 106.2733 159.92813 106.2733Q159.25626 106.2733 158.70938 106.05455Q158.17813 105.820175 157.92813 105.4608Q157.67813 105.101425 157.58438 104.49205Q157.50626 104.070175 157.50626 102.757675L157.50626 98.695175L156.36563 98.695175L156.36563 96.726425L157.50626 96.726425L157.50626 94.86705L159.99063 93.42955L159.99063 96.726425L161.67813 96.726425ZM162.225 96.726425L164.85 96.726425L167.08438 103.351425L169.25626 96.726425L171.81876 96.726425L168.52188 105.695175L167.94376 107.3358Q167.61563 108.1483 167.31876 108.570175Q167.02188 109.007675 166.63126 109.2733Q166.25626 109.538925 165.69376 109.67955Q165.14688 109.8358 164.44376 109.8358Q163.725 109.8358 163.0375 109.695175L162.81876 107.757675Q163.39688 107.86705 163.86563 107.86705Q164.725 107.86705 165.13126 107.36705Q165.55313 106.86705 165.77188 106.0858L162.225 96.726425ZM178.4125 106.05455L178.4125 93.163925L183.89688 93.163925Q185.95938 93.163925 186.89688 93.5233Q187.83438 93.86705 188.39688 94.757675Q188.95938 95.632675 188.95938 96.788925Q188.95938 98.226425 188.1 99.17955Q187.25626 100.11705 185.55313 100.36705Q186.39688 100.86705 186.94376 101.4608Q187.49063 102.038925 188.42813 103.538925L190.00626 106.05455L186.89688 106.05455L185.00626 103.257675Q184.00626 101.74205 183.63126 101.351425Q183.27188 100.9608 182.85 100.820175Q182.44376 100.67955 181.55313 100.67955L181.02188 100.67955L181.02188 106.05455L178.4125 106.05455ZM181.02188 98.61705L182.94376 98.61705Q184.81876 98.61705 185.2875 98.4608Q185.75626 98.30455 186.00626 97.913925Q186.27188 97.5233 186.27188 96.945175Q186.27188 96.30455 185.92813 95.8983Q185.58438 95.49205 184.94376 95.3983Q184.63126 95.351425 183.05313 95.351425L181.02188 95.351425L181.02188 98.61705ZM196.80313 103.0858L199.25626 103.49205Q198.7875 104.851425 197.75626 105.570175Q196.74063 106.2733 195.19376 106.2733Q192.75626 106.2733 191.6 104.67955Q190.67813 103.3983 190.67813 101.4608Q190.67813 99.132675 191.88126 97.820175Q193.1 96.507675 194.95938 96.507675Q197.0375 96.507675 198.24063 97.882675Q199.44376 99.257675 199.39688 102.101425L193.20938 102.101425Q193.225 103.195175 193.7875 103.80455Q194.36563 104.413925 195.225 104.413925Q195.80313 104.413925 196.19376 104.101425Q196.6 103.788925 196.80313 103.0858ZM196.94376 100.5858Q196.9125 99.507675 196.38126 98.9608Q195.85 98.3983 195.1 98.3983Q194.2875 98.3983 193.77188 98.99205Q193.24063 99.570175 193.24063 100.5858L196.94376 100.5858ZM200.52188 103.3983L203.00626 103.007675Q203.1625 103.726425 203.64688 104.101425Q204.13126 104.476425 204.99063 104.476425Q205.95938 104.476425 206.44376 104.132675Q206.75626 103.882675 206.75626 103.476425Q206.75626 103.195175 206.58438 103.007675Q206.39688 102.8358 205.75626 102.67955Q202.77188 102.0233 201.975 101.476425Q200.86563 100.726425 200.86563 99.36705Q200.86563 98.163925 201.81876 97.3358Q202.7875 96.507675 204.7875 96.507675Q206.70938 96.507675 207.63126 97.132675Q208.56876 97.757675 208.92813 98.976425L206.6 99.413925Q206.44376 98.86705 206.02188 98.5858Q205.61563 98.288925 204.83438 98.288925Q203.86563 98.288925 203.44376 98.55455Q203.1625 98.757675 203.1625 99.05455Q203.1625 99.320175 203.4125 99.507675Q203.74063 99.757675 205.70938 100.2108Q207.67813 100.6483 208.475 101.30455Q209.24063 101.9608 209.24063 103.132675Q209.24063 104.413925 208.1625 105.351425Q207.1 106.2733 204.99063 106.2733Q203.08438 106.2733 201.975 105.49205Q200.86563 104.7108 200.52188 103.3983ZM216.80313 103.0858L219.25626 103.49205Q218.7875 104.851425 217.75626 105.570175Q216.74063 106.2733 215.19376 106.2733Q212.75626 106.2733 211.6 104.67955Q210.67813 103.3983 210.67813 101.4608Q210.67813 99.132675 211.88126 97.820175Q213.1 96.507675 214.95938 96.507675Q217.0375 96.507675 218.24063 97.882675Q219.44376 99.257675 219.39688 102.101425L213.20938 102.101425Q213.225 103.195175 213.7875 103.80455Q214.36563 104.413925 215.225 104.413925Q215.80313 104.413925 216.19376 104.101425Q216.6 103.788925 216.80313 103.0858ZM216.94376 100.5858Q216.9125 99.507675 216.38126 98.9608Q215.85 98.3983 215.1 98.3983Q214.2875 98.3983 213.77188 98.99205Q213.24063 99.570175 213.24063 100.5858L216.94376 100.5858ZM223.24063 99.570175L220.99063 99.163925Q221.38126 97.80455 222.30313 97.163925Q223.225 96.507675 225.0375 96.507675Q226.69376 96.507675 227.49063 96.8983Q228.30313 97.288925 228.63126 97.8983Q228.975 98.49205 228.975 100.101425L228.94376 102.99205Q228.94376 104.2108 229.05313 104.80455Q229.17813 105.382675 229.50626 106.05455L227.06876 106.05455Q226.95938 105.80455 226.81876 105.320175Q226.75626 105.101425 226.74063 105.038925Q226.1 105.6483 225.38126 105.9608Q224.6625 106.2733 223.85 106.2733Q222.39688 106.2733 221.56876 105.49205Q220.74063 104.695175 220.74063 103.507675Q220.74063 102.7108 221.11563 102.101425Q221.49063 101.476425 222.17813 101.1483Q222.86563 100.820175 224.14688 100.570175Q225.88126 100.24205 226.5375 99.9608L226.5375 99.7108Q226.5375 99.007675 226.17813 98.7108Q225.83438 98.3983 224.86563 98.3983Q224.20938 98.3983 223.83438 98.663925Q223.45938 98.913925 223.24063 99.570175ZM226.5375 101.570175Q226.06876 101.726425 225.0375 101.945175Q224.00626 102.163925 223.69376 102.382675Q223.20938 102.726425 223.20938 103.257675Q223.20938 103.7733 223.6 104.1483Q223.99063 104.5233 224.58438 104.5233Q225.25626 104.5233 225.85 104.0858Q226.30313 103.757675 226.44376 103.2733Q226.5375 102.945175 226.5375 102.070175L226.5375 101.570175ZM233.75626 106.05455L231.2875 106.05455L231.2875 96.726425L233.58438 96.726425L233.58438 98.05455Q234.1625 97.101425 234.63126 96.80455Q235.11563 96.507675 235.70938 96.507675Q236.55313 96.507675 237.33438 96.976425L236.56876 99.132675Q235.94376 98.726425 235.4125 98.726425Q234.89688 98.726425 234.52188 99.007675Q234.1625 99.288925 233.95938 100.038925Q233.75626 100.788925 233.75626 103.163925L233.75626 106.05455ZM246.5375 99.476425L244.1 99.913925Q243.975 99.195175 243.5375 98.820175Q243.1 98.445175 242.4125 98.445175Q241.49063 98.445175 240.92813 99.0858Q240.38126 99.726425 240.38126 101.226425Q240.38126 102.882675 240.94376 103.570175Q241.50626 104.257675 242.44376 104.257675Q243.14688 104.257675 243.58438 103.851425Q244.0375 103.445175 244.225 102.476425L246.64688 102.882675Q246.27188 104.55455 245.19376 105.413925Q244.13126 106.2733 242.33438 106.2733Q240.2875 106.2733 239.06876 104.976425Q237.85 103.67955 237.85 101.3983Q237.85 99.0858 239.06876 97.80455Q240.2875 96.507675 242.38126 96.507675Q244.08438 96.507675 245.08438 97.24205Q246.08438 97.976425 246.5375 99.476425ZM250.85 93.163925L250.85 97.913925Q252.05313 96.507675 253.70938 96.507675Q254.56876 96.507675 255.24063 96.8358Q255.92813 97.1483 256.27188 97.6483Q256.63126 98.132675 256.75626 98.726425Q256.88126 99.320175 256.88126 100.5858L256.88126 106.05455L254.4125 106.05455L254.4125 101.11705Q254.4125 99.6483 254.27188 99.257675Q254.13126 98.86705 253.77188 98.632675Q253.4125 98.3983 252.88126 98.3983Q252.27188 98.3983 251.7875 98.695175Q251.30313 98.99205 251.06876 99.601425Q250.85 100.195175 250.85 101.382675L250.85 106.05455L248.38126 106.05455L248.38126 93.163925L250.85 93.163925Z" fill-rule="nonzero"/><path fill="#9e9e9e" d="M31.209375 128.75768L31.209375 131.05455L22.553125 131.05455Q22.69375 129.75768 23.396875 128.60143Q24.1 127.42955 26.1625 125.49205Q27.834375 123.945175 28.225 123.382675Q28.725 122.632675 28.725 121.882675Q28.725 121.05455 28.271875 120.61705Q27.834375 120.163925 27.053125 120.163925Q26.2875 120.163925 25.81875 120.632675Q25.365625 121.101425 25.303125 122.17955L22.834375 121.92955Q23.053125 119.8983 24.209375 119.007675Q25.38125 118.11705 27.115625 118.11705Q29.021875 118.11705 30.115625 119.1483Q31.209375 120.17955 31.209375 121.695175Q31.209375 122.570175 30.896875 123.36705Q30.584375 124.1483 29.9125 125.007675Q29.459375 125.5858 28.2875 126.663925Q27.115625 127.726425 26.803125 128.0858Q26.490625 128.42955 26.303125 128.75768L31.209375 128.75768ZM32.896873 127.74205L35.365623 127.49205Q35.459373 128.32018 35.975 128.80455Q36.50625 129.28893 37.178123 129.28893Q37.959373 129.28893 38.490623 128.66393Q39.021873 128.03893 39.021873 126.7733Q39.021873 125.5858 38.490623 124.99205Q37.959373 124.3983 37.115623 124.3983Q36.053123 124.3983 35.209373 125.3358L33.19375 125.05455L34.459373 118.351425L40.990623 118.351425L40.990623 120.663925L36.334373 120.663925L35.94375 122.851425Q36.771873 122.42955 37.63125 122.42955Q39.2875 122.42955 40.428123 123.632675Q41.56875 124.820175 41.56875 126.726425Q41.56875 128.32018 40.646873 129.57018Q39.38125 131.2733 37.146873 131.2733Q35.365623 131.2733 34.240623 130.32018Q33.115623 129.35143 32.896873 127.74205ZM43.396873 131.05455L43.396873 128.5858L45.865623 128.5858L45.865623 131.05455L43.396873 131.05455ZM52.0375 118.11705Q53.9125 118.11705 54.959373 119.445175Q56.225 121.038925 56.225 124.695175Q56.225 128.35143 54.959373 129.9608Q53.9125 131.2733 52.0375 131.2733Q50.1625 131.2733 49.00625 129.8358Q47.85 128.38268 47.85 124.67955Q47.85 121.038925 49.115623 119.42955Q50.1625 118.11705 52.0375 118.11705ZM52.0375 120.163925Q51.584373 120.163925 51.225 120.4608Q50.88125 120.74205 50.69375 121.476425Q50.44375 122.42955 50.44375 124.695175Q50.44375 126.9608 50.6625 127.820175Q50.896873 128.66393 51.240623 128.94518Q51.584373 129.22643 52.0375 129.22643Q52.490623 129.22643 52.834373 128.94518Q53.19375 128.6483 53.38125 127.913925Q53.646873 126.9608 53.646873 124.695175Q53.646873 122.42955 53.4125 121.5858Q53.178123 120.74205 52.834373 120.4608Q52.490623 120.163925 52.0375 120.163925ZM57.88125 121.351425Q57.88125 119.61705 58.63125 118.788925Q59.396873 117.945175 60.709373 117.945175Q62.053123 117.945175 62.803123 118.788925Q63.56875 119.61705 63.56875 121.351425Q63.56875 123.0858 62.803123 123.92955Q62.053123 124.757675 60.740623 124.757675Q59.396873 124.757675 58.63125 123.92955Q57.88125 123.0858 57.88125 121.351425ZM59.803123 121.3358Q59.803123 122.5858 60.1 123.0233Q60.31875 123.3358 60.709373 123.3358Q61.1 123.3358 61.31875 123.0233Q61.6 122.5858 61.6 121.3358Q61.6 120.070175 61.31875 119.6483Q61.1 119.3358 60.709373 119.3358Q60.31875 119.3358 60.1 119.6483Q59.803123 120.070175 59.803123 121.3358ZM62.584373 131.55455L60.75625 131.55455L67.61562 117.945175L69.39687 117.945175L62.584373 131.55455ZM66.56875 128.16393Q66.56875 126.42955 67.33437 125.601425Q68.1 124.757675 69.4125 124.757675Q70.74062 124.757675 71.49062 125.601425Q72.25625 126.42955 72.25625 128.16393Q72.25625 129.8983 71.49062 130.74205Q70.74062 131.57018 69.44375 131.57018Q68.1 131.57018 67.33437 130.74205Q66.56875 129.8983 66.56875 128.16393ZM68.50625 128.1483Q68.50625 129.41393 68.7875 129.8358Q69.00625 130.16393 69.39687 130.16393Q69.7875 130.16393 70.00625 129.8358Q70.2875 129.41393 70.2875 128.1483Q70.2875 126.8983 70.00625 126.4608Q69.7875 126.1483 69.39687 126.1483Q69.00625 126.1483 68.7875 126.4608Q68.50625 126.8983 68.50625 128.1483Z" fill-rule="nonzero"/><path stroke="#757575" stroke-width="1.0" stroke-linecap="butt" d="M22.1 112.55455L291.6 112.55455L362.88864 112.55455" fill-rule="nonzero"/><path fill="#9e9e9e" d="M364.88864 112.55455C364.88864 111.449974 363.9932 110.55455 362.88864 110.55455C361.78406 110.55455 360.88864 111.449974 360.88864 112.55455C360.88864 113.65912 361.78406 114.55455 362.88864 114.55455C363.9932 114.55455 364.88864 113.65912 364.88864 112.55455" fill-rule="nonzero"/><path fill="#1a1a1a" d="M23.4125 293.11044L23.4125 280.21982L32.959373 280.21982L32.959373 282.40732L26.00625 282.40732L26.00625 285.2667L32.475 285.2667L32.475 287.43857L26.00625 287.43857L26.00625 290.93857L33.209373 290.93857L33.209373 293.11044L23.4125 293.11044ZM43.959373 293.11044L41.6625 293.11044L41.6625 291.73544Q41.084373 292.53232 40.303123 292.93857Q39.5375 293.3292 38.740623 293.3292Q37.13125 293.3292 35.975 292.03232Q34.834373 290.73544 34.834373 288.40732Q34.834373 286.03232 35.94375 284.79794Q37.06875 283.56357 38.771873 283.56357Q40.334373 283.56357 41.490623 284.86044L41.490623 280.21982L43.959373 280.21982L43.959373 293.11044ZM37.365623 288.23544Q37.365623 289.73544 37.771873 290.40732Q38.365623 291.37607 39.44375 291.37607Q40.303123 291.37607 40.896873 290.65732Q41.490623 289.92294 41.490623 288.48544Q41.490623 286.87607 40.9125 286.17294Q40.334373 285.4542 39.428123 285.4542Q38.553123 285.4542 37.959373 286.15732Q37.365623 286.84482 37.365623 288.23544ZM52.5375 293.11044L52.5375 291.71982Q52.021873 292.4542 51.19375 292.8917Q50.365623 293.3292 49.44375 293.3292Q48.50625 293.3292 47.75625 292.92294Q47.00625 292.50107 46.6625 291.75107Q46.334373 291.00107 46.334373 289.68857L46.334373 283.78232L48.803123 283.78232L48.803123 288.06357Q48.803123 290.03232 48.94375 290.48544Q49.084373 290.92294 49.44375 291.18857Q49.803123 291.43857 50.35 291.43857Q50.990623 291.43857 51.490623 291.09482Q51.990623 290.75107 52.178123 290.23544Q52.365623 289.71982 52.365623 287.71982L52.365623 283.78232L54.834373 283.78232L54.834373 293.11044L52.5375 293.11044ZM65.5375 286.53232L63.1 286.96982Q62.975 286.25107 62.5375 285.87607Q62.1 285.50107 61.4125 285.50107Q60.490623 285.50107 59.928123 286.1417Q59.38125 286.78232 59.38125 288.28232Q59.38125 289.93857 59.94375 290.62607Q60.50625 291.31357 61.44375 291.31357Q62.146873 291.31357 62.584373 290.90732Q63.0375 290.50107 63.225 289.53232L65.64687 289.93857Q65.27187 291.61044 64.19375 292.46982Q63.13125 293.3292 61.334373 293.3292Q59.2875 293.3292 58.06875 292.03232Q56.85 290.73544 56.85 288.4542Q56.85 286.1417 58.06875 284.86044Q59.2875 283.56357 61.38125 283.56357Q63.084373 283.56357 64.08437 284.29794Q65.08437 285.03232 65.5375 286.53232ZM69.24062 286.62607L66.99062 286.21982Q67.38125 284.86044 68.30312 284.21982Q69.225 283.56357 71.0375 283.56357Q72.69375 283.56357 73.49062 283.9542Q74.30312 284.34482 74.63125 284.9542Q74.975 285.54794 74.975 287.15732L74.94375 290.04794Q74.94375 291.2667 75.05312 291.86044Q75.17812 292.43857 75.50625 293.11044L73.06875 293.11044Q72.95937 292.86044 72.81875 292.37607Q72.75625 292.15732 72.74062 292.09482Q72.1 292.7042 71.38125 293.0167Q70.6625 293.3292 69.85 293.3292Q68.39687 293.3292 67.56875 292.54794Q66.74062 291.75107 66.74062 290.56357Q66.74062 289.7667 67.11562 289.15732Q67.49062 288.53232 68.17812 288.2042Q68.86562 287.87607 70.14687 287.62607Q71.88125 287.29794 72.5375 287.0167L72.5375 286.7667Q72.5375 286.06357 72.17812 285.7667Q71.83437 285.4542 70.86562 285.4542Q70.20937 285.4542 69.83437 285.71982Q69.45937 285.96982 69.24062 286.62607ZM72.5375 288.62607Q72.06875 288.78232 71.0375 289.00107Q70.00625 289.21982 69.69375 289.43857Q69.20937 289.78232 69.20937 290.31357Q69.20937 290.8292 69.6 291.2042Q69.99062 291.5792 70.58437 291.5792Q71.25625 291.5792 71.85 291.1417Q72.30312 290.81357 72.44375 290.3292Q72.5375 290.00107 72.5375 289.12607L72.5375 288.62607ZM81.67812 283.78232L81.67812 285.75107L79.99062 285.75107L79.99062 289.50107Q79.99062 290.6417 80.0375 290.84482Q80.08437 291.03232 80.25625 291.15732Q80.42812 291.2667 80.67812 291.2667Q81.00625 291.2667 81.6625 291.03232L81.88125 292.9542Q81.00625 293.3292 79.92812 293.3292Q79.25625 293.3292 78.70937 293.11044Q78.17812 292.87607 77.92812 292.5167Q77.67812 292.15732 77.58437 291.54794Q77.50625 291.12607 77.50625 289.81357L77.50625 285.75107L76.36562 285.75107L76.36562 283.78232L77.50625 283.78232L77.50625 281.92294L79.99062 280.48544L79.99062 283.78232L81.67812 283.78232ZM83.39687 282.5167L83.39687 280.21982L85.86562 280.21982L85.86562 282.5167L83.39687 282.5167ZM83.39687 293.11044L83.39687 283.78232L85.86562 283.78232L85.86562 293.11044L83.39687 293.11044ZM87.81875 288.31357Q87.81875 287.0792 88.42812 285.93857Q89.0375 284.78232 90.14687 284.17294Q91.25625 283.56357 92.63125 283.56357Q94.74062 283.56357 96.1 284.93857Q97.45937 286.31357 97.45937 288.42294Q97.45937 290.53232 96.08437 291.93857Q94.725 293.3292 92.64687 293.3292Q91.36562 293.3292 90.19375 292.75107Q89.0375 292.15732 88.42812 291.04794Q87.81875 289.92294 87.81875 288.31357ZM90.35 288.43857Q90.35 289.8292 91.00625 290.5792Q91.67812 291.31357 92.63125 291.31357Q93.6 291.31357 94.25625 290.5792Q94.9125 289.8292 94.9125 288.42294Q94.9125 287.04794 94.25625 286.31357Q93.6 285.5792 92.63125 285.5792Q91.67812 285.5792 91.00625 286.31357Q90.35 287.04794 90.35 288.43857ZM107.88125 293.11044L105.4125 293.11044L105.4125 288.34482Q105.4125 286.8292 105.25625 286.3917Q105.1 285.9542 104.74062 285.7042Q104.38125 285.4542 103.88125 285.4542Q103.24062 285.4542 102.725 285.81357Q102.225 286.15732 102.0375 286.73544Q101.85 287.31357 101.85 288.87607L101.85 293.11044L99.38125 293.11044L99.38125 283.78232L101.6625 283.78232L101.6625 285.1417Q102.89687 283.56357 104.74062 283.56357Q105.56875 283.56357 106.24062 283.86044Q106.9125 284.15732 107.25625 284.61044Q107.61562 285.06357 107.74062 285.65732Q107.88125 286.23544 107.88125 287.31357L107.88125 293.11044ZM126.80312 291.53232L125.31875 293.43857Q124.20937 292.90732 123.20937 291.96982Q122.42812 292.67294 121.5375 293.0167Q120.6625 293.34482 119.45937 293.34482Q117.0375 293.34482 115.83437 291.98544Q114.89687 290.93857 114.89687 289.5792Q114.89687 288.34482 115.63125 287.36044Q116.36562 286.36044 117.83437 285.62607Q117.17812 284.84482 116.83437 284.1417Q116.50625 283.43857 116.50625 282.79794Q116.50625 281.62607 117.44375 280.81357Q118.38125 280.00107 120.11562 280.00107Q121.7875 280.00107 122.725 280.86044Q123.6625 281.7042 123.6625 282.93857Q123.6625 283.71982 123.19375 284.42294Q122.725 285.12607 121.31875 286.0167L123.11562 288.37607Q123.42812 287.81357 123.64687 286.90732L125.88125 287.42294Q125.55312 288.61044 125.30312 289.15732Q125.05312 289.7042 124.77187 290.0792Q125.19375 290.46982 125.85 290.93857Q126.50625 291.3917 126.80312 291.53232ZM120.08437 284.53232L120.75625 284.0167Q121.49062 283.4542 121.49062 282.8917Q121.49062 282.40732 121.13125 282.0792Q120.7875 281.75107 120.17812 281.75107Q119.58437 281.75107 119.24062 282.04794Q118.9125 282.3292 118.9125 282.71982Q118.9125 283.17294 119.475 283.8292L120.08437 284.53232ZM119.11562 287.21982Q118.27187 287.6417 117.85 288.25107Q117.42812 288.86044 117.42812 289.48544Q117.42812 290.28232 117.94375 290.79794Q118.475 291.29794 119.35 291.29794Q119.92812 291.29794 120.45937 291.0792Q121.00625 290.84482 121.63125 290.31357L119.11562 287.21982ZM133.4125 293.11044L133.4125 280.21982L142.95938 280.21982L142.95938 282.40732L136.00626 282.40732L136.00626 285.2667L142.475 285.2667L142.475 287.43857L136.00626 287.43857L136.00626 290.93857L143.20938 290.93857L143.20938 293.11044L133.4125 293.11044ZM153.88126 293.11044L151.4125 293.11044L151.4125 288.34482Q151.4125 286.8292 151.25626 286.3917Q151.1 285.9542 150.74063 285.7042Q150.38126 285.4542 149.88126 285.4542Q149.24063 285.4542 148.725 285.81357Q148.225 286.15732 148.0375 286.73544Q147.85 287.31357 147.85 288.87607L147.85 293.11044L145.38126 293.11044L145.38126 283.78232L147.6625 283.78232L147.6625 285.1417Q148.89688 283.56357 150.74063 283.56357Q151.56876 283.56357 152.24063 283.86044Q152.9125 284.15732 153.25626 284.61044Q153.61563 285.06357 153.74063 285.65732Q153.88126 286.23544 153.88126 287.31357L153.88126 293.11044ZM160.67813 283.78232L160.67813 285.75107L158.99063 285.75107L158.99063 289.50107Q158.99063 290.6417 159.0375 290.84482Q159.08438 291.03232 159.25626 291.15732Q159.42813 291.2667 159.67813 291.2667Q160.00626 291.2667 160.6625 291.03232L160.88126 292.9542Q160.00626 293.3292 158.92813 293.3292Q158.25626 293.3292 157.70938 293.11044Q157.17813 292.87607 156.92813 292.5167Q156.67813 292.15732 156.58438 291.54794Q156.50626 291.12607 156.50626 289.81357L156.50626 285.75107L155.36563 285.75107L155.36563 283.78232L156.50626 283.78232L156.50626 281.92294L158.99063 280.48544L158.99063 283.78232L160.67813 283.78232ZM164.75626 293.11044L162.2875 293.11044L162.2875 283.78232L164.58438 283.78232L164.58438 285.11044Q165.1625 284.15732 165.63126 283.86044Q166.11563 283.56357 166.70938 283.56357Q167.55313 283.56357 168.33438 284.03232L167.56876 286.18857Q166.94376 285.78232 166.4125 285.78232Q165.89688 285.78232 165.52188 286.06357Q165.1625 286.34482 164.95938 287.09482Q164.75626 287.84482 164.75626 290.21982L164.75626 293.11044ZM174.80313 290.1417L177.25626 290.54794Q176.7875 291.90732 175.75626 292.62607Q174.74063 293.3292 173.19376 293.3292Q170.75626 293.3292 169.6 291.73544Q168.67813 290.4542 168.67813 288.5167Q168.67813 286.18857 169.88126 284.87607Q171.1 283.56357 172.95938 283.56357Q175.0375 283.56357 176.24063 284.93857Q177.44376 286.31357 177.39688 289.15732L171.20938 289.15732Q171.225 290.25107 171.7875 290.86044Q172.36563 291.46982 173.225 291.46982Q173.80313 291.46982 174.19376 291.15732Q174.6 290.84482 174.80313 290.1417ZM174.94376 287.6417Q174.9125 286.56357 174.38126 286.0167Q173.85 285.4542 173.1 285.4542Q172.2875 285.4542 171.77188 286.04794Q171.24063 286.62607 171.24063 287.6417L174.94376 287.6417ZM179.31876 283.78232L181.63126 283.78232L181.63126 285.1417Q182.06876 284.43857 182.83438 284.00107Q183.6 283.56357 184.5375 283.56357Q186.1625 283.56357 187.2875 284.84482Q188.42813 286.11044 188.42813 288.3917Q188.42813 290.73544 187.2875 292.03232Q186.14688 293.3292 184.52188 293.3292Q183.74063 293.3292 183.11563 293.0167Q182.49063 292.7042 181.7875 291.9542L181.7875 296.65732L179.31876 296.65732L179.31876 283.78232ZM181.77188 288.28232Q181.77188 289.86044 182.38126 290.61044Q183.00626 291.36044 183.9125 291.36044Q184.77188 291.36044 185.33438 290.67294Q185.9125 289.98544 185.9125 288.40732Q185.9125 286.93857 185.31876 286.23544Q184.74063 285.5167 183.86563 285.5167Q182.95938 285.5167 182.36563 286.21982Q181.77188 286.90732 181.77188 288.28232ZM192.75626 293.11044L190.2875 293.11044L190.2875 283.78232L192.58438 283.78232L192.58438 285.11044Q193.1625 284.15732 193.63126 283.86044Q194.11563 283.56357 194.70938 283.56357Q195.55313 283.56357 196.33438 284.03232L195.56876 286.18857Q194.94376 285.78232 194.4125 285.78232Q193.89688 285.78232 193.52188 286.06357Q193.1625 286.34482 192.95938 287.09482Q192.75626 287.84482 192.75626 290.21982L192.75626 293.11044ZM202.80313 290.1417L205.25626 290.54794Q204.7875 291.90732 203.75626 292.62607Q202.74063 293.3292 201.19376 293.3292Q198.75626 293.3292 197.6 291.73544Q196.67813 290.4542 196.67813 288.5167Q196.67813 286.18857 197.88126 284.87607Q199.1 283.56357 200.95938 283.56357Q203.0375 283.56357 204.24063 284.93857Q205.44376 286.31357 205.39688 289.15732L199.20938 289.15732Q199.225 290.25107 199.7875 290.86044Q200.36563 291.46982 201.225 291.46982Q201.80313 291.46982 202.19376 291.15732Q202.6 290.84482 202.80313 290.1417ZM202.94376 287.6417Q202.9125 286.56357 202.38126 286.0167Q201.85 285.4542 201.1 285.4542Q200.2875 285.4542 199.77188 286.04794Q199.24063 286.62607 199.24063 287.6417L202.94376 287.6417ZM215.88126 293.11044L213.4125 293.11044L213.4125 288.34482Q213.4125 286.8292 213.25626 286.3917Q213.1 285.9542 212.74063 285.7042Q212.38126 285.4542 211.88126 285.4542Q211.24063 285.4542 210.725 285.81357Q210.225 286.15732 210.0375 286.73544Q209.85 287.31357 209.85 288.87607L209.85 293.11044L207.38126 293.11044L207.38126 283.78232L209.6625 283.78232L209.6625 285.1417Q210.89688 283.56357 212.74063 283.56357Q213.56876 283.56357 214.24063 283.86044Q214.9125 284.15732 215.25626 284.61044Q215.61563 285.06357 215.74063 285.65732Q215.88126 286.23544 215.88126 287.31357L215.88126 293.11044ZM223.80313 290.1417L226.25626 290.54794Q225.7875 291.90732 224.75626 292.62607Q223.74063 293.3292 222.19376 293.3292Q219.75626 293.3292 218.6 291.73544Q217.67813 290.4542 217.67813 288.5167Q217.67813 286.18857 218.88126 284.87607Q220.1 283.56357 221.95938 283.56357Q224.0375 283.56357 225.24063 284.93857Q226.44376 286.31357 226.39688 289.15732L220.20938 289.15732Q220.225 290.25107 220.7875 290.86044Q221.36563 291.46982 222.225 291.46982Q222.80313 291.46982 223.19376 291.15732Q223.6 290.84482 223.80313 290.1417ZM223.94376 287.6417Q223.9125 286.56357 223.38126 286.0167Q222.85 285.4542 222.1 285.4542Q221.2875 285.4542 220.77188 286.04794Q220.24063 286.62607 220.24063 287.6417L223.94376 287.6417ZM234.5375 293.11044L234.5375 291.71982Q234.02188 292.4542 233.19376 292.8917Q232.36563 293.3292 231.44376 293.3292Q230.50626 293.3292 229.75626 292.92294Q229.00626 292.50107 228.6625 291.75107Q228.33438 291.00107 228.33438 289.68857L228.33438 283.78232L230.80313 283.78232L230.80313 288.06357Q230.80313 290.03232 230.94376 290.48544Q231.08438 290.92294 231.44376 291.18857Q231.80313 291.43857 232.35 291.43857Q232.99063 291.43857 233.49063 291.09482Q233.99063 290.75107 234.17813 290.23544Q234.36563 289.71982 234.36563 287.71982L234.36563 283.78232L236.83438 283.78232L236.83438 293.11044L234.5375 293.11044ZM241.75626 293.11044L239.2875 293.11044L239.2875 283.78232L241.58438 283.78232L241.58438 285.11044Q242.1625 284.15732 242.63126 283.86044Q243.11563 283.56357 243.70938 283.56357Q244.55313 283.56357 245.33438 284.03232L244.56876 286.18857Q243.94376 285.78232 243.4125 285.78232Q242.89688 285.78232 242.52188 286.06357Q242.1625 286.34482 241.95938 287.09482Q241.75626 287.84482 241.75626 290.21982L241.75626 293.11044ZM245.52188 290.4542L248.00626 290.06357Q248.1625 290.78232 248.64688 291.15732Q249.13126 291.53232 249.99063 291.53232Q250.95938 291.53232 251.44376 291.18857Q251.75626 290.93857 251.75626 290.53232Q251.75626 290.25107 251.58438 290.06357Q251.39688 289.8917 250.75626 289.73544Q247.77188 289.0792 246.975 288.53232Q245.86563 287.78232 245.86563 286.42294Q245.86563 285.21982 246.81876 284.3917Q247.7875 283.56357 249.7875 283.56357Q251.70938 283.56357 252.63126 284.18857Q253.56876 284.81357 253.92813 286.03232L251.6 286.46982Q251.44376 285.92294 251.02188 285.6417Q250.61563 285.34482 249.83438 285.34482Q248.86563 285.34482 248.44376 285.61044Q248.1625 285.81357 248.1625 286.11044Q248.1625 286.37607 248.4125 286.56357Q248.74063 286.81357 250.70938 287.2667Q252.67813 287.7042 253.475 288.36044Q254.24063 289.0167 254.24063 290.18857Q254.24063 291.46982 253.1625 292.40732Q252.1 293.3292 249.99063 293.3292Q248.08438 293.3292 246.975 292.54794Q245.86563 291.7667 245.52188 290.4542ZM258.85 280.21982L258.85 284.96982Q260.05313 283.56357 261.70938 283.56357Q262.56876 283.56357 263.24063 283.8917Q263.92813 284.2042 264.27188 284.7042Q264.63126 285.18857 264.75626 285.78232Q264.88126 286.37607 264.88126 287.6417L264.88126 293.11044L262.4125 293.11044L262.4125 288.17294Q262.4125 286.7042 262.27188 286.31357Q262.13126 285.92294 261.77188 285.68857Q261.4125 285.4542 260.88126 285.4542Q260.27188 285.4542 259.7875 285.75107Q259.30313 286.04794 259.06876 286.65732Q258.85 287.25107 258.85 288.43857L258.85 293.11044L256.38126 293.11044L256.38126 280.21982L258.85 280.21982ZM267.39688 282.5167L267.39688 280.21982L269.86563 280.21982L269.86563 282.5167L267.39688 282.5167ZM267.39688 293.11044L267.39688 283.78232L269.86563 283.78232L269.86563 293.11044L267.39688 293.11044ZM272.31876 283.78232L274.63126 283.78232L274.63126 285.1417Q275.06876 284.43857 275.83438 284.00107Q276.6 283.56357 277.5375 283.56357Q279.1625 283.56357 280.2875 284.84482Q281.42813 286.11044 281.42813 288.3917Q281.42813 290.73544 280.2875 292.03232Q279.14688 293.3292 277.52188 293.3292Q276.74063 293.3292 276.11563 293.0167Q275.49063 292.7042 274.7875 291.9542L274.7875 296.65732L272.31876 296.65732L272.31876 283.78232ZM274.77188 288.28232Q274.77188 289.86044 275.38126 290.61044Q276.00626 291.36044 276.9125 291.36044Q277.77188 291.36044 278.33438 290.67294Q278.9125 289.98544 278.9125 288.40732Q278.9125 286.93857 278.31876 286.23544Q277.74063 285.5167 276.86563 285.5167Q275.95938 285.5167 275.36563 286.21982Q274.77188 286.90732 274.77188 288.28232Z" fill-rule="nonzero"/><path fill="#9e9e9e" d="M31.209375 315.81357L31.209375 318.11044L22.553125 318.11044Q22.69375 316.81357 23.396875 315.65732Q24.1 314.48544 26.1625 312.54794Q27.834375 311.00107 28.225 310.43857Q28.725 309.68857 28.725 308.93857Q28.725 308.11044 28.271875 307.67294Q27.834375 307.21982 27.053125 307.21982Q26.2875 307.21982 25.81875 307.68857Q25.365625 308.15732 25.303125 309.23544L22.834375 308.98544Q23.053125 306.9542 24.209375 306.06357Q25.38125 305.17294 27.115625 305.17294Q29.021875 305.17294 30.115625 306.2042Q31.209375 307.23544 31.209375 308.75107Q31.209375 309.62607 30.896875 310.42294Q30.584375 311.2042 29.9125 312.06357Q29.459375 312.6417 28.2875 313.71982Q27.115625 314.78232 26.803125 315.1417Q26.490625 315.48544 26.303125 315.81357L31.209375 315.81357ZM32.896873 314.79794L35.365623 314.54794Q35.459373 315.37607 35.975 315.86044Q36.50625 316.34482 37.178123 316.34482Q37.959373 316.34482 38.490623 315.71982Q39.021873 315.09482 39.021873 313.8292Q39.021873 312.6417 38.490623 312.04794Q37.959373 311.4542 37.115623 311.4542Q36.053123 311.4542 35.209373 312.3917L33.19375 312.11044L34.459373 305.40732L40.990623 305.40732L40.990623 307.71982L36.334373 307.71982L35.94375 309.90732Q36.771873 309.48544 37.63125 309.48544Q39.2875 309.48544 40.428123 310.68857Q41.56875 311.87607 41.56875 313.78232Q41.56875 315.37607 40.646873 316.62607Q39.38125 318.3292 37.146873 318.3292Q35.365623 318.3292 34.240623 317.37607Q33.115623 316.40732 32.896873 314.79794ZM43.396873 318.11044L43.396873 315.6417L45.865623 315.6417L45.865623 318.11044L43.396873 318.11044ZM52.0375 305.17294Q53.9125 305.17294 54.959373 306.50107Q56.225 308.09482 56.225 311.75107Q56.225 315.40732 54.959373 317.0167Q53.9125 318.3292 52.0375 318.3292Q50.1625 318.3292 49.00625 316.8917Q47.85 315.43857 47.85 311.73544Q47.85 308.09482 49.115623 306.48544Q50.1625 305.17294 52.0375 305.17294ZM52.0375 307.21982Q51.584373 307.21982 51.225 307.5167Q50.88125 307.79794 50.69375 308.53232Q50.44375 309.48544 50.44375 311.75107Q50.44375 314.0167 50.6625 314.87607Q50.896873 315.71982 51.240623 316.00107Q51.584373 316.28232 52.0375 316.28232Q52.490623 316.28232 52.834373 316.00107Q53.19375 315.7042 53.38125 314.96982Q53.646873 314.0167 53.646873 311.75107Q53.646873 309.48544 53.4125 308.6417Q53.178123 307.79794 52.834373 307.5167Q52.490623 307.21982 52.0375 307.21982ZM57.88125 308.40732Q57.88125 306.67294 58.63125 305.84482Q59.396873 305.00107 60.709373 305.00107Q62.053123 305.00107 62.803123 305.84482Q63.56875 306.67294 63.56875 308.40732Q63.56875 310.1417 62.803123 310.98544Q62.053123 311.81357 60.740623 311.81357Q59.396873 311.81357 58.63125 310.98544Q57.88125 310.1417 57.88125 308.40732ZM59.803123 308.3917Q59.803123 309.6417 60.1 310.0792Q60.31875 310.3917 60.709373 310.3917Q61.1 310.3917 61.31875 310.0792Q61.6 309.6417 61.6 308.3917Q61.6 307.12607 61.31875 306.7042Q61.1 306.3917 60.709373 306.3917Q60.31875 306.3917 60.1 306.7042Q59.803123 307.12607 59.803123 308.3917ZM62.584373 318.61044L60.75625 318.61044L67.61562 305.00107L69.39687 305.00107L62.584373 318.61044ZM66.56875 315.21982Q66.56875 313.48544 67.33437 312.65732Q68.1 311.81357 69.4125 311.81357Q70.74062 311.81357 71.49062 312.65732Q72.25625 313.48544 72.25625 315.21982Q72.25625 316.9542 71.49062 317.79794Q70.74062 318.62607 69.44375 318.62607Q68.1 318.62607 67.33437 317.79794Q66.56875 316.9542 66.56875 315.21982ZM68.50625 315.2042Q68.50625 316.46982 68.7875 316.8917Q69.00625 317.21982 69.39687 317.21982Q69.7875 317.21982 70.00625 316.8917Q70.2875 316.46982 70.2875 315.2042Q70.2875 313.9542 70.00625 313.5167Q69.7875 313.2042 69.39687 313.2042Q69.00625 313.2042 68.7875 313.5167Q68.50625 313.9542 68.50625 315.2042Z" fill-rule="nonzero"/><path stroke="#757575" stroke-width="1.0" stroke-linecap="butt" d="M22.1 299.61044L291.6 299.61044L362.88864 299.61044" fill-rule="nonzero"/><path fill="#9e9e9e" d="M364.88864 299.61044C364.88864 298.5059 363.9932 297.61044 362.88864 297.61044C361.78406 297.61044 360.88864 298.5059 360.88864 299.61044C360.88864 300.71503 361.78406 301.61044 362.88864 301.61044C363.9932 301.61044 364.88864 300.71503 364.88864 299.61044" fill-rule="nonzero"/><path fill="#1a1a1a" d="M833.4469 101.320175L835.97815 102.11705Q835.4 104.226425 834.04065 105.257675Q832.6969 106.2733 830.6188 106.2733Q828.0563 106.2733 826.4 104.5233Q824.7594 102.7733 824.7594 99.726425Q824.7594 96.507675 826.41565 94.726425Q828.0719 92.945175 830.775 92.945175Q833.15 92.945175 834.6188 94.351425Q835.5094 95.17955 835.9469 96.726425L833.3688 97.3358Q833.1344 96.3358 832.4 95.757675Q831.6813 95.17955 830.65 95.17955Q829.2125 95.17955 828.3219 96.2108Q827.4313 97.226425 827.4313 99.538925Q827.4313 101.976425 828.3063 103.0233Q829.1969 104.05455 830.60315 104.05455Q831.6344 104.05455 832.3844 103.3983Q833.1344 102.726425 833.4469 101.320175ZM840.04065 99.570175L837.79065 99.163925Q838.1813 97.80455 839.10315 97.163925Q840.025 96.507675 841.8375 96.507675Q843.4938 96.507675 844.29065 96.8983Q845.10315 97.288925 845.4313 97.8983Q845.775 98.49205 845.775 100.101425L845.7438 102.99205Q845.7438 104.2108 845.85315 104.80455Q845.97815 105.382675 846.3063 106.05455L843.8688 106.05455Q843.7594 105.80455 843.6188 105.320175Q843.5563 105.101425 843.54065 105.038925Q842.9 105.6483 842.1813 105.9608Q841.4625 106.2733 840.65 106.2733Q839.1969 106.2733 838.3688 105.49205Q837.54065 104.695175 837.54065 103.507675Q837.54065 102.7108 837.91565 102.101425Q838.29065 101.476425 838.97815 101.1483Q839.66565 100.820175 840.9469 100.570175Q842.6813 100.24205 843.3375 99.9608L843.3375 99.7108Q843.3375 99.007675 842.97815 98.7108Q842.6344 98.3983 841.66565 98.3983Q841.0094 98.3983 840.6344 98.663925Q840.2594 98.913925 840.04065 99.570175ZM843.3375 101.570175Q842.8688 101.726425 841.8375 101.945175Q840.8063 102.163925 840.4938 102.382675Q840.0094 102.726425 840.0094 103.257675Q840.0094 103.7733 840.4 104.1483Q840.79065 104.5233 841.3844 104.5233Q842.0563 104.5233 842.65 104.0858Q843.10315 103.757675 843.2438 103.2733Q843.3375 102.945175 843.3375 102.070175L843.3375 101.570175ZM856.6813 106.05455L854.2125 106.05455L854.2125 101.288925Q854.2125 99.7733 854.0563 99.3358Q853.9 98.8983 853.54065 98.6483Q853.1813 98.3983 852.6813 98.3983Q852.04065 98.3983 851.525 98.757675Q851.025 99.101425 850.8375 99.67955Q850.65 100.257675 850.65 101.820175L850.65 106.05455L848.1813 106.05455L848.1813 96.726425L850.4625 96.726425L850.4625 98.0858Q851.6969 96.507675 853.54065 96.507675Q854.3688 96.507675 855.04065 96.80455Q855.7125 97.101425 856.0563 97.55455Q856.41565 98.007675 856.54065 98.601425Q856.6813 99.17955 856.6813 100.257675L856.6813 106.05455ZM867.3375 99.476425L864.9 99.913925Q864.775 99.195175 864.3375 98.820175Q863.9 98.445175 863.2125 98.445175Q862.29065 98.445175 861.72815 99.0858Q861.1813 99.726425 861.1813 101.226425Q861.1813 102.882675 861.7438 103.570175Q862.3063 104.257675 863.2438 104.257675Q863.9469 104.257675 864.3844 103.851425Q864.8375 103.445175 865.025 102.476425L867.4469 102.882675Q867.0719 104.55455 865.9938 105.413925Q864.9313 106.2733 863.1344 106.2733Q861.0875 106.2733 859.8688 104.976425Q858.65 103.67955 858.65 101.3983Q858.65 99.0858 859.8688 97.80455Q861.0875 96.507675 863.1813 96.507675Q864.8844 96.507675 865.8844 97.24205Q866.8844 97.976425 867.3375 99.476425ZM874.60315 103.0858L877.0563 103.49205Q876.5875 104.851425 875.5563 105.570175Q874.54065 106.2733 872.9938 106.2733Q870.5563 106.2733 869.4 104.67955Q868.47815 103.3983 868.47815 101.4608Q868.47815 99.132675 869.6813 97.820175Q870.9 96.507675 872.7594 96.507675Q874.8375 96.507675 876.04065 97.882675Q877.2438 99.257675 877.1969 102.101425L871.0094 102.101425Q871.025 103.195175 871.5875 103.80455Q872.16565 104.413925 873.025 104.413925Q873.60315 104.413925 873.9938 104.101425Q874.4 103.788925 874.60315 103.0858ZM874.7438 100.5858Q874.7125 99.507675 874.1813 98.9608Q873.65 98.3983 872.9 98.3983Q872.0875 98.3983 871.5719 98.99205Q871.04065 99.570175 871.04065 100.5858L874.7438 100.5858ZM881.5563 106.05455L879.0875 106.05455L879.0875 96.726425L881.3844 96.726425L881.3844 98.05455Q881.9625 97.101425 882.4313 96.80455Q882.91565 96.507675 883.5094 96.507675Q884.35315 96.507675 885.1344 96.976425L884.3688 99.132675Q883.7438 98.726425 883.2125 98.726425Q882.6969 98.726425 882.3219 99.007675Q881.9625 99.288925 881.7594 100.038925Q881.5563 100.788925 881.5563 103.163925L881.5563 106.05455ZM891.2125 106.05455L891.2125 93.163925L896.6969 93.163925Q898.7594 93.163925 899.6969 93.5233Q900.6344 93.86705 901.1969 94.757675Q901.7594 95.632675 901.7594 96.788925Q901.7594 98.226425 900.9 99.17955Q900.0563 100.11705 898.35315 100.36705Q899.1969 100.86705 899.7438 101.4608Q900.29065 102.038925 901.22815 103.538925L902.8063 106.05455L899.6969 106.05455L897.8063 103.257675Q896.8063 101.74205 896.4313 101.351425Q896.0719 100.9608 895.65 100.820175Q895.2438 100.67955 894.35315 100.67955L893.8219 100.67955L893.8219 106.05455L891.2125 106.05455ZM893.8219 98.61705L895.7438 98.61705Q897.6188 98.61705 898.0875 98.4608Q898.5563 98.30455 898.8063 97.913925Q899.0719 97.5233 899.0719 96.945175Q899.0719 96.30455 898.72815 95.8983Q898.3844 95.49205 897.7438 95.3983Q897.4313 95.351425 895.85315 95.351425L893.8219 95.351425L893.8219 98.61705ZM909.60315 103.0858L912.0563 103.49205Q911.5875 104.851425 910.5563 105.570175Q909.54065 106.2733 907.9938 106.2733Q905.5563 106.2733 904.4 104.67955Q903.47815 103.3983 903.47815 101.4608Q903.47815 99.132675 904.6813 97.820175Q905.9 96.507675 907.7594 96.507675Q909.8375 96.507675 911.04065 97.882675Q912.2438 99.257675 912.1969 102.101425L906.0094 102.101425Q906.025 103.195175 906.5875 103.80455Q907.16565 104.413925 908.025 104.413925Q908.60315 104.413925 908.9938 104.101425Q909.4 103.788925 909.60315 103.0858ZM909.7438 100.5858Q909.7125 99.507675 909.1813 98.9608Q908.65 98.3983 907.9 98.3983Q907.0875 98.3983 906.5719 98.99205Q906.04065 99.570175 906.04065 100.5858L909.7438 100.5858ZM913.3219 103.3983L915.8063 103.007675Q915.9625 103.726425 916.4469 104.101425Q916.9313 104.476425 917.79065 104.476425Q918.7594 104.476425 919.2438 104.132675Q919.5563 103.882675 919.5563 103.476425Q919.5563 103.195175 919.3844 103.007675Q919.1969 102.8358 918.5563 102.67955Q915.5719 102.0233 914.775 101.476425Q913.66565 100.726425 913.66565 99.36705Q913.66565 98.163925 914.6188 97.3358Q915.5875 96.507675 917.5875 96.507675Q919.5094 96.507675 920.4313 97.132675Q921.3688 97.757675 921.72815 98.976425L919.4 99.413925Q919.2438 98.86705 918.8219 98.5858Q918.41565 98.288925 917.6344 98.288925Q916.66565 98.288925 916.2438 98.55455Q915.9625 98.757675 915.9625 99.05455Q915.9625 99.320175 916.2125 99.507675Q916.54065 99.757675 918.5094 100.2108Q920.47815 100.6483 921.275 101.30455Q922.04065 101.9608 922.04065 103.132675Q922.04065 104.413925 920.9625 105.351425Q919.9 106.2733 917.79065 106.2733Q915.8844 106.2733 914.775 105.49205Q913.66565 104.7108 913.3219 103.3983ZM929.60315 103.0858L932.0563 103.49205Q931.5875 104.851425 930.5563 105.570175Q929.54065 106.2733 927.9938 106.2733Q925.5563 106.2733 924.4 104.67955Q923.47815 103.3983 923.47815 101.4608Q923.47815 99.132675 924.6813 97.820175Q925.9 96.507675 927.7594 96.507675Q929.8375 96.507675 931.04065 97.882675Q932.2438 99.257675 932.1969 102.101425L926.0094 102.101425Q926.025 103.195175 926.5875 103.80455Q927.16565 104.413925 928.025 104.413925Q928.60315 104.413925 928.9938 104.101425Q929.4 103.788925 929.60315 103.0858ZM929.7438 100.5858Q929.7125 99.507675 929.1813 98.9608Q928.65 98.3983 927.9 98.3983Q927.0875 98.3983 926.5719 98.99205Q926.04065 99.570175 926.04065 100.5858L929.7438 100.5858ZM936.04065 99.570175L933.79065 99.163925Q934.1813 97.80455 935.10315 97.163925Q936.025 96.507675 937.8375 96.507675Q939.4938 96.507675 940.29065 96.8983Q941.10315 97.288925 941.4313 97.8983Q941.775 98.49205 941.775 100.101425L941.7438 102.99205Q941.7438 104.2108 941.85315 104.80455Q941.97815 105.382675 942.3063 106.05455L939.8688 106.05455Q939.7594 105.80455 939.6188 105.320175Q939.5563 105.101425 939.54065 105.038925Q938.9 105.6483 938.1813 105.9608Q937.4625 106.2733 936.65 106.2733Q935.1969 106.2733 934.3688 105.49205Q933.54065 104.695175 933.54065 103.507675Q933.54065 102.7108 933.91565 102.101425Q934.29065 101.476425 934.97815 101.1483Q935.66565 100.820175 936.9469 100.570175Q938.6813 100.24205 939.3375 99.9608L939.3375 99.7108Q939.3375 99.007675 938.97815 98.7108Q938.6344 98.3983 937.66565 98.3983Q937.0094 98.3983 936.6344 98.663925Q936.2594 98.913925 936.04065 99.570175ZM939.3375 101.570175Q938.8688 101.726425 937.8375 101.945175Q936.8063 102.163925 936.4938 102.382675Q936.0094 102.726425 936.0094 103.257675Q936.0094 103.7733 936.4 104.1483Q936.79065 104.5233 937.3844 104.5233Q938.0563 104.5233 938.65 104.0858Q939.10315 103.757675 939.2438 103.2733Q939.3375 102.945175 939.3375 102.070175L939.3375 101.570175ZM946.5563 106.05455L944.0875 106.05455L944.0875 96.726425L946.3844 96.726425L946.3844 98.05455Q946.9625 97.101425 947.4313 96.80455Q947.91565 96.507675 948.5094 96.507675Q949.35315 96.507675 950.1344 96.976425L949.3688 99.132675Q948.7438 98.726425 948.2125 98.726425Q947.6969 98.726425 947.3219 99.007675Q946.9625 99.288925 946.7594 100.038925Q946.5563 100.788925 946.5563 103.163925L946.5563 106.05455ZM959.3375 99.476425L956.9 99.913925Q956.775 99.195175 956.3375 98.820175Q955.9 98.445175 955.2125 98.445175Q954.29065 98.445175 953.72815 99.0858Q953.1813 99.726425 953.1813 101.226425Q953.1813 102.882675 953.7438 103.570175Q954.3063 104.257675 955.2438 104.257675Q955.9469 104.257675 956.3844 103.851425Q956.8375 103.445175 957.025 102.476425L959.4469 102.882675Q959.0719 104.55455 957.9938 105.413925Q956.9313 106.2733 955.1344 106.2733Q953.0875 106.2733 951.8688 104.976425Q950.65 103.67955 950.65 101.3983Q950.65 99.0858 951.8688 97.80455Q953.0875 96.507675 955.1813 96.507675Q956.8844 96.507675 957.8844 97.24205Q958.8844 97.976425 959.3375 99.476425ZM963.65 93.163925L963.65 97.913925Q964.85315 96.507675 966.5094 96.507675Q967.3688 96.507675 968.04065 96.8358Q968.72815 97.1483 969.0719 97.6483Q969.4313 98.132675 969.5563 98.726425Q969.6813 99.320175 969.6813 100.5858L969.6813 106.05455L967.2125 106.05455L967.2125 101.11705Q967.2125 99.6483 967.0719 99.257675Q966.9313 98.86705 966.5719 98.632675Q966.2125 98.3983 965.6813 98.3983Q965.0719 98.3983 964.5875 98.695175Q964.10315 98.99205 963.8688 99.601425Q963.65 100.195175 963.65 101.382675L963.65 106.05455L961.1813 106.05455L961.1813 93.163925L963.65 93.163925Z" fill-rule="nonzero"/><path fill="#9e9e9e" d="M929.0094 128.75768L929.0094 131.05455L920.35315 131.05455Q920.4938 129.75768 921.1969 128.60143Q921.9 127.42955 923.9625 125.49205Q925.6344 123.945175 926.025 123.382675Q926.525 122.632675 926.525 121.882675Q926.525 121.05455 926.0719 120.61705Q925.6344 120.163925 924.85315 120.163925Q924.0875 120.163925 923.6188 120.632675Q923.16565 121.101425 923.10315 122.17955L920.6344 121.92955Q920.85315 119.8983 922.0094 119.007675Q923.1813 118.11705 924.91565 118.11705Q926.8219 118.11705 927.91565 119.1483Q929.0094 120.17955 929.0094 121.695175Q929.0094 122.570175 928.6969 123.36705Q928.3844 124.1483 927.7125 125.007675Q927.2594 125.5858 926.0875 126.663925Q924.91565 127.726425 924.60315 128.0858Q924.29065 128.42955 924.10315 128.75768L929.0094 128.75768ZM930.6969 127.74205L933.16565 127.49205Q933.2594 128.32018 933.775 128.80455Q934.3063 129.28893 934.97815 129.28893Q935.7594 129.28893 936.29065 128.66393Q936.8219 128.03893 936.8219 126.7733Q936.8219 125.5858 936.29065 124.99205Q935.7594 124.3983 934.91565 124.3983Q933.85315 124.3983 933.0094 125.3358L930.9938 125.05455L932.2594 118.351425L938.79065 118.351425L938.79065 120.663925L934.1344 120.663925L933.7438 122.851425Q934.5719 122.42955 935.4313 122.42955Q937.0875 122.42955 938.22815 123.632675Q939.3688 124.820175 939.3688 126.726425Q939.3688 128.32018 938.4469 129.57018Q937.1813 131.2733 934.9469 131.2733Q933.16565 131.2733 932.04065 130.32018Q930.91565 129.35143 930.6969 127.74205ZM941.1969 131.05455L941.1969 128.5858L943.66565 128.5858L943.66565 131.05455L941.1969 131.05455ZM949.8375 118.11705Q951.7125 118.11705 952.7594 119.445175Q954.025 121.038925 954.025 124.695175Q954.025 128.35143 952.7594 129.9608Q951.7125 131.2733 949.8375 131.2733Q947.9625 131.2733 946.8063 129.8358Q945.65 128.38268 945.65 124.67955Q945.65 121.038925 946.91565 119.42955Q947.9625 118.11705 949.8375 118.11705ZM949.8375 120.163925Q949.3844 120.163925 949.025 120.4608Q948.6813 120.74205 948.4938 121.476425Q948.2438 122.42955 948.2438 124.695175Q948.2438 126.9608 948.4625 127.820175Q948.6969 128.66393 949.04065 128.94518Q949.3844 129.22643 949.8375 129.22643Q950.29065 129.22643 950.6344 128.94518Q950.9938 128.6483 951.1813 127.913925Q951.4469 126.9608 951.4469 124.695175Q951.4469 122.42955 951.2125 121.5858Q950.97815 120.74205 950.6344 120.4608Q950.29065 120.163925 949.8375 120.163925ZM955.6813 121.351425Q955.6813 119.61705 956.4313 118.788925Q957.1969 117.945175 958.5094 117.945175Q959.85315 117.945175 960.60315 118.788925Q961.3688 119.61705 961.3688 121.351425Q961.3688 123.0858 960.60315 123.92955Q959.85315 124.757675 958.54065 124.757675Q957.1969 124.757675 956.4313 123.92955Q955.6813 123.0858 955.6813 121.351425ZM957.60315 121.3358Q957.60315 122.5858 957.9 123.0233Q958.1188 123.3358 958.5094 123.3358Q958.9 123.3358 959.1188 123.0233Q959.4 122.5858 959.4 121.3358Q959.4 120.070175 959.1188 119.6483Q958.9 119.3358 958.5094 119.3358Q958.1188 119.3358 957.9 119.6483Q957.60315 120.070175 957.60315 121.3358ZM960.3844 131.55455L958.5563 131.55455L965.41565 117.945175L967.1969 117.945175L960.3844 131.55455ZM964.3688 128.16393Q964.3688 126.42955 965.1344 125.601425Q965.9 124.757675 967.2125 124.757675Q968.54065 124.757675 969.29065 125.601425Q970.0563 126.42955 970.0563 128.16393Q970.0563 129.8983 969.29065 130.74205Q968.54065 131.57018 967.2438 131.57018Q965.9 131.57018 965.1344 130.74205Q964.3688 129.8983 964.3688 128.16393ZM966.3063 128.1483Q966.3063 129.41393 966.5875 129.8358Q966.8063 130.16393 967.1969 130.16393Q967.5875 130.16393 967.8063 129.8358Q968.0875 129.41393 968.0875 128.1483Q968.0875 126.8983 967.8063 126.4608Q967.5875 126.1483 967.1969 126.1483Q966.8063 126.1483 966.5875 126.4608Q966.3063 126.8983 966.3063 128.1483Z" fill-rule="nonzero"/><path stroke="#757575" stroke-width="1.0" stroke-linecap="butt" d="M970.9 112.55455L701.4 112.55455L630.1114 112.55455" fill-rule="nonzero"/><path fill="#9e9e9e" d="M632.1114 112.55455C632.1114 111.449974 631.21594 110.55455 630.1114 110.55455C629.0068 110.55455 628.1114 111.449974 628.1114 112.55455C628.1114 113.65912 629.0068 114.55455 630.1114 114.55455C631.21594 114.55455 632.1114 113.65912 632.1114 112.55455" fill-rule="nonzero"/><path fill="#1a1a1a" d="M841.1813 293.11044L841.1813 280.21982L845.0719 280.21982L847.4 289.0167L849.7125 280.21982L853.6188 280.21982L853.6188 293.11044L851.1969 293.11044L851.1969 282.96982L848.65 293.11044L846.1344 293.11044L843.5875 282.96982L843.5875 293.11044L841.1813 293.11044ZM856.1969 282.5167L856.1969 280.21982L858.66565 280.21982L858.66565 282.5167L856.1969 282.5167ZM856.1969 293.11044L856.1969 283.78232L858.66565 283.78232L858.66565 293.11044L856.1969 293.11044ZM869.6813 293.11044L867.2125 293.11044L867.2125 288.34482Q867.2125 286.8292 867.0563 286.3917Q866.9 285.9542 866.54065 285.7042Q866.1813 285.4542 865.6813 285.4542Q865.04065 285.4542 864.525 285.81357Q864.025 286.15732 863.8375 286.73544Q863.65 287.31357 863.65 288.87607L863.65 293.11044L861.1813 293.11044L861.1813 283.78232L863.4625 283.78232L863.4625 285.1417Q864.6969 283.56357 866.54065 283.56357Q867.3688 283.56357 868.04065 283.86044Q868.7125 284.15732 869.0563 284.61044Q869.41565 285.06357 869.54065 285.65732Q869.6813 286.23544 869.6813 287.31357L869.6813 293.11044ZM871.6188 288.31357Q871.6188 287.0792 872.22815 285.93857Q872.8375 284.78232 873.9469 284.17294Q875.0563 283.56357 876.4313 283.56357Q878.54065 283.56357 879.9 284.93857Q881.2594 286.31357 881.2594 288.42294Q881.2594 290.53232 879.8844 291.93857Q878.525 293.3292 876.4469 293.3292Q875.16565 293.3292 873.9938 292.75107Q872.8375 292.15732 872.22815 291.04794Q871.6188 289.92294 871.6188 288.31357ZM874.15 288.43857Q874.15 289.8292 874.8063 290.5792Q875.47815 291.31357 876.4313 291.31357Q877.4 291.31357 878.0563 290.5792Q878.7125 289.8292 878.7125 288.42294Q878.7125 287.04794 878.0563 286.31357Q877.4 285.5792 876.4313 285.5792Q875.47815 285.5792 874.8063 286.31357Q874.15 287.04794 874.15 288.43857ZM885.5563 293.11044L883.0875 293.11044L883.0875 283.78232L885.3844 283.78232L885.3844 285.11044Q885.9625 284.15732 886.4313 283.86044Q886.91565 283.56357 887.5094 283.56357Q888.35315 283.56357 889.1344 284.03232L888.3688 286.18857Q887.7438 285.78232 887.2125 285.78232Q886.6969 285.78232 886.3219 286.06357Q885.9625 286.34482 885.7594 287.09482Q885.5563 287.84482 885.5563 290.21982L885.5563 293.11044ZM890.1969 282.5167L890.1969 280.21982L892.66565 280.21982L892.66565 282.5167L890.1969 282.5167ZM890.1969 293.11044L890.1969 283.78232L892.66565 283.78232L892.66565 293.11044L890.1969 293.11044ZM899.47815 283.78232L899.47815 285.75107L897.79065 285.75107L897.79065 289.50107Q897.79065 290.6417 897.8375 290.84482Q897.8844 291.03232 898.0563 291.15732Q898.22815 291.2667 898.47815 291.2667Q898.8063 291.2667 899.4625 291.03232L899.6813 292.9542Q898.8063 293.3292 897.72815 293.3292Q897.0563 293.3292 896.5094 293.11044Q895.97815 292.87607 895.72815 292.5167Q895.47815 292.15732 895.3844 291.54794Q895.3063 291.12607 895.3063 289.81357L895.3063 285.75107L894.16565 285.75107L894.16565 283.78232L895.3063 283.78232L895.3063 281.92294L897.79065 280.48544L897.79065 283.78232L899.47815 283.78232ZM900.025 283.78232L902.65 283.78232L904.8844 290.40732L907.0563 283.78232L909.6188 283.78232L906.3219 292.75107L905.7438 294.3917Q905.41565 295.2042 905.1188 295.62607Q904.8219 296.06357 904.4313 296.3292Q904.0563 296.59482 903.4938 296.73544Q902.9469 296.8917 902.2438 296.8917Q901.525 296.8917 900.8375 296.75107L900.6188 294.81357Q901.1969 294.92294 901.66565 294.92294Q902.525 294.92294 902.9313 294.42294Q903.35315 293.92294 903.5719 293.1417L900.025 283.78232ZM916.2125 293.11044L916.2125 280.21982L921.6969 280.21982Q923.7594 280.21982 924.6969 280.5792Q925.6344 280.92294 926.1969 281.81357Q926.7594 282.68857 926.7594 283.84482Q926.7594 285.28232 925.9 286.23544Q925.0563 287.17294 923.35315 287.42294Q924.1969 287.92294 924.7438 288.5167Q925.29065 289.09482 926.22815 290.59482L927.8063 293.11044L924.6969 293.11044L922.8063 290.31357Q921.8063 288.79794 921.4313 288.40732Q921.0719 288.0167 920.65 287.87607Q920.2438 287.73544 919.35315 287.73544L918.8219 287.73544L918.8219 293.11044L916.2125 293.11044ZM918.8219 285.67294L920.7438 285.67294Q922.6188 285.67294 923.0875 285.5167Q923.5563 285.36044 923.8063 284.96982Q924.0719 284.5792 924.0719 284.00107Q924.0719 283.36044 923.72815 282.9542Q923.3844 282.54794 922.7438 282.4542Q922.4313 282.40732 920.85315 282.40732L918.8219 282.40732L918.8219 285.67294ZM929.1969 282.5167L929.1969 280.21982L931.66565 280.21982L931.66565 282.5167L929.1969 282.5167ZM929.1969 293.11044L929.1969 283.78232L931.66565 283.78232L931.66565 293.11044L929.1969 293.11044ZM933.9625 293.71982L936.79065 294.06357Q936.85315 294.56357 937.10315 294.75107Q937.4625 295.0167 938.2125 295.0167Q939.1813 295.0167 939.66565 294.71982Q939.9938 294.53232 940.16565 294.09482Q940.275 293.78232 940.275 292.9542L940.275 291.59482Q939.16565 293.11044 937.47815 293.11044Q935.60315 293.11044 934.4938 291.5167Q933.6344 290.2667 933.6344 288.3917Q933.6344 286.04794 934.7594 284.81357Q935.9 283.56357 937.5719 283.56357Q939.3063 283.56357 940.4313 285.0792L940.4313 283.78232L942.7438 283.78232L942.7438 292.15732Q942.7438 293.79794 942.4625 294.61044Q942.1969 295.43857 941.6969 295.90732Q941.2125 296.37607 940.3844 296.62607Q939.5719 296.8917 938.3219 296.8917Q935.9469 296.8917 934.9469 296.0792Q933.9625 295.2667 933.9625 294.03232Q933.9625 293.90732 933.9625 293.71982ZM936.16565 288.25107Q936.16565 289.73544 936.7438 290.42294Q937.3219 291.11044 938.16565 291.11044Q939.0719 291.11044 939.6969 290.40732Q940.3219 289.7042 940.3219 288.31357Q940.3219 286.86044 939.7125 286.15732Q939.1188 285.4542 938.2125 285.4542Q937.3219 285.4542 936.7438 286.1417Q936.16565 286.8292 936.16565 288.25107ZM947.65 280.21982L947.65 284.96982Q948.85315 283.56357 950.5094 283.56357Q951.3688 283.56357 952.04065 283.8917Q952.72815 284.2042 953.0719 284.7042Q953.4313 285.18857 953.5563 285.78232Q953.6813 286.37607 953.6813 287.6417L953.6813 293.11044L951.2125 293.11044L951.2125 288.17294Q951.2125 286.7042 951.0719 286.31357Q950.9313 285.92294 950.5719 285.68857Q950.2125 285.4542 949.6813 285.4542Q949.0719 285.4542 948.5875 285.75107Q948.10315 286.04794 947.8688 286.65732Q947.65 287.25107 947.65 288.43857L947.65 293.11044L945.1813 293.11044L945.1813 280.21982L947.65 280.21982ZM960.47815 283.78232L960.47815 285.75107L958.79065 285.75107L958.79065 289.50107Q958.79065 290.6417 958.8375 290.84482Q958.8844 291.03232 959.0563 291.15732Q959.22815 291.2667 959.47815 291.2667Q959.8063 291.2667 960.4625 291.03232L960.6813 292.9542Q959.8063 293.3292 958.72815 293.3292Q958.0563 293.3292 957.5094 293.11044Q956.97815 292.87607 956.72815 292.5167Q956.47815 292.15732 956.3844 291.54794Q956.3063 291.12607 956.3063 289.81357L956.3063 285.75107L955.16565 285.75107L955.16565 283.78232L956.3063 283.78232L956.3063 281.92294L958.79065 280.48544L958.79065 283.78232L960.47815 283.78232ZM961.3219 290.4542L963.8063 290.06357Q963.9625 290.78232 964.4469 291.15732Q964.9313 291.53232 965.79065 291.53232Q966.7594 291.53232 967.2438 291.18857Q967.5563 290.93857 967.5563 290.53232Q967.5563 290.25107 967.3844 290.06357Q967.1969 289.8917 966.5563 289.73544Q963.5719 289.0792 962.775 288.53232Q961.66565 287.78232 961.66565 286.42294Q961.66565 285.21982 962.6188 284.3917Q963.5875 283.56357 965.5875 283.56357Q967.5094 283.56357 968.4313 284.18857Q969.3688 284.81357 969.72815 286.03232L967.4 286.46982Q967.2438 285.92294 966.8219 285.6417Q966.41565 285.34482 965.6344 285.34482Q964.66565 285.34482 964.2438 285.61044Q963.9625 285.81357 963.9625 286.11044Q963.9625 286.37607 964.2125 286.56357Q964.54065 286.81357 966.5094 287.2667Q968.47815 287.7042 969.275 288.36044Q970.04065 289.0167 970.04065 290.18857Q970.04065 291.46982 968.9625 292.40732Q967.9 293.3292 965.79065 293.3292Q963.8844 293.3292 962.775 292.54794Q961.66565 291.7667 961.3219 290.4542Z" fill-rule="nonzero"/><path fill="#9e9e9e" d="M929.0094 315.81357L929.0094 318.11044L920.35315 318.11044Q920.4938 316.81357 921.1969 315.65732Q921.9 314.48544 923.9625 312.54794Q925.6344 311.00107 926.025 310.43857Q926.525 309.68857 926.525 308.93857Q926.525 308.11044 926.0719 307.67294Q925.6344 307.21982 924.85315 307.21982Q924.0875 307.21982 923.6188 307.68857Q923.16565 308.15732 923.10315 309.23544L920.6344 308.98544Q920.85315 306.9542 922.0094 306.06357Q923.1813 305.17294 924.91565 305.17294Q926.8219 305.17294 927.91565 306.2042Q929.0094 307.23544 929.0094 308.75107Q929.0094 309.62607 928.6969 310.42294Q928.3844 311.2042 927.7125 312.06357Q927.2594 312.6417 926.0875 313.71982Q924.91565 314.78232 924.60315 315.1417Q924.29065 315.48544 924.10315 315.81357L929.0094 315.81357ZM930.6969 314.79794L933.16565 314.54794Q933.2594 315.37607 933.775 315.86044Q934.3063 316.34482 934.97815 316.34482Q935.7594 316.34482 936.29065 315.71982Q936.8219 315.09482 936.8219 313.8292Q936.8219 312.6417 936.29065 312.04794Q935.7594 311.4542 934.91565 311.4542Q933.85315 311.4542 933.0094 312.3917L930.9938 312.11044L932.2594 305.40732L938.79065 305.40732L938.79065 307.71982L934.1344 307.71982L933.7438 309.90732Q934.5719 309.48544 935.4313 309.48544Q937.0875 309.48544 938.22815 310.68857Q939.3688 311.87607 939.3688 313.78232Q939.3688 315.37607 938.4469 316.62607Q937.1813 318.3292 934.9469 318.3292Q933.16565 318.3292 932.04065 317.37607Q930.91565 316.40732 930.6969 314.79794ZM941.1969 318.11044L941.1969 315.6417L943.66565 315.6417L943.66565 318.11044L941.1969 318.11044ZM949.8375 305.17294Q951.7125 305.17294 952.7594 306.50107Q954.025 308.09482 954.025 311.75107Q954.025 315.40732 952.7594 317.0167Q951.7125 318.3292 949.8375 318.3292Q947.9625 318.3292 946.8063 316.8917Q945.65 315.43857 945.65 311.73544Q945.65 308.09482 946.91565 306.48544Q947.9625 305.17294 949.8375 305.17294ZM949.8375 307.21982Q949.3844 307.21982 949.025 307.5167Q948.6813 307.79794 948.4938 308.53232Q948.2438 309.48544 948.2438 311.75107Q948.2438 314.0167 948.4625 314.87607Q948.6969 315.71982 949.04065 316.00107Q949.3844 316.28232 949.8375 316.28232Q950.29065 316.28232 950.6344 316.00107Q950.9938 315.7042 951.1813 314.96982Q951.4469 314.0167 951.4469 311.75107Q951.4469 309.48544 951.2125 308.6417Q950.97815 307.79794 950.6344 307.5167Q950.29065 307.21982 949.8375 307.21982ZM955.6813 308.40732Q955.6813 306.67294 956.4313 305.84482Q957.1969 305.00107 958.5094 305.00107Q959.85315 305.00107 960.60315 305.84482Q961.3688 306.67294 961.3688 308.40732Q961.3688 310.1417 960.60315 310.98544Q959.85315 311.81357 958.54065 311.81357Q957.1969 311.81357 956.4313 310.98544Q955.6813 310.1417 955.6813 308.40732ZM957.60315 308.3917Q957.60315 309.6417 957.9 310.0792Q958.1188 310.3917 958.5094 310.3917Q958.9 310.3917 959.1188 310.0792Q959.4 309.6417 959.4 308.3917Q959.4 307.12607 959.1188 306.7042Q958.9 306.3917 958.5094 306.3917Q958.1188 306.3917 957.9 306.7042Q957.60315 307.12607 957.60315 308.3917ZM960.3844 318.61044L958.5563 318.61044L965.41565 305.00107L967.1969 305.00107L960.3844 318.61044ZM964.3688 315.21982Q964.3688 313.48544 965.1344 312.65732Q965.9 311.81357 967.2125 311.81357Q968.54065 311.81357 969.29065 312.65732Q970.0563 313.48544 970.0563 315.21982Q970.0563 316.9542 969.29065 317.79794Q968.54065 318.62607 967.2438 318.62607Q965.9 318.62607 965.1344 317.79794Q964.3688 316.9542 964.3688 315.21982ZM966.3063 315.2042Q966.3063 316.46982 966.5875 316.8917Q966.8063 317.21982 967.1969 317.21982Q967.5875 317.21982 967.8063 316.8917Q968.0875 316.46982 968.0875 315.2042Q968.0875 313.9542 967.8063 313.5167Q967.5875 313.2042 967.1969 313.2042Q966.8063 313.2042 966.5875 313.5167Q966.3063 313.9542 966.3063 315.2042Z" fill-rule="nonzero"/><path stroke="#757575" stroke-width="1.0" stroke-linecap="butt" d="M970.9 299.61044L701.4 299.61044L630.1114 299.61044" fill-rule="nonzero"/><path fill="#9e9e9e" d="M632.1114 299.61044C632.1114 298.5059 631.21594 297.61044 630.1114 297.61044C629.0068 297.61044 628.1114 298.5059 628.1114 299.61044C628.1114 300.71503 629.0068 301.61044 630.1114 301.61044C631.21594 301.61044 632.1114 300.71503 632.1114 299.61044" fill-rule="nonzero"/></svg>