<svg version="1.1" viewBox="0.0 0.0 829.0 442.0" fill="none" stroke="none" stroke-linecap="square" stroke-miterlimit="10" width="829" height="442" xmlns:xlink="http://www.w3.org/1999/xlink" xmlns="http://www.w3.org/2000/svg"><path fill="#ffffff" fill-opacity="0.0" d="M0 0L829.0 0L829.0 442.0L0 442.0L0 0Z" fill-rule="nonzero"/><path fill="#3e6679" d="M613.4 235.9175L613.4 206.0825Z" fill-rule="nonzero"/><path fill="#3e6679" d="M414.5 136.4675C469.4247 136.4675 513.95 167.6352 513.95 206.0825L513.95 235.9175C513.95 197.4702 469.4247 166.3025 414.5 166.3025Z" fill-rule="nonzero"/><path fill="#5891ad" d="M414.5 66.8525C524.3494 66.8525 613.4 129.1879 613.4 206.0825L513.95 206.0825C513.95 167.6352 469.4247 136.4675 414.5 136.4675Z" fill-rule="nonzero"/><path fill="#003044" d="M613.4 235.9175C613.4 312.8121 524.3494 375.1475 414.5 375.1475L414.5 345.3125C524.3494 345.3125 613.4 282.9771 613.4 206.0825Z" fill-rule="nonzero"/><path fill="#003044" d="M513.95 206.0825L513.95 235.9175Z" fill-rule="nonzero"/><path fill="#004561" d="M613.4 206.0825C613.4 282.9771 524.3494 345.3125 414.5 345.3125L414.5 275.6975C469.4247 275.6975 513.95 244.5298 513.95 206.0825Z" fill-rule="nonzero"/><path fill="#14535d" d="M215.6 235.9175L215.6 206.0825Z" fill-rule="nonzero"/><path fill="#14535d" d="M315.05 206.0825C315.05 167.6352 359.5753 136.4675 414.5 136.4675L414.5 166.3025C359.5753 166.3025 315.05 197.4702 315.05 235.9175Z" fill-rule="nonzero"/><path fill="#1c7685" d="M215.6 206.0825C215.6 129.1879 304.65057 66.8525 414.5 66.8525L414.5 136.4675C359.5753 136.4675 315.05 167.6352 315.05 206.0825Z" fill-rule="nonzero"/><path fill="#b34e22" d="M414.5 375.1475C304.65057 375.1475 215.6 312.8121 215.6 235.9175L215.6 206.0825C215.6 282.9771 304.65057 345.3125 414.5 345.3125Z" fill-rule="nonzero"/><path fill="#b34e22" d="M315.05 206.0825L315.05 235.9175Z" fill-rule="nonzero"/><path fill="#ff6f31" d="M414.5 345.3125C304.65057 345.3125 215.6 282.9771 215.6 206.0825L315.05 206.0825C315.05 244.5298 359.5753 275.6975 414.5 275.6975Z" fill-rule="nonzero"/><path fill="#1a1a1a" d="M22.990625 108.05455L22.990625 99.4608L24.709375 99.4608L26.740625 105.538925Q27.021875 106.3983 27.146875 106.820175Q27.2875 106.351425 27.6 105.445175L29.6625 99.4608L31.19375 99.4608L31.19375 108.05455L30.1 108.05455L30.1 100.86705L27.6 108.05455L26.56875 108.05455L24.084375 100.74205L24.084375 108.05455L22.990625 108.05455ZM37.146873 106.05455L38.240623 106.17955Q37.990623 107.132675 37.2875 107.663925Q36.584373 108.195175 35.50625 108.195175Q34.146873 108.195175 33.334373 107.351425Q32.5375 106.507675 32.5375 104.99205Q32.5375 103.42955 33.35 102.570175Q34.1625 101.695175 35.44375 101.695175Q36.69375 101.695175 37.475 102.538925Q38.271873 103.382675 38.271873 104.92955Q38.271873 105.0233 38.271873 105.2108L33.63125 105.2108Q33.69375 106.24205 34.209373 106.788925Q34.725 107.320175 35.50625 107.320175Q36.084373 107.320175 36.490623 107.0233Q36.9125 106.7108 37.146873 106.05455ZM33.69375 104.351425L37.1625 104.351425Q37.1 103.55455 36.771873 103.163925Q36.25625 102.55455 35.459373 102.55455Q34.725 102.55455 34.225 103.038925Q33.740623 103.5233 33.69375 104.351425ZM43.928123 108.05455L43.928123 107.2733Q43.334373 108.195175 42.19375 108.195175Q41.44375 108.195175 40.81875 107.788925Q40.19375 107.36705 39.85 106.632675Q39.50625 105.8983 39.50625 104.945175Q39.50625 104.0233 39.81875 103.257675Q40.13125 102.49205 40.75625 102.101425Q41.38125 101.695175 42.146873 101.695175Q42.709373 101.695175 43.146873 101.92955Q43.584373 102.163925 43.865623 102.538925L43.865623 99.4608L44.9125 99.4608L44.9125 108.05455L43.928123 108.05455ZM40.6 104.945175Q40.6 106.1483 41.1 106.74205Q41.6 107.320175 42.2875 107.320175Q42.975 107.320175 43.459373 106.757675Q43.94375 106.195175 43.94375 105.038925Q43.94375 103.757675 43.44375 103.163925Q42.959373 102.570175 42.240623 102.570175Q41.5375 102.570175 41.06875 103.1483Q40.6 103.7108 40.6 104.945175ZM46.896873 100.67955L46.896873 99.4608L47.959373 99.4608L47.959373 100.67955L46.896873 100.67955ZM46.896873 108.05455L46.896873 101.8358L47.959373 101.8358L47.959373 108.05455L46.896873 108.05455ZM53.959373 105.7733L54.990623 105.913925Q54.81875 106.976425 54.115623 107.5858Q53.4125 108.195175 52.396873 108.195175Q51.115623 108.195175 50.334373 107.36705Q49.56875 106.5233 49.56875 104.9608Q49.56875 103.9608 49.896873 103.2108Q50.240623 102.445175 50.9125 102.070175Q51.6 101.695175 52.4125 101.695175Q53.4125 101.695175 54.053123 102.2108Q54.709373 102.7108 54.896873 103.663925L53.865623 103.820175Q53.725 103.195175 53.35 102.882675Q52.975 102.55455 52.44375 102.55455Q51.646873 102.55455 51.146873 103.132675Q50.646873 103.695175 50.646873 104.92955Q50.646873 106.195175 51.13125 106.757675Q51.615623 107.320175 52.38125 107.320175Q53.00625 107.320175 53.4125 106.945175Q53.834373 106.570175 53.959373 105.7733ZM59.959373 107.288925Q59.365623 107.788925 58.81875 107.99205Q58.2875 108.195175 57.6625 108.195175Q56.63125 108.195175 56.084373 107.695175Q55.5375 107.195175 55.5375 106.413925Q55.5375 105.9608 55.740623 105.5858Q55.94375 105.195175 56.2875 104.976425Q56.63125 104.74205 57.053123 104.632675Q57.35 104.538925 57.990623 104.4608Q59.25625 104.320175 59.865623 104.101425Q59.865623 103.882675 59.865623 103.8358Q59.865623 103.17955 59.56875 102.913925Q59.1625 102.570175 58.365623 102.570175Q57.63125 102.570175 57.271873 102.8358Q56.9125 103.0858 56.740623 103.74205L55.709373 103.601425Q55.85 102.945175 56.178123 102.538925Q56.50625 102.132675 57.115623 101.913925Q57.725 101.695175 58.521873 101.695175Q59.31875 101.695175 59.81875 101.882675Q60.31875 102.070175 60.553123 102.351425Q60.7875 102.632675 60.88125 103.070175Q60.928123 103.3358 60.928123 104.038925L60.928123 105.445175Q60.928123 106.913925 60.990623 107.30455Q61.06875 107.695175 61.271873 108.05455L60.1625 108.05455Q60.00625 107.726425 59.959373 107.288925ZM59.865623 104.92955Q59.2875 105.163925 58.146873 105.3358Q57.490623 105.42955 57.225 105.55455Q56.959373 105.663925 56.803123 105.882675Q56.6625 106.101425 56.6625 106.382675Q56.6625 106.80455 56.975 107.0858Q57.303123 107.36705 57.9125 107.36705Q58.521873 107.36705 58.990623 107.101425Q59.475 106.8358 59.69375 106.36705Q59.865623 106.007675 59.865623 105.320175L59.865623 104.92955ZM62.865623 108.05455L62.865623 99.4608L63.928123 99.4608L63.928123 108.05455L62.865623 108.05455ZM68.64687 105.288925L69.70937 105.195175Q69.7875 105.851425 70.06875 106.257675Q70.35 106.663925 70.92812 106.92955Q71.52187 107.17955 72.25625 107.17955Q72.89687 107.17955 73.39687 106.99205Q73.89687 106.788925 74.13125 106.4608Q74.38125 106.11705 74.38125 105.726425Q74.38125 105.320175 74.14687 105.0233Q73.9125 104.7108 73.38125 104.507675Q73.02187 104.36705 71.83437 104.0858Q70.6625 103.80455 70.19375 103.55455Q69.56875 103.226425 69.27187 102.757675Q68.975 102.2733 68.975 101.67955Q68.975 101.038925 69.33437 100.476425Q69.70937 99.8983 70.4125 99.61705Q71.13125 99.320175 71.99062 99.320175Q72.94375 99.320175 73.67812 99.632675Q74.4125 99.92955 74.80312 100.538925Q75.19375 101.132675 75.225 101.882675L74.13125 101.9608Q74.0375 101.1483 73.52187 100.74205Q73.02187 100.320175 72.0375 100.320175Q71.00625 100.320175 70.5375 100.695175Q70.06875 101.070175 70.06875 101.601425Q70.06875 102.070175 70.39687 102.36705Q70.725 102.663925 72.1 102.976425Q73.49062 103.288925 74.00625 103.5233Q74.75625 103.882675 75.11562 104.413925Q75.475 104.92955 75.475 105.632675Q75.475 106.320175 75.08437 106.92955Q74.69375 107.5233 73.95937 107.86705Q73.225 108.195175 72.30312 108.195175Q71.13125 108.195175 70.33437 107.86705Q69.55312 107.5233 69.1 106.8358Q68.6625 106.1483 68.64687 105.288925ZM76.89687 110.445175L76.89687 101.8358L77.85 101.8358L77.85 102.632675Q78.19375 102.163925 78.61562 101.92955Q79.05312 101.695175 79.6625 101.695175Q80.45937 101.695175 81.06875 102.101425Q81.67812 102.507675 81.975 103.257675Q82.2875 104.007675 82.2875 104.8983Q82.2875 105.851425 81.94375 106.61705Q81.61562 107.382675 80.95937 107.788925Q80.30312 108.195175 79.58437 108.195175Q79.05312 108.195175 78.63125 107.976425Q78.20937 107.74205 77.94375 107.413925L77.94375 110.445175L76.89687 110.445175ZM77.85 104.976425Q77.85 106.17955 78.33437 106.757675Q78.81875 107.320175 79.50625 107.320175Q80.20937 107.320175 80.70937 106.726425Q81.20937 106.132675 81.20937 104.882675Q81.20937 103.695175 80.725 103.11705Q80.24062 102.5233 79.55312 102.5233Q78.88125 102.5233 78.36562 103.1483Q77.85 103.7733 77.85 104.976425ZM88.14687 106.05455L89.24062 106.17955Q88.99062 107.132675 88.2875 107.663925Q87.58437 108.195175 86.50625 108.195175Q85.14687 108.195175 84.33437 107.351425Q83.5375 106.507675 83.5375 104.99205Q83.5375 103.42955 84.35 102.570175Q85.1625 101.695175 86.44375 101.695175Q87.69375 101.695175 88.475 102.538925Q89.27187 103.382675 89.27187 104.92955Q89.27187 105.0233 89.27187 105.2108L84.63125 105.2108Q84.69375 106.24205 85.20937 106.788925Q85.725 107.320175 86.50625 107.320175Q87.08437 107.320175 87.49062 107.0233Q87.9125 106.7108 88.14687 106.05455ZM84.69375 104.351425L88.1625 104.351425Q88.1 103.55455 87.77187 103.163925Q87.25625 102.55455 86.45937 102.55455Q85.725 102.55455 85.225 103.038925Q84.74062 103.5233 84.69375 104.351425ZM94.95937 105.7733L95.99062 105.913925Q95.81875 106.976425 95.11562 107.5858Q94.4125 108.195175 93.39687 108.195175Q92.11562 108.195175 91.33437 107.36705Q90.56875 106.5233 90.56875 104.9608Q90.56875 103.9608 90.89687 103.2108Q91.24062 102.445175 91.9125 102.070175Q92.6 101.695175 93.4125 101.695175Q94.4125 101.695175 95.05312 102.2108Q95.70937 102.7108 95.89687 103.663925L94.86562 103.820175Q94.725 103.195175 94.35 102.882675Q93.975 102.55455 93.44375 102.55455Q92.64687 102.55455 92.14687 103.132675Q91.64687 103.695175 91.64687 104.92955Q91.64687 106.195175 92.13125 106.757675Q92.61562 107.320175 93.38125 107.320175Q94.00625 107.320175 94.4125 106.945175Q94.83437 106.570175 94.95937 105.7733ZM96.89687 100.67955L96.89687 99.4608L97.95937 99.4608L97.95937 100.67955L96.89687 100.67955ZM96.89687 108.05455L96.89687 101.8358L97.95937 101.8358L97.95937 108.05455L96.89687 108.05455ZM103.95937 107.288925Q103.36562 107.788925 102.81875 107.99205Q102.2875 108.195175 101.6625 108.195175Q100.63125 108.195175 100.08437 107.695175Q99.5375 107.195175 99.5375 106.413925Q99.5375 105.9608 99.74062 105.5858Q99.94375 105.195175 100.2875 104.976425Q100.63125 104.74205 101.05312 104.632675Q101.35 104.538925 101.99062 104.4608Q103.25625 104.320175 103.86562 104.101425Q103.86562 103.882675 103.86562 103.8358Q103.86562 103.17955 103.56875 102.913925Q103.1625 102.570175 102.36562 102.570175Q101.63125 102.570175 101.27187 102.8358Q100.9125 103.0858 100.74062 103.74205L99.70937 103.601425Q99.85 102.945175 100.17812 102.538925Q100.50625 102.132675 101.11562 101.913925Q101.725 101.695175 102.52187 101.695175Q103.31875 101.695175 103.81875 101.882675Q104.31875 102.070175 104.55312 102.351425Q104.7875 102.632675 104.88125 103.070175Q104.92812 103.3358 104.92812 104.038925L104.92812 105.445175Q104.92812 106.913925 104.99062 107.30455Q105.06875 107.695175 105.27187 108.05455L104.1625 108.05455Q104.00625 107.726425 103.95937 107.288925ZM103.86562 104.92955Q103.2875 105.163925 102.14687 105.3358Q101.49062 105.42955 101.225 105.55455Q100.95937 105.663925 100.80312 105.882675Q100.6625 106.101425 100.6625 106.382675Q100.6625 106.80455 100.975 107.0858Q101.30312 107.36705 101.9125 107.36705Q102.52187 107.36705 102.99062 107.101425Q103.475 106.8358 103.69375 106.36705Q103.86562 106.007675 103.86562 105.320175L103.86562 104.92955ZM106.86562 108.05455L106.86562 99.4608L107.92812 99.4608L107.92812 108.05455L106.86562 108.05455ZM112.19375 107.11705L112.35 108.038925Q111.89687 108.132675 111.55312 108.132675Q110.975 108.132675 110.6625 107.9608Q110.35 107.7733 110.20937 107.476425Q110.08437 107.17955 110.08437 106.226425L110.08437 102.6483L109.31875 102.6483L109.31875 101.8358L110.08437 101.8358L110.08437 100.288925L111.13125 99.663925L111.13125 101.8358L112.19375 101.8358L112.19375 102.6483L111.13125 102.6483L111.13125 106.288925Q111.13125 106.74205 111.17812 106.86705Q111.24062 106.99205 111.36562 107.070175Q111.49062 107.1483 111.725 107.1483Q111.9125 107.1483 112.19375 107.11705ZM112.85 110.445175L112.725 109.4608Q113.06875 109.55455 113.33437 109.55455Q113.67812 109.55455 113.88125 109.42955Q114.1 109.320175 114.24062 109.11705Q114.33437 108.945175 114.56875 108.320175Q114.58437 108.24205 114.6625 108.070175L112.2875 101.8358L113.42812 101.8358L114.725 105.42955Q114.975 106.11705 115.17812 106.882675Q115.36562 106.1483 115.61562 105.4608L116.94375 101.8358L117.99062 101.8358L115.63125 108.163925Q115.24062 109.17955 115.0375 109.570175Q114.75625 110.101425 114.38125 110.3358Q114.02187 110.5858 113.52187 110.5858Q113.225 110.5858 112.85 110.445175ZM122.0375 108.05455L122.0375 99.4608L125.85 99.4608Q127.00625 99.4608 127.6 99.695175Q128.19376 99.92955 128.55313 100.5233Q128.9125 101.101425 128.9125 101.80455Q128.9125 102.726425 128.31876 103.351425Q127.725 103.976425 126.49062 104.1483Q126.94375 104.36705 127.17812 104.570175Q127.67812 105.0233 128.11563 105.7108L129.61563 108.05455L128.17813 108.05455L127.05312 106.2733Q126.55312 105.49205 126.225 105.0858Q125.9125 104.67955 125.64687 104.5233Q125.39687 104.351425 125.13125 104.2733Q124.94375 104.24205 124.50625 104.24205L123.17812 104.24205L123.17812 108.05455L122.0375 108.05455ZM123.17812 103.257675L125.63125 103.257675Q126.39687 103.257675 126.83437 103.101425Q127.2875 102.92955 127.50625 102.5858Q127.74062 102.226425 127.74062 101.80455Q127.74062 101.195175 127.2875 100.80455Q126.85 100.413925 125.89687 100.413925L123.17812 100.413925L123.17812 103.257675ZM135.14688 106.05455L136.24063 106.17955Q135.99063 107.132675 135.2875 107.663925Q134.58438 108.195175 133.50626 108.195175Q132.14688 108.195175 131.33438 107.351425Q130.5375 106.507675 130.5375 104.99205Q130.5375 103.42955 131.35 102.570175Q132.1625 101.695175 133.44376 101.695175Q134.69376 101.695175 135.475 102.538925Q136.27188 103.382675 136.27188 104.92955Q136.27188 105.0233 136.27188 105.2108L131.63126 105.2108Q131.69376 106.24205 132.20938 106.788925Q132.725 107.320175 133.50626 107.320175Q134.08438 107.320175 134.49063 107.0233Q134.9125 106.7108 135.14688 106.05455ZM131.69376 104.351425L135.1625 104.351425Q135.1 103.55455 134.77188 103.163925Q134.25626 102.55455 133.45938 102.55455Q132.725 102.55455 132.225 103.038925Q131.74063 103.5233 131.69376 104.351425ZM137.475 106.195175L138.50626 106.038925Q138.6 106.663925 138.99063 106.99205Q139.39688 107.320175 140.13126 107.320175Q140.85 107.320175 141.19376 107.038925Q141.55313 106.74205 141.55313 106.3358Q141.55313 105.976425 141.24063 105.7733Q141.02188 105.632675 140.1625 105.413925Q139.00626 105.11705 138.55313 104.913925Q138.11563 104.695175 137.88126 104.320175Q137.64688 103.945175 137.64688 103.476425Q137.64688 103.070175 137.83438 102.7108Q138.02188 102.351425 138.35 102.11705Q138.6 101.945175 139.02188 101.820175Q139.44376 101.695175 139.94376 101.695175Q140.6625 101.695175 141.20938 101.913925Q141.77188 102.11705 142.0375 102.476425Q142.30313 102.8358 142.39688 103.42955L141.36563 103.570175Q141.30313 103.101425 140.95938 102.8358Q140.63126 102.55455 140.00626 102.55455Q139.2875 102.55455 138.975 102.80455Q138.6625 103.038925 138.6625 103.36705Q138.6625 103.570175 138.7875 103.726425Q138.92813 103.8983 139.19376 104.007675Q139.35 104.070175 140.13126 104.2733Q141.25626 104.5858 141.69376 104.7733Q142.13126 104.9608 142.38126 105.320175Q142.63126 105.67955 142.63126 106.226425Q142.63126 106.757675 142.31876 107.226425Q142.02188 107.67955 141.44376 107.945175Q140.86563 108.195175 140.13126 108.195175Q138.9125 108.195175 138.27188 107.695175Q137.64688 107.17955 137.475 106.195175ZM148.14688 106.05455L149.24063 106.17955Q148.99063 107.132675 148.2875 107.663925Q147.58438 108.195175 146.50626 108.195175Q145.14688 108.195175 144.33438 107.351425Q143.5375 106.507675 143.5375 104.99205Q143.5375 103.42955 144.35 102.570175Q145.1625 101.695175 146.44376 101.695175Q147.69376 101.695175 148.475 102.538925Q149.27188 103.382675 149.27188 104.92955Q149.27188 105.0233 149.27188 105.2108L144.63126 105.2108Q144.69376 106.24205 145.20938 106.788925Q145.725 107.320175 146.50626 107.320175Q147.08438 107.320175 147.49063 107.0233Q147.9125 106.7108 148.14688 106.05455ZM144.69376 104.351425L148.1625 104.351425Q148.1 103.55455 147.77188 103.163925Q147.25626 102.55455 146.45938 102.55455Q145.725 102.55455 145.225 103.038925Q144.74063 103.5233 144.69376 104.351425ZM154.95938 107.288925Q154.36563 107.788925 153.81876 107.99205Q153.2875 108.195175 152.6625 108.195175Q151.63126 108.195175 151.08438 107.695175Q150.5375 107.195175 150.5375 106.413925Q150.5375 105.9608 150.74063 105.5858Q150.94376 105.195175 151.2875 104.976425Q151.63126 104.74205 152.05313 104.632675Q152.35 104.538925 152.99063 104.4608Q154.25626 104.320175 154.86563 104.101425Q154.86563 103.882675 154.86563 103.8358Q154.86563 103.17955 154.56876 102.913925Q154.1625 102.570175 153.36563 102.570175Q152.63126 102.570175 152.27188 102.8358Q151.9125 103.0858 151.74063 103.74205L150.70938 103.601425Q150.85 102.945175 151.17813 102.538925Q151.50626 102.132675 152.11563 101.913925Q152.725 101.695175 153.52188 101.695175Q154.31876 101.695175 154.81876 101.882675Q155.31876 102.070175 155.55313 102.351425Q155.7875 102.632675 155.88126 103.070175Q155.92813 103.3358 155.92813 104.038925L155.92813 105.445175Q155.92813 106.913925 155.99063 107.30455Q156.06876 107.695175 156.27188 108.05455L155.1625 108.05455Q155.00626 107.726425 154.95938 107.288925ZM154.86563 104.92955Q154.2875 105.163925 153.14688 105.3358Q152.49063 105.42955 152.225 105.55455Q151.95938 105.663925 151.80313 105.882675Q151.6625 106.101425 151.6625 106.382675Q151.6625 106.80455 151.975 107.0858Q152.30313 107.36705 152.9125 107.36705Q153.52188 107.36705 153.99063 107.101425Q154.475 106.8358 154.69376 106.36705Q154.86563 106.007675 154.86563 105.320175L154.86563 104.92955ZM157.88126 108.05455L157.88126 101.8358L158.83438 101.8358L158.83438 102.7733Q159.19376 102.11705 159.49063 101.913925Q159.80313 101.695175 160.17813 101.695175Q160.70938 101.695175 161.25626 102.0233L160.89688 103.007675Q160.50626 102.7733 160.13126 102.7733Q159.77188 102.7733 159.49063 102.99205Q159.225 103.195175 159.11563 103.570175Q158.92813 104.132675 158.92813 104.788925L158.92813 108.05455L157.88126 108.05455ZM165.95938 105.7733L166.99063 105.913925Q166.81876 106.976425 166.11563 107.5858Q165.4125 108.195175 164.39688 108.195175Q163.11563 108.195175 162.33438 107.36705Q161.56876 106.5233 161.56876 104.9608Q161.56876 103.9608 161.89688 103.2108Q162.24063 102.445175 162.9125 102.070175Q163.6 101.695175 164.4125 101.695175Q165.4125 101.695175 166.05313 102.2108Q166.70938 102.7108 166.89688 103.663925L165.86563 103.820175Q165.725 103.195175 165.35 102.882675Q164.975 102.55455 164.44376 102.55455Q163.64688 102.55455 163.14688 103.132675Q162.64688 103.695175 162.64688 104.92955Q162.64688 106.195175 163.13126 106.757675Q163.61563 107.320175 164.38126 107.320175Q165.00626 107.320175 165.4125 106.945175Q165.83438 106.570175 165.95938 105.7733ZM167.89688 108.05455L167.89688 99.4608L168.94376 99.4608L168.94376 102.538925Q169.67813 101.695175 170.80313 101.695175Q171.50626 101.695175 172.00626 101.976425Q172.52188 102.24205 172.74063 102.726425Q172.95938 103.195175 172.95938 104.11705L172.95938 108.05455L171.9125 108.05455L171.9125 104.11705Q171.9125 103.320175 171.56876 102.9608Q171.225 102.601425 170.6 102.601425Q170.13126 102.601425 169.70938 102.851425Q169.30313 103.0858 169.11563 103.507675Q168.94376 103.913925 168.94376 104.6483L168.94376 108.05455L167.89688 108.05455Z" fill-rule="nonzero"/><path fill="#9e9e9e" d="M28.146875 124.038925L28.146875 125.05455L22.459375 125.05455Q22.459375 124.67955 22.584375 124.320175Q22.803125 123.74205 23.271875 123.17955Q23.75625 122.61705 24.6625 121.882675Q26.06875 120.726425 26.553125 120.05455Q27.053125 119.382675 27.053125 118.788925Q27.053125 118.163925 26.6 117.74205Q26.146875 117.30455 25.428125 117.30455Q24.6625 117.30455 24.209375 117.757675Q23.75625 118.2108 23.740625 119.0233L22.6625 118.913925Q22.771875 117.695175 23.490625 117.070175Q24.225 116.42955 25.459375 116.42955Q26.69375 116.42955 27.4125 117.11705Q28.13125 117.80455 28.13125 118.820175Q28.13125 119.3358 27.9125 119.8358Q27.709375 120.320175 27.209375 120.882675Q26.725 121.42955 25.6 122.382675Q24.646875 123.17955 24.365625 123.476425Q24.1 123.757675 23.928125 124.038925L28.146875 124.038925ZM29.6 122.80455L30.709375 122.7108Q30.834375 123.5233 31.271875 123.92955Q31.725 124.3358 32.365623 124.3358Q33.115623 124.3358 33.646873 123.757675Q34.178123 123.17955 34.178123 122.24205Q34.178123 121.3358 33.6625 120.820175Q33.1625 120.288925 32.334373 120.288925Q31.834375 120.288925 31.4125 120.5233Q31.00625 120.757675 30.771875 121.11705L29.7875 120.99205L30.615625 116.5858L34.896873 116.5858L34.896873 117.5858L31.459375 117.5858L31.00625 119.8983Q31.771875 119.351425 32.615623 119.351425Q33.740623 119.351425 34.50625 120.132675Q35.2875 120.913925 35.2875 122.1483Q35.2875 123.30455 34.615623 124.163925Q33.7875 125.195175 32.365623 125.195175Q31.19375 125.195175 30.44375 124.538925Q29.709375 123.882675 29.6 122.80455ZM37.19375 125.05455L37.19375 123.851425L38.396873 123.851425L38.396873 125.05455L37.19375 125.05455ZM39.6 120.820175Q39.6 119.288925 39.9125 118.36705Q40.225 117.42955 40.834373 116.92955Q41.459373 116.42955 42.396873 116.42955Q43.084373 116.42955 43.6 116.7108Q44.13125 116.99205 44.475 117.5233Q44.81875 118.038925 45.00625 118.788925Q45.19375 119.538925 45.19375 120.820175Q45.19375 122.3358 44.88125 123.257675Q44.584373 124.17955 43.959373 124.695175Q43.35 125.195175 42.396873 125.195175Q41.1625 125.195175 40.44375 124.30455Q39.6 123.24205 39.6 120.820175ZM40.678123 120.820175Q40.678123 122.92955 41.178123 123.632675Q41.678123 124.3358 42.396873 124.3358Q43.13125 124.3358 43.615623 123.632675Q44.115623 122.92955 44.115623 120.820175Q44.115623 118.695175 43.615623 118.007675Q43.13125 117.30455 42.38125 117.30455Q41.6625 117.30455 41.225 117.913925Q40.678123 118.695175 40.678123 120.820175ZM46.803123 118.5233Q46.803123 117.601425 47.25625 116.9608Q47.725 116.320175 48.6 116.320175Q49.4125 116.320175 49.94375 116.8983Q50.475 117.476425 50.475 118.5858Q50.475 119.67955 49.928123 120.2733Q49.396873 120.851425 48.615623 120.851425Q47.834373 120.851425 47.31875 120.2733Q46.803123 119.695175 46.803123 118.5233ZM48.63125 117.038925Q48.240623 117.038925 47.975 117.382675Q47.725 117.726425 47.725 118.632675Q47.725 119.4608 47.975 119.80455Q48.240623 120.132675 48.63125 120.132675Q49.0375 120.132675 49.2875 119.788925Q49.553123 119.445175 49.553123 118.55455Q49.553123 117.7108 49.2875 117.382675Q49.021873 117.038925 48.63125 117.038925ZM48.63125 125.36705L53.334373 116.320175L54.19375 116.320175L49.50625 125.36705L48.63125 125.36705ZM52.35 123.038925Q52.35 122.11705 52.803123 121.476425Q53.271873 120.8358 54.1625 120.8358Q54.975 120.8358 55.50625 121.413925Q56.0375 121.976425 56.0375 123.101425Q56.0375 124.195175 55.490623 124.788925Q54.959373 125.36705 54.1625 125.36705Q53.396873 125.36705 52.865623 124.788925Q52.35 124.2108 52.35 123.038925ZM54.19375 121.55455Q53.7875 121.55455 53.521873 121.8983Q53.271873 122.24205 53.271873 123.1483Q53.271873 123.9608 53.5375 124.30455Q53.803123 124.6483 54.19375 124.6483Q54.584373 124.6483 54.85 124.30455Q55.115623 123.9608 55.115623 123.05455Q55.115623 122.226425 54.85 121.8983Q54.584373 121.55455 54.19375 121.55455Z" fill-rule="nonzero"/><path stroke="#757575" stroke-width="1.0" stroke-linecap="butt" d="M22.1 112.55455L209.6 112.55455L280.88864 112.55455" fill-rule="nonzero"/><path fill="#9e9e9e" d="M282.88864 112.55455C282.88864 111.449974 281.9932 110.55455 280.88864 110.55455C279.78406 110.55455 278.88864 111.449974 278.88864 112.55455C278.88864 113.65912 279.78406 114.55455 280.88864 114.55455C281.9932 114.55455 282.88864 113.65912 282.88864 112.55455" fill-rule="nonzero"/><path fill="#1a1a1a" d="M23.053125 295.11044L23.053125 286.5167L29.25625 286.5167L29.25625 287.53232L24.19375 287.53232L24.19375 290.15732L28.94375 290.15732L28.94375 291.17294L24.19375 291.17294L24.19375 294.09482L29.459375 294.09482L29.459375 295.11044L23.053125 295.11044ZM34.928123 295.11044L34.928123 294.3292Q34.334373 295.25107 33.19375 295.25107Q32.44375 295.25107 31.81875 294.84482Q31.19375 294.42294 30.85 293.68857Q30.50625 292.9542 30.50625 292.00107Q30.50625 291.0792 30.81875 290.31357Q31.13125 289.54794 31.75625 289.15732Q32.38125 288.75107 33.146873 288.75107Q33.709373 288.75107 34.146873 288.98544Q34.584373 289.21982 34.865623 289.59482L34.865623 286.5167L35.9125 286.5167L35.9125 295.11044L34.928123 295.11044ZM31.6 292.00107Q31.6 293.2042 32.1 293.79794Q32.6 294.37607 33.2875 294.37607Q33.975 294.37607 34.459373 293.81357Q34.94375 293.25107 34.94375 292.09482Q34.94375 290.81357 34.44375 290.21982Q33.959373 289.62607 33.240623 289.62607Q32.5375 289.62607 32.06875 290.2042Q31.6 290.7667 31.6 292.00107ZM41.975 295.11044L41.975 294.18857Q41.240623 295.25107 39.990623 295.25107Q39.44375 295.25107 38.959373 295.04794Q38.490623 294.8292 38.25625 294.5167Q38.021873 294.18857 37.928123 293.71982Q37.865623 293.42294 37.865623 292.73544L37.865623 288.8917L38.928123 288.8917L38.928123 292.34482Q38.928123 293.15732 38.990623 293.4542Q39.084373 293.86044 39.396873 294.11044Q39.725 294.34482 40.209373 294.34482Q40.678123 294.34482 41.084373 294.11044Q41.50625 293.86044 41.678123 293.43857Q41.865623 293.0167 41.865623 292.21982L41.865623 288.8917L42.9125 288.8917L42.9125 295.11044L41.975 295.11044ZM48.959373 292.8292L49.990623 292.96982Q49.81875 294.03232 49.115623 294.6417Q48.4125 295.25107 47.396873 295.25107Q46.115623 295.25107 45.334373 294.42294Q44.56875 293.5792 44.56875 292.0167Q44.56875 291.0167 44.896873 290.2667Q45.240623 289.50107 45.9125 289.12607Q46.6 288.75107 47.4125 288.75107Q48.4125 288.75107 49.053123 289.2667Q49.709373 289.7667 49.896873 290.71982L48.865623 290.87607Q48.725 290.25107 48.35 289.93857Q47.975 289.61044 47.44375 289.61044Q46.646873 289.61044 46.146873 290.18857Q45.646873 290.75107 45.646873 291.98544Q45.646873 293.25107 46.13125 293.81357Q46.615623 294.37607 47.38125 294.37607Q48.00625 294.37607 48.4125 294.00107Q48.834373 293.62607 48.959373 292.8292ZM54.959373 294.34482Q54.365623 294.84482 53.81875 295.04794Q53.2875 295.25107 52.6625 295.25107Q51.63125 295.25107 51.084373 294.75107Q50.5375 294.25107 50.5375 293.46982Q50.5375 293.0167 50.740623 292.6417Q50.94375 292.25107 51.2875 292.03232Q51.63125 291.79794 52.053123 291.68857Q52.35 291.59482 52.990623 291.5167Q54.25625 291.37607 54.865623 291.15732Q54.865623 290.93857 54.865623 290.8917Q54.865623 290.23544 54.56875 289.96982Q54.1625 289.62607 53.365623 289.62607Q52.63125 289.62607 52.271873 289.8917Q51.9125 290.1417 51.740623 290.79794L50.709373 290.65732Q50.85 290.00107 51.178123 289.59482Q51.50625 289.18857 52.115623 288.96982Q52.725 288.75107 53.521873 288.75107Q54.31875 288.75107 54.81875 288.93857Q55.31875 289.12607 55.553123 289.40732Q55.7875 289.68857 55.88125 290.12607Q55.928123 290.3917 55.928123 291.09482L55.928123 292.50107Q55.928123 293.96982 55.990623 294.36044Q56.06875 294.75107 56.271873 295.11044L55.1625 295.11044Q55.00625 294.78232 54.959373 294.34482ZM54.865623 291.98544Q54.2875 292.21982 53.146873 292.3917Q52.490623 292.48544 52.225 292.61044Q51.959373 292.71982 51.803123 292.93857Q51.6625 293.15732 51.6625 293.43857Q51.6625 293.86044 51.975 294.1417Q52.303123 294.42294 52.9125 294.42294Q53.521873 294.42294 53.990623 294.15732Q54.475 293.8917 54.69375 293.42294Q54.865623 293.06357 54.865623 292.37607L54.865623 291.98544ZM60.19375 294.17294L60.35 295.09482Q59.896873 295.18857 59.553123 295.18857Q58.975 295.18857 58.6625 295.0167Q58.35 294.8292 58.209373 294.53232Q58.084373 294.23544 58.084373 293.28232L58.084373 289.7042L57.31875 289.7042L57.31875 288.8917L58.084373 288.8917L58.084373 287.34482L59.13125 286.71982L59.13125 288.8917L60.19375 288.8917L60.19375 289.7042L59.13125 289.7042L59.13125 293.34482Q59.13125 293.79794 59.178123 293.92294Q59.240623 294.04794 59.365623 294.12607Q59.490623 294.2042 59.725 294.2042Q59.9125 294.2042 60.19375 294.17294ZM60.896873 287.73544L60.896873 286.5167L61.959373 286.5167L61.959373 287.73544L60.896873 287.73544ZM60.896873 295.11044L60.896873 288.8917L61.959373 288.8917L61.959373 295.11044L60.896873 295.11044ZM63.50625 292.00107Q63.50625 290.2667 64.45937 289.43857Q65.25625 288.75107 66.4125 288.75107Q67.69375 288.75107 68.50625 289.59482Q69.33437 290.42294 69.33437 291.90732Q69.33437 293.11044 68.975 293.79794Q68.61562 294.48544 67.9125 294.87607Q67.225 295.25107 66.4125 295.25107Q65.11562 295.25107 64.30312 294.42294Q63.50625 293.5792 63.50625 292.00107ZM64.58437 292.00107Q64.58437 293.18857 65.1 293.78232Q65.63125 294.37607 66.4125 294.37607Q67.20937 294.37607 67.725 293.78232Q68.24062 293.18857 68.24062 291.96982Q68.24062 290.81357 67.70937 290.21982Q67.19375 289.62607 66.4125 289.62607Q65.63125 289.62607 65.1 290.21982Q64.58437 290.79794 64.58437 292.00107ZM70.89687 295.11044L70.89687 288.8917L71.83437 288.8917L71.83437 289.7667Q72.52187 288.75107 73.81875 288.75107Q74.38125 288.75107 74.85 288.9542Q75.33437 289.15732 75.56875 289.48544Q75.80312 289.81357 75.89687 290.25107Q75.94375 290.54794 75.94375 291.28232L75.94375 295.11044L74.89687 295.11044L74.89687 291.3292Q74.89687 290.67294 74.77187 290.36044Q74.64687 290.04794 74.33437 289.86044Q74.02187 289.65732 73.6 289.65732Q72.92812 289.65732 72.42812 290.09482Q71.94375 290.5167 71.94375 291.7042L71.94375 295.11044L70.89687 295.11044Z" fill-rule="nonzero"/><path fill="#9e9e9e" d="M28.146875 311.09482L28.146875 312.11044L22.459375 312.11044Q22.459375 311.73544 22.584375 311.37607Q22.803125 310.79794 23.271875 310.23544Q23.75625 309.67294 24.6625 308.93857Q26.06875 307.78232 26.553125 307.11044Q27.053125 306.43857 27.053125 305.84482Q27.053125 305.21982 26.6 304.79794Q26.146875 304.36044 25.428125 304.36044Q24.6625 304.36044 24.209375 304.81357Q23.75625 305.2667 23.740625 306.0792L22.6625 305.96982Q22.771875 304.75107 23.490625 304.12607Q24.225 303.48544 25.459375 303.48544Q26.69375 303.48544 27.4125 304.17294Q28.13125 304.86044 28.13125 305.87607Q28.13125 306.3917 27.9125 306.8917Q27.709375 307.37607 27.209375 307.93857Q26.725 308.48544 25.6 309.43857Q24.646875 310.23544 24.365625 310.53232Q24.1 310.81357 23.928125 311.09482L28.146875 311.09482ZM29.6 309.86044L30.709375 309.7667Q30.834375 310.5792 31.271875 310.98544Q31.725 311.3917 32.365623 311.3917Q33.115623 311.3917 33.646873 310.81357Q34.178123 310.23544 34.178123 309.29794Q34.178123 308.3917 33.6625 307.87607Q33.1625 307.34482 32.334373 307.34482Q31.834375 307.34482 31.4125 307.5792Q31.00625 307.81357 30.771875 308.17294L29.7875 308.04794L30.615625 303.6417L34.896873 303.6417L34.896873 304.6417L31.459375 304.6417L31.00625 306.9542Q31.771875 306.40732 32.615623 306.40732Q33.740623 306.40732 34.50625 307.18857Q35.2875 307.96982 35.2875 309.2042Q35.2875 310.36044 34.615623 311.21982Q33.7875 312.25107 32.365623 312.25107Q31.19375 312.25107 30.44375 311.59482Q29.709375 310.93857 29.6 309.86044ZM37.19375 312.11044L37.19375 310.90732L38.396873 310.90732L38.396873 312.11044L37.19375 312.11044ZM39.6 307.87607Q39.6 306.34482 39.9125 305.42294Q40.225 304.48544 40.834373 303.98544Q41.459373 303.48544 42.396873 303.48544Q43.084373 303.48544 43.6 303.7667Q44.13125 304.04794 44.475 304.5792Q44.81875 305.09482 45.00625 305.84482Q45.19375 306.59482 45.19375 307.87607Q45.19375 309.3917 44.88125 310.31357Q44.584373 311.23544 43.959373 311.75107Q43.35 312.25107 42.396873 312.25107Q41.1625 312.25107 40.44375 311.36044Q39.6 310.29794 39.6 307.87607ZM40.678123 307.87607Q40.678123 309.98544 41.178123 310.68857Q41.678123 311.3917 42.396873 311.3917Q43.13125 311.3917 43.615623 310.68857Q44.115623 309.98544 44.115623 307.87607Q44.115623 305.75107 43.615623 305.06357Q43.13125 304.36044 42.38125 304.36044Q41.6625 304.36044 41.225 304.96982Q40.678123 305.75107 40.678123 307.87607ZM46.803123 305.5792Q46.803123 304.65732 47.25625 304.0167Q47.725 303.37607 48.6 303.37607Q49.4125 303.37607 49.94375 303.9542Q50.475 304.53232 50.475 305.6417Q50.475 306.73544 49.928123 307.3292Q49.396873 307.90732 48.615623 307.90732Q47.834373 307.90732 47.31875 307.3292Q46.803123 306.75107 46.803123 305.5792ZM48.63125 304.09482Q48.240623 304.09482 47.975 304.43857Q47.725 304.78232 47.725 305.68857Q47.725 306.5167 47.975 306.86044Q48.240623 307.18857 48.63125 307.18857Q49.0375 307.18857 49.2875 306.84482Q49.553123 306.50107 49.553123 305.61044Q49.553123 304.7667 49.2875 304.43857Q49.021873 304.09482 48.63125 304.09482ZM48.63125 312.42294L53.334373 303.37607L54.19375 303.37607L49.50625 312.42294L48.63125 312.42294ZM52.35 310.09482Q52.35 309.17294 52.803123 308.53232Q53.271873 307.8917 54.1625 307.8917Q54.975 307.8917 55.50625 308.46982Q56.0375 309.03232 56.0375 310.15732Q56.0375 311.25107 55.490623 311.84482Q54.959373 312.42294 54.1625 312.42294Q53.396873 312.42294 52.865623 311.84482Q52.35 311.2667 52.35 310.09482ZM54.19375 308.61044Q53.7875 308.61044 53.521873 308.9542Q53.271873 309.29794 53.271873 310.2042Q53.271873 311.0167 53.5375 311.36044Q53.803123 311.7042 54.19375 311.7042Q54.584373 311.7042 54.85 311.36044Q55.115623 311.0167 55.115623 310.11044Q55.115623 309.28232 54.85 308.9542Q54.584373 308.61044 54.19375 308.61044Z" fill-rule="nonzero"/><path stroke="#757575" stroke-width="1.0" stroke-linecap="butt" d="M22.1 299.61044L209.6 299.61044L280.88864 299.61044" fill-rule="nonzero"/><path fill="#9e9e9e" d="M282.88864 299.61044C282.88864 298.5059 281.9932 297.61044 280.88864 297.61044C279.78406 297.61044 278.88864 298.5059 278.88864 299.61044C278.88864 300.71503 279.78406 301.61044 280.88864 301.61044C281.9932 301.61044 282.88864 300.71503 282.88864 299.61044" fill-rule="nonzero"/><path fill="#1a1a1a" d="M717.9625 105.038925L719.0875 105.3358Q718.72815 106.726425 717.8063 107.4608Q716.8844 108.195175 715.54065 108.195175Q714.15 108.195175 713.275 107.632675Q712.4 107.070175 711.9469 106.007675Q711.4938 104.92955 711.4938 103.695175Q711.4938 102.351425 712.0094 101.351425Q712.525 100.351425 713.4625 99.8358Q714.41565 99.320175 715.5563 99.320175Q716.8375 99.320175 717.7125 99.976425Q718.60315 100.632675 718.9469 101.820175L717.8219 102.0858Q717.525 101.1483 716.9469 100.726425Q716.3844 100.288925 715.525 100.288925Q714.54065 100.288925 713.8688 100.7733Q713.2125 101.24205 712.9313 102.038925Q712.66565 102.8358 712.66565 103.695175Q712.66565 104.788925 712.97815 105.601425Q713.3063 106.413925 713.97815 106.820175Q714.65 107.226425 715.4469 107.226425Q716.4 107.226425 717.0563 106.67955Q717.72815 106.132675 717.9625 105.038925ZM724.7594 107.288925Q724.16565 107.788925 723.6188 107.99205Q723.0875 108.195175 722.4625 108.195175Q721.4313 108.195175 720.8844 107.695175Q720.3375 107.195175 720.3375 106.413925Q720.3375 105.9608 720.54065 105.5858Q720.7438 105.195175 721.0875 104.976425Q721.4313 104.74205 721.85315 104.632675Q722.15 104.538925 722.79065 104.4608Q724.0563 104.320175 724.66565 104.101425Q724.66565 103.882675 724.66565 103.8358Q724.66565 103.17955 724.3688 102.913925Q723.9625 102.570175 723.16565 102.570175Q722.4313 102.570175 722.0719 102.8358Q721.7125 103.0858 721.54065 103.74205L720.5094 103.601425Q720.65 102.945175 720.97815 102.538925Q721.3063 102.132675 721.91565 101.913925Q722.525 101.695175 723.3219 101.695175Q724.1188 101.695175 724.6188 101.882675Q725.1188 102.070175 725.35315 102.351425Q725.5875 102.632675 725.6813 103.070175Q725.72815 103.3358 725.72815 104.038925L725.72815 105.445175Q725.72815 106.913925 725.79065 107.30455Q725.8688 107.695175 726.0719 108.05455L724.9625 108.05455Q724.8063 107.726425 724.7594 107.288925ZM724.66565 104.92955Q724.0875 105.163925 722.9469 105.3358Q722.29065 105.42955 722.025 105.55455Q721.7594 105.663925 721.60315 105.882675Q721.4625 106.101425 721.4625 106.382675Q721.4625 106.80455 721.775 107.0858Q722.10315 107.36705 722.7125 107.36705Q723.3219 107.36705 723.79065 107.101425Q724.275 106.8358 724.4938 106.36705Q724.66565 106.007675 724.66565 105.320175L724.66565 104.92955ZM727.6969 108.05455L727.6969 101.8358L728.6344 101.8358L728.6344 102.7108Q729.3219 101.695175 730.6188 101.695175Q731.1813 101.695175 731.65 101.8983Q732.1344 102.101425 732.3688 102.42955Q732.60315 102.757675 732.6969 103.195175Q732.7438 103.49205 732.7438 104.226425L732.7438 108.05455L731.6969 108.05455L731.6969 104.2733Q731.6969 103.61705 731.5719 103.30455Q731.4469 102.99205 731.1344 102.80455Q730.8219 102.601425 730.4 102.601425Q729.72815 102.601425 729.22815 103.038925Q728.7438 103.4608 728.7438 104.6483L728.7438 108.05455L727.6969 108.05455ZM738.7594 105.7733L739.79065 105.913925Q739.6188 106.976425 738.91565 107.5858Q738.2125 108.195175 737.1969 108.195175Q735.91565 108.195175 735.1344 107.36705Q734.3688 106.5233 734.3688 104.9608Q734.3688 103.9608 734.6969 103.2108Q735.04065 102.445175 735.7125 102.070175Q736.4 101.695175 737.2125 101.695175Q738.2125 101.695175 738.85315 102.2108Q739.5094 102.7108 739.6969 103.663925L738.66565 103.820175Q738.525 103.195175 738.15 102.882675Q737.775 102.55455 737.2438 102.55455Q736.4469 102.55455 735.9469 103.132675Q735.4469 103.695175 735.4469 104.92955Q735.4469 106.195175 735.9313 106.757675Q736.41565 107.320175 737.1813 107.320175Q737.8063 107.320175 738.2125 106.945175Q738.6344 106.570175 738.7594 105.7733ZM744.9469 106.05455L746.04065 106.17955Q745.79065 107.132675 745.0875 107.663925Q744.3844 108.195175 743.3063 108.195175Q741.9469 108.195175 741.1344 107.351425Q740.3375 106.507675 740.3375 104.99205Q740.3375 103.42955 741.15 102.570175Q741.9625 101.695175 743.2438 101.695175Q744.4938 101.695175 745.275 102.538925Q746.0719 103.382675 746.0719 104.92955Q746.0719 105.0233 746.0719 105.2108L741.4313 105.2108Q741.4938 106.24205 742.0094 106.788925Q742.525 107.320175 743.3063 107.320175Q743.8844 107.320175 744.29065 107.0233Q744.7125 106.7108 744.9469 106.05455ZM741.4938 104.351425L744.9625 104.351425Q744.9 103.55455 744.5719 103.163925Q744.0563 102.55455 743.2594 102.55455Q742.525 102.55455 742.025 103.038925Q741.54065 103.5233 741.4938 104.351425ZM747.6813 108.05455L747.6813 101.8358L748.6344 101.8358L748.6344 102.7733Q748.9938 102.11705 749.29065 101.913925Q749.60315 101.695175 749.97815 101.695175Q750.5094 101.695175 751.0563 102.0233L750.6969 103.007675Q750.3063 102.7733 749.9313 102.7733Q749.5719 102.7733 749.29065 102.99205Q749.025 103.195175 748.91565 103.570175Q748.72815 104.132675 748.72815 104.788925L748.72815 108.05455L747.6813 108.05455ZM754.8375 108.05455L754.8375 99.4608L758.65 99.4608Q759.8063 99.4608 760.4 99.695175Q760.9938 99.92955 761.35315 100.5233Q761.7125 101.101425 761.7125 101.80455Q761.7125 102.726425 761.1188 103.351425Q760.525 103.976425 759.29065 104.1483Q759.7438 104.36705 759.97815 104.570175Q760.47815 105.0233 760.91565 105.7108L762.41565 108.05455L760.97815 108.05455L759.85315 106.2733Q759.35315 105.49205 759.025 105.0858Q758.7125 104.67955 758.4469 104.5233Q758.1969 104.351425 757.9313 104.2733Q757.7438 104.24205 757.3063 104.24205L755.97815 104.24205L755.97815 108.05455L754.8375 108.05455ZM755.97815 103.257675L758.4313 103.257675Q759.1969 103.257675 759.6344 103.101425Q760.0875 102.92955 760.3063 102.5858Q760.54065 102.226425 760.54065 101.80455Q760.54065 101.195175 760.0875 100.80455Q759.65 100.413925 758.6969 100.413925L755.97815 100.413925L755.97815 103.257675ZM767.9469 106.05455L769.04065 106.17955Q768.79065 107.132675 768.0875 107.663925Q767.3844 108.195175 766.3063 108.195175Q764.9469 108.195175 764.1344 107.351425Q763.3375 106.507675 763.3375 104.99205Q763.3375 103.42955 764.15 102.570175Q764.9625 101.695175 766.2438 101.695175Q767.4938 101.695175 768.275 102.538925Q769.0719 103.382675 769.0719 104.92955Q769.0719 105.0233 769.0719 105.2108L764.4313 105.2108Q764.4938 106.24205 765.0094 106.788925Q765.525 107.320175 766.3063 107.320175Q766.8844 107.320175 767.29065 107.0233Q767.7125 106.7108 767.9469 106.05455ZM764.4938 104.351425L767.9625 104.351425Q767.9 103.55455 767.5719 103.163925Q767.0563 102.55455 766.2594 102.55455Q765.525 102.55455 765.025 103.038925Q764.54065 103.5233 764.4938 104.351425ZM770.275 106.195175L771.3063 106.038925Q771.4 106.663925 771.79065 106.99205Q772.1969 107.320175 772.9313 107.320175Q773.65 107.320175 773.9938 107.038925Q774.35315 106.74205 774.35315 106.3358Q774.35315 105.976425 774.04065 105.7733Q773.8219 105.632675 772.9625 105.413925Q771.8063 105.11705 771.35315 104.913925Q770.91565 104.695175 770.6813 104.320175Q770.4469 103.945175 770.4469 103.476425Q770.4469 103.070175 770.6344 102.7108Q770.8219 102.351425 771.15 102.11705Q771.4 101.945175 771.8219 101.820175Q772.2438 101.695175 772.7438 101.695175Q773.4625 101.695175 774.0094 101.913925Q774.5719 102.11705 774.8375 102.476425Q775.10315 102.8358 775.1969 103.42955L774.16565 103.570175Q774.10315 103.101425 773.7594 102.8358Q773.4313 102.55455 772.8063 102.55455Q772.0875 102.55455 771.775 102.80455Q771.4625 103.038925 771.4625 103.36705Q771.4625 103.570175 771.5875 103.726425Q771.72815 103.8983 771.9938 104.007675Q772.15 104.070175 772.9313 104.2733Q774.0563 104.5858 774.4938 104.7733Q774.9313 104.9608 775.1813 105.320175Q775.4313 105.67955 775.4313 106.226425Q775.4313 106.757675 775.1188 107.226425Q774.8219 107.67955 774.2438 107.945175Q773.66565 108.195175 772.9313 108.195175Q771.7125 108.195175 771.0719 107.695175Q770.4469 107.17955 770.275 106.195175ZM780.9469 106.05455L782.04065 106.17955Q781.79065 107.132675 781.0875 107.663925Q780.3844 108.195175 779.3063 108.195175Q777.9469 108.195175 777.1344 107.351425Q776.3375 106.507675 776.3375 104.99205Q776.3375 103.42955 777.15 102.570175Q777.9625 101.695175 779.2438 101.695175Q780.4938 101.695175 781.275 102.538925Q782.0719 103.382675 782.0719 104.92955Q782.0719 105.0233 782.0719 105.2108L777.4313 105.2108Q777.4938 106.24205 778.0094 106.788925Q778.525 107.320175 779.3063 107.320175Q779.8844 107.320175 780.29065 107.0233Q780.7125 106.7108 780.9469 106.05455ZM777.4938 104.351425L780.9625 104.351425Q780.9 103.55455 780.5719 103.163925Q780.0563 102.55455 779.2594 102.55455Q778.525 102.55455 778.025 103.038925Q777.54065 103.5233 777.4938 104.351425ZM787.7594 107.288925Q787.16565 107.788925 786.6188 107.99205Q786.0875 108.195175 785.4625 108.195175Q784.4313 108.195175 783.8844 107.695175Q783.3375 107.195175 783.3375 106.413925Q783.3375 105.9608 783.54065 105.5858Q783.7438 105.195175 784.0875 104.976425Q784.4313 104.74205 784.85315 104.632675Q785.15 104.538925 785.79065 104.4608Q787.0563 104.320175 787.66565 104.101425Q787.66565 103.882675 787.66565 103.8358Q787.66565 103.17955 787.3688 102.913925Q786.9625 102.570175 786.16565 102.570175Q785.4313 102.570175 785.0719 102.8358Q784.7125 103.0858 784.54065 103.74205L783.5094 103.601425Q783.65 102.945175 783.97815 102.538925Q784.3063 102.132675 784.91565 101.913925Q785.525 101.695175 786.3219 101.695175Q787.1188 101.695175 787.6188 101.882675Q788.1188 102.070175 788.35315 102.351425Q788.5875 102.632675 788.6813 103.070175Q788.72815 103.3358 788.72815 104.038925L788.72815 105.445175Q788.72815 106.913925 788.79065 107.30455Q788.8688 107.695175 789.0719 108.05455L787.9625 108.05455Q787.8063 107.726425 787.7594 107.288925ZM787.66565 104.92955Q787.0875 105.163925 785.9469 105.3358Q785.29065 105.42955 785.025 105.55455Q784.7594 105.663925 784.60315 105.882675Q784.4625 106.101425 784.4625 106.382675Q784.4625 106.80455 784.775 107.0858Q785.10315 107.36705 785.7125 107.36705Q786.3219 107.36705 786.79065 107.101425Q787.275 106.8358 787.4938 106.36705Q787.66565 106.007675 787.66565 105.320175L787.66565 104.92955ZM790.6813 108.05455L790.6813 101.8358L791.6344 101.8358L791.6344 102.7733Q791.9938 102.11705 792.29065 101.913925Q792.60315 101.695175 792.97815 101.695175Q793.5094 101.695175 794.0563 102.0233L793.6969 103.007675Q793.3063 102.7733 792.9313 102.7733Q792.5719 102.7733 792.29065 102.99205Q792.025 103.195175 791.91565 103.570175Q791.72815 104.132675 791.72815 104.788925L791.72815 108.05455L790.6813 108.05455ZM798.7594 105.7733L799.79065 105.913925Q799.6188 106.976425 798.91565 107.5858Q798.2125 108.195175 797.1969 108.195175Q795.91565 108.195175 795.1344 107.36705Q794.3688 106.5233 794.3688 104.9608Q794.3688 103.9608 794.6969 103.2108Q795.04065 102.445175 795.7125 102.070175Q796.4 101.695175 797.2125 101.695175Q798.2125 101.695175 798.85315 102.2108Q799.5094 102.7108 799.6969 103.663925L798.66565 103.820175Q798.525 103.195175 798.15 102.882675Q797.775 102.55455 797.2438 102.55455Q796.4469 102.55455 795.9469 103.132675Q795.4469 103.695175 795.4469 104.92955Q795.4469 106.195175 795.9313 106.757675Q796.41565 107.320175 797.1813 107.320175Q797.8063 107.320175 798.2125 106.945175Q798.6344 106.570175 798.7594 105.7733ZM800.6969 108.05455L800.6969 99.4608L801.7438 99.4608L801.7438 102.538925Q802.47815 101.695175 803.60315 101.695175Q804.3063 101.695175 804.8063 101.976425Q805.3219 102.24205 805.54065 102.726425Q805.7594 103.195175 805.7594 104.11705L805.7594 108.05455L804.7125 108.05455L804.7125 104.11705Q804.7125 103.320175 804.3688 102.9608Q804.025 102.601425 803.4 102.601425Q802.9313 102.601425 802.5094 102.851425Q802.10315 103.0858 801.91565 103.507675Q801.7438 103.913925 801.7438 104.6483L801.7438 108.05455L800.6969 108.05455Z" fill-rule="nonzero"/><path fill="#9e9e9e" d="M777.9469 124.038925L777.9469 125.05455L772.2594 125.05455Q772.2594 124.67955 772.3844 124.320175Q772.60315 123.74205 773.0719 123.17955Q773.5563 122.61705 774.4625 121.882675Q775.8688 120.726425 776.35315 120.05455Q776.85315 119.382675 776.85315 118.788925Q776.85315 118.163925 776.4 117.74205Q775.9469 117.30455 775.22815 117.30455Q774.4625 117.30455 774.0094 117.757675Q773.5563 118.2108 773.54065 119.0233L772.4625 118.913925Q772.5719 117.695175 773.29065 117.070175Q774.025 116.42955 775.2594 116.42955Q776.4938 116.42955 777.2125 117.11705Q777.9313 117.80455 777.9313 118.820175Q777.9313 119.3358 777.7125 119.8358Q777.5094 120.320175 777.0094 120.882675Q776.525 121.42955 775.4 122.382675Q774.4469 123.17955 774.16565 123.476425Q773.9 123.757675 773.72815 124.038925L777.9469 124.038925ZM779.4 122.80455L780.5094 122.7108Q780.6344 123.5233 781.0719 123.92955Q781.525 124.3358 782.16565 124.3358Q782.91565 124.3358 783.4469 123.757675Q783.97815 123.17955 783.97815 122.24205Q783.97815 121.3358 783.4625 120.820175Q782.9625 120.288925 782.1344 120.288925Q781.6344 120.288925 781.2125 120.5233Q780.8063 120.757675 780.5719 121.11705L779.5875 120.99205L780.41565 116.5858L784.6969 116.5858L784.6969 117.5858L781.2594 117.5858L780.8063 119.8983Q781.5719 119.351425 782.41565 119.351425Q783.54065 119.351425 784.3063 120.132675Q785.0875 120.913925 785.0875 122.1483Q785.0875 123.30455 784.41565 124.163925Q783.5875 125.195175 782.16565 125.195175Q780.9938 125.195175 780.2438 124.538925Q779.5094 123.882675 779.4 122.80455ZM786.9938 125.05455L786.9938 123.851425L788.1969 123.851425L788.1969 125.05455L786.9938 125.05455ZM789.4 120.820175Q789.4 119.288925 789.7125 118.36705Q790.025 117.42955 790.6344 116.92955Q791.2594 116.42955 792.1969 116.42955Q792.8844 116.42955 793.4 116.7108Q793.9313 116.99205 794.275 117.5233Q794.6188 118.038925 794.8063 118.788925Q794.9938 119.538925 794.9938 120.820175Q794.9938 122.3358 794.6813 123.257675Q794.3844 124.17955 793.7594 124.695175Q793.15 125.195175 792.1969 125.195175Q790.9625 125.195175 790.2438 124.30455Q789.4 123.24205 789.4 120.820175ZM790.47815 120.820175Q790.47815 122.92955 790.97815 123.632675Q791.47815 124.3358 792.1969 124.3358Q792.9313 124.3358 793.41565 123.632675Q793.91565 122.92955 793.91565 120.820175Q793.91565 118.695175 793.41565 118.007675Q792.9313 117.30455 792.1813 117.30455Q791.4625 117.30455 791.025 117.913925Q790.47815 118.695175 790.47815 120.820175ZM796.60315 118.5233Q796.60315 117.601425 797.0563 116.9608Q797.525 116.320175 798.4 116.320175Q799.2125 116.320175 799.7438 116.8983Q800.275 117.476425 800.275 118.5858Q800.275 119.67955 799.72815 120.2733Q799.1969 120.851425 798.41565 120.851425Q797.6344 120.851425 797.1188 120.2733Q796.60315 119.695175 796.60315 118.5233ZM798.4313 117.038925Q798.04065 117.038925 797.775 117.382675Q797.525 117.726425 797.525 118.632675Q797.525 119.4608 797.775 119.80455Q798.04065 120.132675 798.4313 120.132675Q798.8375 120.132675 799.0875 119.788925Q799.35315 119.445175 799.35315 118.55455Q799.35315 117.7108 799.0875 117.382675Q798.8219 117.038925 798.4313 117.038925ZM798.4313 125.36705L803.1344 116.320175L803.9938 116.320175L799.3063 125.36705L798.4313 125.36705ZM802.15 123.038925Q802.15 122.11705 802.60315 121.476425Q803.0719 120.8358 803.9625 120.8358Q804.775 120.8358 805.3063 121.413925Q805.8375 121.976425 805.8375 123.101425Q805.8375 124.195175 805.29065 124.788925Q804.7594 125.36705 803.9625 125.36705Q803.1969 125.36705 802.66565 124.788925Q802.15 124.2108 802.15 123.038925ZM803.9938 121.55455Q803.5875 121.55455 803.3219 121.8983Q803.0719 122.24205 803.0719 123.1483Q803.0719 123.9608 803.3375 124.30455Q803.60315 124.6483 803.9938 124.6483Q804.3844 124.6483 804.65 124.30455Q804.91565 123.9608 804.91565 123.05455Q804.91565 122.226425 804.65 121.8983Q804.3844 121.55455 803.9938 121.55455Z" fill-rule="nonzero"/><path stroke="#757575" stroke-width="1.0" stroke-linecap="butt" d="M806.9 112.55455L619.4 112.55455L548.1114 112.55455" fill-rule="nonzero"/><path fill="#9e9e9e" d="M550.1114 112.55455C550.1114 111.449974 549.21594 110.55455 548.1114 110.55455C547.0068 110.55455 546.1114 111.449974 546.1114 112.55455C546.1114 113.65912 547.0068 114.55455 548.1114 114.55455C549.21594 114.55455 550.1114 113.65912 550.1114 112.55455" fill-rule="nonzero"/><path fill="#1a1a1a" d="M726.79065 295.11044L726.79065 286.5167L728.5094 286.5167L730.54065 292.59482Q730.8219 293.4542 730.9469 293.87607Q731.0875 293.40732 731.4 292.50107L733.4625 286.5167L734.9938 286.5167L734.9938 295.11044L733.9 295.11044L733.9 287.92294L731.4 295.11044L730.3688 295.11044L727.8844 287.79794L727.8844 295.11044L726.79065 295.11044ZM736.6969 287.73544L736.6969 286.5167L737.7594 286.5167L737.7594 287.73544L736.6969 287.73544ZM736.6969 295.11044L736.6969 288.8917L737.7594 288.8917L737.7594 295.11044L736.6969 295.11044ZM739.6969 295.11044L739.6969 288.8917L740.6344 288.8917L740.6344 289.7667Q741.3219 288.75107 742.6188 288.75107Q743.1813 288.75107 743.65 288.9542Q744.1344 289.15732 744.3688 289.48544Q744.60315 289.81357 744.6969 290.25107Q744.7438 290.54794 744.7438 291.28232L744.7438 295.11044L743.6969 295.11044L743.6969 291.3292Q743.6969 290.67294 743.5719 290.36044Q743.4469 290.04794 743.1344 289.86044Q742.8219 289.65732 742.4 289.65732Q741.72815 289.65732 741.22815 290.09482Q740.7438 290.5167 740.7438 291.7042L740.7438 295.11044L739.6969 295.11044ZM746.3063 292.00107Q746.3063 290.2667 747.2594 289.43857Q748.0563 288.75107 749.2125 288.75107Q750.4938 288.75107 751.3063 289.59482Q752.1344 290.42294 752.1344 291.90732Q752.1344 293.11044 751.775 293.79794Q751.41565 294.48544 750.7125 294.87607Q750.025 295.25107 749.2125 295.25107Q747.91565 295.25107 747.10315 294.42294Q746.3063 293.5792 746.3063 292.00107ZM747.3844 292.00107Q747.3844 293.18857 747.9 293.78232Q748.4313 294.37607 749.2125 294.37607Q750.0094 294.37607 750.525 293.78232Q751.04065 293.18857 751.04065 291.96982Q751.04065 290.81357 750.5094 290.21982Q749.9938 289.62607 749.2125 289.62607Q748.4313 289.62607 747.9 290.21982Q747.3844 290.79794 747.3844 292.00107ZM753.6813 295.11044L753.6813 288.8917L754.6344 288.8917L754.6344 289.8292Q754.9938 289.17294 755.29065 288.96982Q755.60315 288.75107 755.97815 288.75107Q756.5094 288.75107 757.0563 289.0792L756.6969 290.06357Q756.3063 289.8292 755.9313 289.8292Q755.5719 289.8292 755.29065 290.04794Q755.025 290.25107 754.91565 290.62607Q754.72815 291.18857 754.72815 291.84482L754.72815 295.11044L753.6813 295.11044ZM757.6969 287.73544L757.6969 286.5167L758.7594 286.5167L758.7594 287.73544L757.6969 287.73544ZM757.6969 295.11044L757.6969 288.8917L758.7594 288.8917L758.7594 295.11044L757.6969 295.11044ZM762.9938 294.17294L763.15 295.09482Q762.6969 295.18857 762.35315 295.18857Q761.775 295.18857 761.4625 295.0167Q761.15 294.8292 761.0094 294.53232Q760.8844 294.23544 760.8844 293.28232L760.8844 289.7042L760.1188 289.7042L760.1188 288.8917L760.8844 288.8917L760.8844 287.34482L761.9313 286.71982L761.9313 288.8917L762.9938 288.8917L762.9938 289.7042L761.9313 289.7042L761.9313 293.34482Q761.9313 293.79794 761.97815 293.92294Q762.04065 294.04794 762.16565 294.12607Q762.29065 294.2042 762.525 294.2042Q762.7125 294.2042 762.9938 294.17294ZM763.65 297.50107L763.525 296.5167Q763.8688 296.61044 764.1344 296.61044Q764.47815 296.61044 764.6813 296.48544Q764.9 296.37607 765.04065 296.17294Q765.1344 296.00107 765.3688 295.37607Q765.3844 295.29794 765.4625 295.12607L763.0875 288.8917L764.22815 288.8917L765.525 292.48544Q765.775 293.17294 765.97815 293.93857Q766.16565 293.2042 766.41565 292.5167L767.7438 288.8917L768.79065 288.8917L766.4313 295.21982Q766.04065 296.23544 765.8375 296.62607Q765.5563 297.15732 765.1813 297.3917Q764.8219 297.6417 764.3219 297.6417Q764.025 297.6417 763.65 297.50107ZM772.8375 295.11044L772.8375 286.5167L776.65 286.5167Q777.8063 286.5167 778.4 286.75107Q778.9938 286.98544 779.35315 287.5792Q779.7125 288.15732 779.7125 288.86044Q779.7125 289.78232 779.1188 290.40732Q778.525 291.03232 777.29065 291.2042Q777.7438 291.42294 777.97815 291.62607Q778.47815 292.0792 778.91565 292.7667L780.41565 295.11044L778.97815 295.11044L777.85315 293.3292Q777.35315 292.54794 777.025 292.1417Q776.7125 291.73544 776.4469 291.5792Q776.1969 291.40732 775.9313 291.3292Q775.7438 291.29794 775.3063 291.29794L773.97815 291.29794L773.97815 295.11044L772.8375 295.11044ZM773.97815 290.31357L776.4313 290.31357Q777.1969 290.31357 777.6344 290.15732Q778.0875 289.98544 778.3063 289.6417Q778.54065 289.28232 778.54065 288.86044Q778.54065 288.25107 778.0875 287.86044Q777.65 287.46982 776.6969 287.46982L773.97815 287.46982L773.97815 290.31357ZM781.6969 287.73544L781.6969 286.5167L782.7594 286.5167L782.7594 287.73544L781.6969 287.73544ZM781.6969 295.11044L781.6969 288.8917L782.7594 288.8917L782.7594 295.11044L781.6969 295.11044ZM784.4938 295.62607L785.525 295.78232Q785.5875 296.25107 785.8844 296.46982Q786.275 296.7667 786.9469 296.7667Q787.6813 296.7667 788.0719 296.46982Q788.47815 296.17294 788.6188 295.65732Q788.7125 295.3292 788.6969 294.29794Q788.0094 295.11044 786.97815 295.11044Q785.6969 295.11044 784.9938 294.18857Q784.29065 293.25107 784.29065 291.96982Q784.29065 291.0792 784.60315 290.3292Q784.9313 289.56357 785.54065 289.15732Q786.15 288.75107 786.97815 288.75107Q788.0875 288.75107 788.8063 289.6417L788.8063 288.8917L789.775 288.8917L789.775 294.2667Q789.775 295.71982 789.47815 296.3292Q789.1813 296.93857 788.54065 297.28232Q787.9 297.6417 786.9625 297.6417Q785.85315 297.6417 785.16565 297.1417Q784.47815 296.6417 784.4938 295.62607ZM785.3688 291.8917Q785.3688 293.11044 785.85315 293.67294Q786.3375 294.23544 787.0719 294.23544Q787.8063 294.23544 788.29065 293.67294Q788.79065 293.11044 788.79065 291.92294Q788.79065 290.78232 788.275 290.2042Q787.775 289.62607 787.0563 289.62607Q786.35315 289.62607 785.85315 290.2042Q785.3688 290.7667 785.3688 291.8917ZM791.6969 295.11044L791.6969 286.5167L792.7438 286.5167L792.7438 289.59482Q793.47815 288.75107 794.60315 288.75107Q795.3063 288.75107 795.8063 289.03232Q796.3219 289.29794 796.54065 289.78232Q796.7594 290.25107 796.7594 291.17294L796.7594 295.11044L795.7125 295.11044L795.7125 291.17294Q795.7125 290.37607 795.3688 290.0167Q795.025 289.65732 794.4 289.65732Q793.9313 289.65732 793.5094 289.90732Q793.10315 290.1417 792.91565 290.56357Q792.7438 290.96982 792.7438 291.7042L792.7438 295.11044L791.6969 295.11044ZM800.9938 294.17294L801.15 295.09482Q800.6969 295.18857 800.35315 295.18857Q799.775 295.18857 799.4625 295.0167Q799.15 294.8292 799.0094 294.53232Q798.8844 294.23544 798.8844 293.28232L798.8844 289.7042L798.1188 289.7042L798.1188 288.8917L798.8844 288.8917L798.8844 287.34482L799.9313 286.71982L799.9313 288.8917L800.9938 288.8917L800.9938 289.7042L799.9313 289.7042L799.9313 293.34482Q799.9313 293.79794 799.97815 293.92294Q800.04065 294.04794 800.16565 294.12607Q800.29065 294.2042 800.525 294.2042Q800.7125 294.2042 800.9938 294.17294ZM801.275 293.25107L802.3063 293.09482Q802.4 293.71982 802.79065 294.04794Q803.1969 294.37607 803.9313 294.37607Q804.65 294.37607 804.9938 294.09482Q805.35315 293.79794 805.35315 293.3917Q805.35315 293.03232 805.04065 292.8292Q804.8219 292.68857 803.9625 292.46982Q802.8063 292.17294 802.35315 291.96982Q801.91565 291.75107 801.6813 291.37607Q801.4469 291.00107 801.4469 290.53232Q801.4469 290.12607 801.6344 289.7667Q801.8219 289.40732 802.15 289.17294Q802.4 289.00107 802.8219 288.87607Q803.2438 288.75107 803.7438 288.75107Q804.4625 288.75107 805.0094 288.96982Q805.5719 289.17294 805.8375 289.53232Q806.10315 289.8917 806.1969 290.48544L805.16565 290.62607Q805.10315 290.15732 804.7594 289.8917Q804.4313 289.61044 803.8063 289.61044Q803.0875 289.61044 802.775 289.86044Q802.4625 290.09482 802.4625 290.42294Q802.4625 290.62607 802.5875 290.78232Q802.72815 290.9542 802.9938 291.06357Q803.15 291.12607 803.9313 291.3292Q805.0563 291.6417 805.4938 291.8292Q805.9313 292.0167 806.1813 292.37607Q806.4313 292.73544 806.4313 293.28232Q806.4313 293.81357 806.1188 294.28232Q805.8219 294.73544 805.2438 295.00107Q804.66565 295.25107 803.9313 295.25107Q802.7125 295.25107 802.0719 294.75107Q801.4469 294.23544 801.275 293.25107Z" fill-rule="nonzero"/><path fill="#9e9e9e" d="M777.9469 311.09482L777.9469 312.11044L772.2594 312.11044Q772.2594 311.73544 772.3844 311.37607Q772.60315 310.79794 773.0719 310.23544Q773.5563 309.67294 774.4625 308.93857Q775.8688 307.78232 776.35315 307.11044Q776.85315 306.43857 776.85315 305.84482Q776.85315 305.21982 776.4 304.79794Q775.9469 304.36044 775.22815 304.36044Q774.4625 304.36044 774.0094 304.81357Q773.5563 305.2667 773.54065 306.0792L772.4625 305.96982Q772.5719 304.75107 773.29065 304.12607Q774.025 303.48544 775.2594 303.48544Q776.4938 303.48544 777.2125 304.17294Q777.9313 304.86044 777.9313 305.87607Q777.9313 306.3917 777.7125 306.8917Q777.5094 307.37607 777.0094 307.93857Q776.525 308.48544 775.4 309.43857Q774.4469 310.23544 774.16565 310.53232Q773.9 310.81357 773.72815 311.09482L777.9469 311.09482ZM779.4 309.86044L780.5094 309.7667Q780.6344 310.5792 781.0719 310.98544Q781.525 311.3917 782.16565 311.3917Q782.91565 311.3917 783.4469 310.81357Q783.97815 310.23544 783.97815 309.29794Q783.97815 308.3917 783.4625 307.87607Q782.9625 307.34482 782.1344 307.34482Q781.6344 307.34482 781.2125 307.5792Q780.8063 307.81357 780.5719 308.17294L779.5875 308.04794L780.41565 303.6417L784.6969 303.6417L784.6969 304.6417L781.2594 304.6417L780.8063 306.9542Q781.5719 306.40732 782.41565 306.40732Q783.54065 306.40732 784.3063 307.18857Q785.0875 307.96982 785.0875 309.2042Q785.0875 310.36044 784.41565 311.21982Q783.5875 312.25107 782.16565 312.25107Q780.9938 312.25107 780.2438 311.59482Q779.5094 310.93857 779.4 309.86044ZM786.9938 312.11044L786.9938 310.90732L788.1969 310.90732L788.1969 312.11044L786.9938 312.11044ZM789.4 307.87607Q789.4 306.34482 789.7125 305.42294Q790.025 304.48544 790.6344 303.98544Q791.2594 303.48544 792.1969 303.48544Q792.8844 303.48544 793.4 303.7667Q793.9313 304.04794 794.275 304.5792Q794.6188 305.09482 794.8063 305.84482Q794.9938 306.59482 794.9938 307.87607Q794.9938 309.3917 794.6813 310.31357Q794.3844 311.23544 793.7594 311.75107Q793.15 312.25107 792.1969 312.25107Q790.9625 312.25107 790.2438 311.36044Q789.4 310.29794 789.4 307.87607ZM790.47815 307.87607Q790.47815 309.98544 790.97815 310.68857Q791.47815 311.3917 792.1969 311.3917Q792.9313 311.3917 793.41565 310.68857Q793.91565 309.98544 793.91565 307.87607Q793.91565 305.75107 793.41565 305.06357Q792.9313 304.36044 792.1813 304.36044Q791.4625 304.36044 791.025 304.96982Q790.47815 305.75107 790.47815 307.87607ZM796.60315 305.5792Q796.60315 304.65732 797.0563 304.0167Q797.525 303.37607 798.4 303.37607Q799.2125 303.37607 799.7438 303.9542Q800.275 304.53232 800.275 305.6417Q800.275 306.73544 799.72815 307.3292Q799.1969 307.90732 798.41565 307.90732Q797.6344 307.90732 797.1188 307.3292Q796.60315 306.75107 796.60315 305.5792ZM798.4313 304.09482Q798.04065 304.09482 797.775 304.43857Q797.525 304.78232 797.525 305.68857Q797.525 306.5167 797.775 306.86044Q798.04065 307.18857 798.4313 307.18857Q798.8375 307.18857 799.0875 306.84482Q799.35315 306.50107 799.35315 305.61044Q799.35315 304.7667 799.0875 304.43857Q798.8219 304.09482 798.4313 304.09482ZM798.4313 312.42294L803.1344 303.37607L803.9938 303.37607L799.3063 312.42294L798.4313 312.42294ZM802.15 310.09482Q802.15 309.17294 802.60315 308.53232Q803.0719 307.8917 803.9625 307.8917Q804.775 307.8917 805.3063 308.46982Q805.8375 309.03232 805.8375 310.15732Q805.8375 311.25107 805.29065 311.84482Q804.7594 312.42294 803.9625 312.42294Q803.1969 312.42294 802.66565 311.84482Q802.15 311.2667 802.15 310.09482ZM803.9938 308.61044Q803.5875 308.61044 803.3219 308.9542Q803.0719 309.29794 803.0719 310.2042Q803.0719 311.0167 803.3375 311.36044Q803.60315 311.7042 803.9938 311.7042Q804.3844 311.7042 804.65 311.36044Q804.91565 311.0167 804.91565 310.11044Q804.91565 309.28232 804.65 308.9542Q804.3844 308.61044 803.9938 308.61044Z" fill-rule="nonzero"/><path stroke="#757575" stroke-width="1.0" stroke-linecap="butt" d="M806.9 299.61044L619.4 299.61044L548.1114 299.61044" fill-rule="nonzero"/><path fill="#9e9e9e" d="M550.1114 299.61044C550.1114 298.5059 549.21594 297.61044 548.1114 297.61044C547.0068 297.61044 546.1114 298.5059 546.1114 299.61044C546.1114 300.71503 547.0068 301.61044 548.1114 301.61044C549.21594 301.61044 550.1114 300.71503 550.1114 299.61044" fill-rule="nonzero"/></svg>