<svg version="1.1" viewBox="0.0 0.0 759.0 569.0" fill="none" stroke="none" stroke-linecap="square" stroke-miterlimit="10" width="759" height="569" xmlns:xlink="http://www.w3.org/1999/xlink" xmlns="http://www.w3.org/2000/svg"><path fill="#ffffff" fill-opacity="0.0" d="M0 0L759.0 0L759.0 569.0L0 569.0L0 0Z" fill-rule="nonzero"/><path fill="#003044" d="M616.56665 321.26334C616.56665 412.91315 510.4283 487.21 379.5 487.21L379.5 451.65C510.4283 451.65 616.56665 377.35315 616.56665 285.70334Z" fill-rule="nonzero"/><path fill="#003044" d="M379.5 202.73C444.96414 202.73 498.03333 239.87843 498.03333 285.70334L498.03333 321.26334C498.03333 275.43842 444.96414 238.29 379.5 238.29Z" fill-rule="nonzero"/><path fill="#004561" d="M379.5 119.75667C510.4283 119.75667 616.56665 194.05351 616.56665 285.70334C616.56665 377.35315 510.4283 451.65 379.5 451.65L379.5 368.67667C444.96414 368.67667 498.03333 331.52823 498.03333 285.70334C498.03333 239.87843 444.96414 202.73 379.5 202.73Z" fill-rule="nonzero"/><path fill="#3e6679" d="M379.5 487.21C248.5717 487.21 142.43333 412.91315 142.43333 321.26334L142.43333 285.70334C142.43333 377.35315 248.5717 451.65 379.5 451.65Z" fill-rule="nonzero"/><path fill="#3e6679" d="M260.96667 285.70334C260.96667 239.87843 314.03586 202.73 379.5 202.73L379.5 238.29C314.03586 238.29 260.96667 275.43842 260.96667 321.26334Z" fill-rule="nonzero"/><path fill="#5891ad" d="M379.5 451.65C248.5717 451.65 142.43333 377.35315 142.43333 285.70334C142.43333 194.05351 248.5717 119.75667 379.5 119.75667L379.5 202.73C314.03586 202.73 260.96667 239.87843 260.96667 285.70334C260.96667 331.52823 314.03586 368.67667 379.5 368.67667Z" fill-rule="nonzero"/><path fill="#ffffff" d="M531.19775 289.01584L533.9321 288.7346Q534.0415 289.6721 534.6196 290.21896Q535.19775 290.7502 535.94775 290.7502Q536.8071 290.7502 537.4009 290.0627Q538.01025 289.3596 538.01025 287.95334Q538.01025 286.6252 537.4165 285.96896Q536.82275 285.3127 535.8696 285.3127Q534.69775 285.3127 533.76025 286.3596L531.5259 286.03146L532.9321 278.57834L540.19775 278.57834L540.19775 281.15646L535.01025 281.15646L534.5884 283.57834Q535.51025 283.1252 536.4634 283.1252Q538.2915 283.1252 539.5571 284.45334Q540.82275 285.78146 540.82275 287.89084Q540.82275 289.6721 539.8071 291.0471Q538.4009 292.95334 535.9165 292.95334Q533.94775 292.95334 532.69775 291.89084Q531.44775 290.8127 531.19775 289.01584ZM546.7915 278.32834Q548.8696 278.32834 550.0415 279.8127Q551.44775 281.5627 551.44775 285.64084Q551.44775 289.70334 550.0415 291.4846Q548.8696 292.95334 546.7915 292.95334Q544.7134 292.95334 543.4321 291.34396Q542.1509 289.7346 542.1509 285.6096Q542.1509 281.5627 543.5571 279.7971Q544.7134 278.32834 546.7915 278.32834ZM546.7915 280.6096Q546.2915 280.6096 545.9009 280.9221Q545.51025 281.2346 545.3071 282.0627Q545.0259 283.1252 545.0259 285.64084Q545.0259 288.15646 545.2759 289.1096Q545.5259 290.0471 545.9009 290.3596Q546.2915 290.6721 546.7915 290.6721Q547.2915 290.6721 547.6821 290.3596Q548.07275 290.03146 548.2915 289.21896Q548.57275 288.15646 548.57275 285.64084Q548.57275 283.1252 548.32275 282.1877Q548.07275 281.2346 547.6821 280.9221Q547.2915 280.6096 546.7915 280.6096ZM553.7446 292.70334L553.7446 289.95334L556.4946 289.95334L556.4946 292.70334L553.7446 292.70334ZM563.7915 278.32834Q565.8696 278.32834 567.0415 279.8127Q568.44775 281.5627 568.44775 285.64084Q568.44775 289.70334 567.0415 291.4846Q565.8696 292.95334 563.7915 292.95334Q561.7134 292.95334 560.4321 291.34396Q559.1509 289.7346 559.1509 285.6096Q559.1509 281.5627 560.5571 279.7971Q561.7134 278.32834 563.7915 278.32834ZM563.7915 280.6096Q563.2915 280.6096 562.9009 280.9221Q562.51025 281.2346 562.3071 282.0627Q562.0259 283.1252 562.0259 285.64084Q562.0259 288.15646 562.2759 289.1096Q562.5259 290.0471 562.9009 290.3596Q563.2915 290.6721 563.7915 290.6721Q564.2915 290.6721 564.6821 290.3596Q565.07275 290.03146 565.2915 289.21896Q565.57275 288.15646 565.57275 285.64084Q565.57275 283.1252 565.32275 282.1877Q565.07275 281.2346 564.6821 280.9221Q564.2915 280.6096 563.7915 280.6096ZM570.1821 281.9221Q570.1821 280.0002 571.0259 279.07834Q571.8696 278.14084 573.3071 278.14084Q574.8071 278.14084 575.6509 279.0627Q576.4946 279.9846 576.4946 281.9221Q576.4946 283.84396 575.6509 284.78146Q574.8071 285.70334 573.354 285.70334Q571.8696 285.70334 571.0259 284.78146Q570.1821 283.8596 570.1821 281.9221ZM572.32275 281.90646Q572.32275 283.2971 572.63525 283.78146Q572.88525 284.1252 573.3071 284.1252Q573.7446 284.1252 573.9946 283.78146Q574.3071 283.2971 574.3071 281.90646Q574.3071 280.5002 573.9946 280.03146Q573.7446 279.6721 573.3071 279.6721Q572.88525 279.6721 572.63525 280.03146Q572.32275 280.5002 572.32275 281.90646ZM575.4009 293.2502L573.3696 293.2502L580.9946 278.14084L582.9634 278.14084L575.4009 293.2502ZM579.8384 289.4846Q579.8384 287.5627 580.6821 286.64084Q581.5259 285.70334 582.9946 285.70334Q584.4634 285.70334 585.3071 286.64084Q586.1509 287.5627 586.1509 289.4846Q586.1509 291.4221 585.3071 292.3596Q584.4634 293.28146 583.0259 293.28146Q581.5259 293.28146 580.6821 292.3596Q579.8384 291.4221 579.8384 289.4846ZM581.979 289.4846Q581.979 290.8752 582.2915 291.34396Q582.5415 291.70334 582.9634 291.70334Q583.4165 291.70334 583.6509 291.3596Q583.9634 290.8752 583.9634 289.4846Q583.9634 288.07834 583.6509 287.6096Q583.4165 287.2502 582.9634 287.2502Q582.5259 287.2502 582.2915 287.6096Q581.979 288.07834 581.979 289.4846Z" fill-rule="nonzero"/><path fill="#ffffff" d="M172.58351 289.01584L175.31789 288.7346Q175.42726 289.6721 176.00539 290.21896Q176.58351 290.7502 177.33351 290.7502Q178.19289 290.7502 178.78664 290.0627Q179.39601 289.3596 179.39601 287.95334Q179.39601 286.6252 178.80226 285.96896Q178.20851 285.3127 177.25539 285.3127Q176.08351 285.3127 175.14601 286.3596L172.91164 286.03146L174.31789 278.57834L181.58351 278.57834L181.58351 281.15646L176.39601 281.15646L175.97414 283.57834Q176.89601 283.1252 177.84914 283.1252Q179.67726 283.1252 180.94289 284.45334Q182.20851 285.78146 182.20851 287.89084Q182.20851 289.6721 181.19289 291.0471Q179.78664 292.95334 177.30226 292.95334Q175.33351 292.95334 174.08351 291.89084Q172.83351 290.8127 172.58351 289.01584ZM188.17726 278.32834Q190.25539 278.32834 191.42726 279.8127Q192.83351 281.5627 192.83351 285.64084Q192.83351 289.70334 191.42726 291.4846Q190.25539 292.95334 188.17726 292.95334Q186.09914 292.95334 184.81789 291.34396Q183.53664 289.7346 183.53664 285.6096Q183.53664 281.5627 184.94289 279.7971Q186.09914 278.32834 188.17726 278.32834ZM188.17726 280.6096Q187.67726 280.6096 187.28664 280.9221Q186.89601 281.2346 186.69289 282.0627Q186.41164 283.1252 186.41164 285.64084Q186.41164 288.15646 186.66164 289.1096Q186.91164 290.0471 187.28664 290.3596Q187.67726 290.6721 188.17726 290.6721Q188.67726 290.6721 189.06789 290.3596Q189.45851 290.03146 189.67726 289.21896Q189.95851 288.15646 189.95851 285.64084Q189.95851 283.1252 189.70851 282.1877Q189.45851 281.2346 189.06789 280.9221Q188.67726 280.6096 188.17726 280.6096ZM195.13039 292.70334L195.13039 289.95334L197.88039 289.95334L197.88039 292.70334L195.13039 292.70334ZM205.17726 278.32834Q207.25539 278.32834 208.42726 279.8127Q209.83351 281.5627 209.83351 285.64084Q209.83351 289.70334 208.42726 291.4846Q207.25539 292.95334 205.17726 292.95334Q203.09914 292.95334 201.81789 291.34396Q200.53664 289.7346 200.53664 285.6096Q200.53664 281.5627 201.94289 279.7971Q203.09914 278.32834 205.17726 278.32834ZM205.17726 280.6096Q204.67726 280.6096 204.28664 280.9221Q203.89601 281.2346 203.69289 282.0627Q203.41164 283.1252 203.41164 285.64084Q203.41164 288.15646 203.66164 289.1096Q203.91164 290.0471 204.28664 290.3596Q204.67726 290.6721 205.17726 290.6721Q205.67726 290.6721 206.06789 290.3596Q206.45851 290.03146 206.67726 289.21896Q206.95851 288.15646 206.95851 285.64084Q206.95851 283.1252 206.70851 282.1877Q206.45851 281.2346 206.06789 280.9221Q205.67726 280.6096 205.17726 280.6096ZM211.56789 281.9221Q211.56789 280.0002 212.41164 279.07834Q213.25539 278.14084 214.69289 278.14084Q216.19289 278.14084 217.03664 279.0627Q217.88039 279.9846 217.88039 281.9221Q217.88039 283.84396 217.03664 284.78146Q216.19289 285.70334 214.73976 285.70334Q213.25539 285.70334 212.41164 284.78146Q211.56789 283.8596 211.56789 281.9221ZM213.70851 281.90646Q213.70851 283.2971 214.02101 283.78146Q214.27101 284.1252 214.69289 284.1252Q215.13039 284.1252 215.38039 283.78146Q215.69289 283.2971 215.69289 281.90646Q215.69289 280.5002 215.38039 280.03146Q215.13039 279.6721 214.69289 279.6721Q214.27101 279.6721 214.02101 280.03146Q213.70851 280.5002 213.70851 281.90646ZM216.78664 293.2502L214.75539 293.2502L222.38039 278.14084L224.34914 278.14084L216.78664 293.2502ZM221.22414 289.4846Q221.22414 287.5627 222.06789 286.64084Q222.91164 285.70334 224.38039 285.70334Q225.84914 285.70334 226.69289 286.64084Q227.53664 287.5627 227.53664 289.4846Q227.53664 291.4221 226.69289 292.3596Q225.84914 293.28146 224.41164 293.28146Q222.91164 293.28146 222.06789 292.3596Q221.22414 291.4221 221.22414 289.4846ZM223.36476 289.4846Q223.36476 290.8752 223.67726 291.34396Q223.92726 291.70334 224.34914 291.70334Q224.80226 291.70334 225.03664 291.3596Q225.34914 290.8752 225.34914 289.4846Q225.34914 288.07834 225.03664 287.6096Q224.80226 287.2502 224.34914 287.2502Q223.91164 287.2502 223.67726 287.6096Q223.36476 288.07834 223.36476 289.4846Z" fill-rule="nonzero"/><path fill="#004561" d="M60.5 37.95C60.5 41.26371 57.81371 43.95 54.5 43.95C51.18629 43.95 48.5 41.26371 48.5 37.95C48.5 34.63629 51.18629 31.95 54.5 31.95C57.81371 31.95 60.5 34.63629 60.5 37.95Z" fill-rule="nonzero"/><path fill="#1a1a1a" d="M69.125 43.45L71.53125 31.996876L79.546875 31.996876L79.140625 33.903126L73.484375 33.903126L72.90625 36.653126L78.453125 36.653126L78.046875 38.575L72.5 38.575L71.484375 43.45L69.125 43.45ZM81.53125 31.996876L83.78125 31.996876L83.359375 34.028126L81.109375 34.028126L81.53125 31.996876ZM80.875 35.153126L83.125 35.153126L81.390625 43.45L79.140625 43.45L80.875 35.153126ZM90.8125 43.45L88.6875 43.45L88.875 42.54375Q88.265625 43.1375 87.671875 43.403126Q87.078125 43.653126 86.34375 43.653126Q85.046875 43.653126 84.25 42.778126Q83.453125 41.8875 83.453125 40.16875Q83.453125 38.16875 84.578125 36.559376Q85.703125 34.95 87.546875 34.95Q89.21875 34.95 90.0625 36.278126L90.953125 31.996876L93.203125 31.996876L90.8125 43.45ZM85.625 40.075Q85.625 40.965626 86.078125 41.465626Q86.53125 41.965626 87.1875 41.965626Q87.796875 41.965626 88.3125 41.54375Q88.84375 41.121876 89.15625 40.2625Q89.484375 39.403126 89.484375 38.621876Q89.484375 37.715626 89.0 37.16875Q88.515625 36.60625 87.875 36.60625Q86.890625 36.60625 86.25 37.7Q85.625 38.79375 85.625 40.075ZM101.21875 39.996876L95.59375 39.996876Q95.59375 40.121876 95.59375 40.2Q95.59375 41.028126 96.0625 41.54375Q96.53125 42.04375 97.21875 42.04375Q98.328125 42.04375 98.953125 40.8875L100.96875 41.215626Q100.375 42.434376 99.390625 43.04375Q98.421875 43.653126 97.203125 43.653126Q95.53125 43.653126 94.484375 42.590626Q93.4375 41.528126 93.4375 39.778126Q93.4375 38.075 94.375 36.746876Q95.671875 34.95 98.0625 34.95Q99.578125 34.95 100.46875 35.903126Q101.375 36.840626 101.375 38.528126Q101.375 39.340626 101.21875 39.996876ZM99.328125 38.621876Q99.34375 38.48125 99.34375 38.403126Q99.34375 37.48125 98.921875 37.028126Q98.515625 36.559376 97.8125 36.559376Q97.125 36.559376 96.5625 37.090626Q96.015625 37.60625 95.828125 38.621876L99.328125 38.621876ZM102.125 43.45L104.53125 31.996876L106.765625 31.996876L104.375 43.45L102.125 43.45ZM108.53125 31.996876L110.78125 31.996876L110.359375 34.028126L108.109375 34.028126L108.53125 31.996876ZM107.875 35.153126L110.125 35.153126L108.390625 43.45L106.140625 43.45L107.875 35.153126ZM110.703125 36.809376L111.046875 35.153126L112.140625 35.153126L112.421875 33.825L114.984375 32.278126L114.390625 35.153126L115.75 35.153126L115.40625 36.809376L114.03125 36.809376L113.3125 40.29375Q113.109375 41.23125 113.109375 41.371876Q113.109375 41.621876 113.265625 41.778126Q113.4375 41.91875 113.875 41.91875Q114.015625 41.91875 114.609375 41.85625L114.265625 43.528126Q113.6875 43.653126 113.078125 43.653126Q111.890625 43.653126 111.34375 43.2Q110.8125 42.73125 110.8125 41.91875Q110.8125 41.528126 111.09375 40.153126L111.796875 36.809376L110.703125 36.809376ZM115.84375 35.153126L118.078125 35.153126L118.640625 39.278126Q118.84375 40.871876 118.875 41.5125Q119.3125 40.246876 120.078125 38.825L122.0625 35.153126L124.4375 35.153126L119.3125 44.2625Q118.671875 45.403126 118.3125 45.85625Q117.953125 46.309376 117.4375 46.559376Q116.921875 46.825 116.203125 46.825Q115.5 46.825 114.609375 46.575L114.796875 44.903126Q115.203125 45.0125 115.59375 45.0125Q116.625 45.0125 117.28125 43.45L115.84375 35.153126ZM130.1875 31.7625Q131.71875 31.7625 133.125 32.528126Q134.54688 33.29375 135.35938 34.73125Q136.17188 36.16875 136.17188 37.746876Q136.17188 39.309376 135.375 40.73125Q134.57812 42.1375 133.15625 42.934376Q131.75 43.73125 130.1875 43.73125Q128.625 43.73125 127.203125 42.934376Q125.78125 42.1375 124.984375 40.73125Q124.203125 39.309376 124.203125 37.746876Q124.203125 36.16875 125.0 34.73125Q125.8125 33.29375 127.21875 32.528126Q128.64062 31.7625 130.1875 31.7625ZM130.1875 32.934376Q128.95312 32.934376 127.8125 33.559376Q126.6875 34.16875 126.03125 35.325Q125.390625 36.48125 125.390625 37.746876Q125.390625 38.996876 126.015625 40.1375Q126.65625 41.278126 127.796875 41.91875Q128.9375 42.559376 130.1875 42.559376Q131.45312 42.559376 132.57812 41.91875Q133.71875 41.278126 134.35938 40.1375Q135.0 38.996876 135.0 37.746876Q135.0 36.48125 134.34375 35.325Q133.70312 34.16875 132.5625 33.559376Q131.42188 32.934376 130.1875 32.934376ZM127.484375 40.95L127.484375 34.590626L128.76562 34.590626Q130.57812 34.590626 130.79688 34.60625Q131.4375 34.66875 131.79688 34.871876Q132.15625 35.059376 132.39062 35.48125Q132.625 35.8875 132.625 36.3875Q132.625 37.075 132.17188 37.559376Q131.73438 38.04375 130.92188 38.16875Q131.20312 38.278126 131.35938 38.403126Q131.51562 38.528126 131.79688 38.8875Q131.85938 38.98125 132.26562 39.66875L133.01562 40.95L131.42188 40.95L130.89062 39.91875Q130.34375 38.871876 129.98438 38.60625Q129.64062 38.340626 129.10938 38.340626L128.76562 38.340626L128.76562 40.95L127.484375 40.95ZM128.76562 37.340626L129.29688 37.340626Q130.40625 37.340626 130.67188 37.2625Q130.95312 37.16875 131.10938 36.95Q131.26562 36.73125 131.26562 36.465626Q131.26562 36.2 131.10938 35.996876Q130.95312 35.778126 130.67188 35.7Q130.39062 35.60625 129.29688 35.60625L128.76562 35.60625L128.76562 37.340626ZM145.14062 43.45L142.78125 43.45L144.78125 33.903126L141.42188 33.903126L141.82812 31.996876L150.84375 31.996876L150.45312 33.903126L147.14062 33.903126L145.14062 43.45ZM150.46875 39.996876Q150.46875 37.7 151.76562 36.325Q153.07812 34.95 155.1875 34.95Q157.03125 34.95 158.0625 35.965626Q159.09375 36.98125 159.09375 38.684376Q159.09375 40.7 157.79688 42.184376Q156.51562 43.653126 154.34375 43.653126Q153.17188 43.653126 152.26562 43.184376Q151.35938 42.7 150.90625 41.840626Q150.46875 40.98125 150.46875 39.996876ZM156.85938 38.403126Q156.85938 37.60625 156.39062 37.121876Q155.9375 36.6375 155.20312 36.6375Q154.46875 36.6375 153.90625 37.090626Q153.34375 37.54375 153.03125 38.403126Q152.71875 39.246876 152.71875 39.965626Q152.71875 40.85625 153.20312 41.3875Q153.6875 41.903126 154.42188 41.903126Q155.34375 41.903126 155.96875 41.121876Q156.85938 39.996876 156.85938 38.403126ZM160.70312 36.809376L161.04688 35.153126L162.14062 35.153126L162.42188 33.825L164.98438 32.278126L164.39062 35.153126L165.75 35.153126L165.40625 36.809376L164.03125 36.809376L163.3125 40.29375Q163.10938 41.23125 163.10938 41.371876Q163.10938 41.621876 163.26562 41.778126Q163.4375 41.91875 163.875 41.91875Q164.01562 41.91875 164.60938 41.85625L164.26562 43.528126Q163.6875 43.653126 163.07812 43.653126Q161.89062 43.653126 161.34375 43.2Q160.8125 42.73125 160.8125 41.91875Q160.8125 41.528126 161.09375 40.153126L161.79688 36.809376L160.70312 36.809376ZM168.3125 37.496876L166.125 37.309376Q166.5 36.2 167.42188 35.575Q168.35938 34.95 169.90625 34.95Q171.5 34.95 172.26562 35.60625Q173.03125 36.246876 173.03125 37.16875Q173.03125 37.54375 172.96875 37.965626Q172.90625 38.3875 172.5 40.184376Q172.17188 41.66875 172.17188 42.2625Q172.17188 42.79375 172.35938 43.45L170.1875 43.45Q170.04688 42.996876 170.01562 42.5125Q169.53125 43.059376 168.89062 43.35625Q168.25 43.653126 167.59375 43.653126Q166.5625 43.653126 165.89062 42.98125Q165.21875 42.29375 165.21875 41.23125Q165.21875 40.04375 165.95312 39.340626Q166.70312 38.621876 168.59375 38.465626Q170.20312 38.340626 170.73438 38.153126Q170.875 37.684376 170.875 37.403126Q170.875 37.04375 170.57812 36.809376Q170.29688 36.559376 169.73438 36.559376Q169.125 36.559376 168.78125 36.809376Q168.4375 37.04375 168.3125 37.496876ZM170.4375 39.575Q170.23438 39.6375 169.90625 39.684376Q168.21875 39.8875 167.70312 40.278126Q167.32812 40.559376 167.32812 41.028126Q167.32812 41.41875 167.60938 41.7Q167.89062 41.965626 168.35938 41.965626Q168.85938 41.965626 169.3125 41.715626Q169.76562 41.465626 169.98438 41.090626Q170.20312 40.7 170.375 39.871876L170.4375 39.575ZM174.125 43.45L176.53125 31.996876L178.76562 31.996876L176.375 43.45L174.125 43.45ZM188.75 43.45L186.51562 43.45L186.09375 33.871876L184.28125 43.45L182.15625 43.45L184.54688 31.996876L187.90625 31.996876L188.25 40.0125L192.15625 31.996876L195.5625 31.996876L193.15625 43.45L191.01562 43.45L193.26562 33.95L188.75 43.45ZM198.3125 37.496876L196.125 37.309376Q196.5 36.2 197.42188 35.575Q198.35938 34.95 199.90625 34.95Q201.5 34.95 202.26562 35.60625Q203.03125 36.246876 203.03125 37.16875Q203.03125 37.54375 202.96875 37.965626Q202.90625 38.3875 202.5 40.184376Q202.17188 41.66875 202.17188 42.2625Q202.17188 42.79375 202.35938 43.45L200.1875 43.45Q200.04688 42.996876 200.01562 42.5125Q199.53125 43.059376 198.89062 43.35625Q198.25 43.653126 197.59375 43.653126Q196.5625 43.653126 195.89062 42.98125Q195.21875 42.29375 195.21875 41.23125Q195.21875 40.04375 195.95312 39.340626Q196.70312 38.621876 198.59375 38.465626Q200.20312 38.340626 200.73438 38.153126Q200.875 37.684376 200.875 37.403126Q200.875 37.04375 200.57812 36.809376Q200.29688 36.559376 199.73438 36.559376Q199.125 36.559376 198.78125 36.809376Q198.4375 37.04375 198.3125 37.496876ZM200.4375 39.575Q200.23438 39.6375 199.90625 39.684376Q198.21875 39.8875 197.70312 40.278126Q197.32812 40.559376 197.32812 41.028126Q197.32812 41.41875 197.60938 41.7Q197.89062 41.965626 198.35938 41.965626Q198.85938 41.965626 199.3125 41.715626Q199.76562 41.465626 199.98438 41.090626Q200.20312 40.7 200.375 39.871876L200.4375 39.575ZM205.75 35.153126L207.84375 35.153126L207.51562 36.7625Q208.6875 34.95 210.04688 34.95Q210.53125 34.95 211.09375 35.2L210.23438 37.028126Q209.92188 36.91875 209.57812 36.91875Q209.0 36.91875 208.40625 37.35625Q207.8125 37.79375 207.46875 38.528126Q207.14062 39.2625 206.8125 40.840626L206.26562 43.45L204.01562 43.45L205.75 35.153126ZM210.10938 43.45L212.5 31.996876L214.75 31.996876L213.5 37.95L216.42188 35.153126L219.32812 35.153126L216.0 38.16875L217.76562 43.45L215.53125 43.45L214.39062 39.60625L212.875 40.95L212.34375 43.45L210.10938 43.45ZM227.21875 39.996876L221.59375 39.996876Q221.59375 40.121876 221.59375 40.2Q221.59375 41.028126 222.0625 41.54375Q222.53125 42.04375 223.21875 42.04375Q224.32812 42.04375 224.95312 40.8875L226.96875 41.215626Q226.375 42.434376 225.39062 43.04375Q224.42188 43.653126 223.20312 43.653126Q221.53125 43.653126 220.48438 42.590626Q219.4375 41.528126 219.4375 39.778126Q219.4375 38.075 220.375 36.746876Q221.67188 34.95 224.0625 34.95Q225.57812 34.95 226.46875 35.903126Q227.375 36.840626 227.375 38.528126Q227.375 39.340626 227.21875 39.996876ZM225.32812 38.621876Q225.34375 38.48125 225.34375 38.403126Q225.34375 37.48125 224.92188 37.028126Q224.51562 36.559376 223.8125 36.559376Q223.125 36.559376 222.5625 37.090626Q222.01562 37.60625 221.82812 38.621876L225.32812 38.621876ZM228.70312 36.809376L229.04688 35.153126L230.14062 35.153126L230.42188 33.825L232.98438 32.278126L232.39062 35.153126L233.75 35.153126L233.40625 36.809376L232.03125 36.809376L231.3125 40.29375Q231.10938 41.23125 231.10938 41.371876Q231.10938 41.621876 231.26562 41.778126Q231.4375 41.91875 231.875 41.91875Q232.01562 41.91875 232.60938 41.85625L232.26562 43.528126Q231.6875 43.653126 231.07812 43.653126Q229.89062 43.653126 229.34375 43.2Q228.8125 42.73125 228.8125 41.91875Q228.8125 41.528126 229.09375 40.153126L229.79688 36.809376L228.70312 36.809376ZM237.0625 43.45L239.45312 31.996876L241.8125 31.996876L239.42188 43.45L237.0625 43.45ZM242.90625 35.153126L245.03125 35.153126L244.8125 36.23125Q245.60938 35.54375 246.29688 35.246876Q247.0 34.95 247.76562 34.95Q248.78125 34.95 249.375 35.54375Q249.96875 36.121876 249.96875 37.090626Q249.96875 37.528126 249.70312 38.746876L248.73438 43.45L246.48438 43.45L247.46875 38.73125Q247.6875 37.684376 247.6875 37.48125Q247.6875 37.04375 247.4375 36.809376Q247.1875 36.559376 246.73438 36.559376Q246.23438 36.559376 245.625 36.98125Q245.03125 37.3875 244.6875 38.059376Q244.4375 38.54375 244.125 40.04375L243.42188 43.45L241.17188 43.45L242.90625 35.153126ZM258.8125 43.45L256.6875 43.45L256.875 42.54375Q256.26562 43.1375 255.67188 43.403126Q255.07812 43.653126 254.34375 43.653126Q253.04688 43.653126 252.25 42.778126Q251.45312 41.8875 251.45312 40.16875Q251.45312 38.16875 252.57812 36.559376Q253.70312 34.95 255.54688 34.95Q257.21875 34.95 258.0625 36.278126L258.95312 31.996876L261.20312 31.996876L258.8125 43.45ZM253.625 40.075Q253.625 40.965626 254.07812 41.465626Q254.53125 41.965626 255.1875 41.965626Q255.79688 41.965626 256.3125 41.54375Q256.84375 41.121876 257.15625 40.2625Q257.48438 39.403126 257.48438 38.621876Q257.48438 37.715626 257.0 37.16875Q256.51562 36.60625 255.875 36.60625Q254.89062 36.60625 254.25 37.7Q253.625 38.79375 253.625 40.075ZM269.21875 39.996876L263.59375 39.996876Q263.59375 40.121876 263.59375 40.2Q263.59375 41.028126 264.0625 41.54375Q264.53125 42.04375 265.21875 42.04375Q266.32812 42.04375 266.95312 40.8875L268.96875 41.215626Q268.375 42.434376 267.39062 43.04375Q266.42188 43.653126 265.20312 43.653126Q263.53125 43.653126 262.48438 42.590626Q261.4375 41.528126 261.4375 39.778126Q261.4375 38.075 262.375 36.746876Q263.67188 34.95 266.0625 34.95Q267.57812 34.95 268.46875 35.903126Q269.375 36.840626 269.375 38.528126Q269.375 39.340626 269.21875 39.996876ZM267.32812 38.621876Q267.34375 38.48125 267.34375 38.403126Q267.34375 37.48125 266.92188 37.028126Q266.51562 36.559376 265.8125 36.559376Q265.125 36.559376 264.5625 37.090626Q264.01562 37.60625 263.82812 38.621876L267.32812 38.621876ZM273.96875 41.121876L271.90625 43.45L269.14062 43.45L272.98438 39.2L270.875 35.153126L273.26562 35.153126L274.46875 37.5125L276.57812 35.153126L279.29688 35.153126L275.45312 39.45L277.54688 43.45L275.15625 43.45L273.96875 41.121876ZM283.125 43.45L285.53125 31.996876L293.54688 31.996876L293.14062 33.903126L287.48438 33.903126L286.90625 36.653126L292.45312 36.653126L292.04688 38.575L286.5 38.575L285.48438 43.45L283.125 43.45ZM294.85938 35.153126L297.10938 35.153126L296.07812 40.059376Q295.89062 40.95 295.89062 41.16875Q295.89062 41.528126 296.15625 41.79375Q296.42188 42.04375 296.84375 42.04375Q297.14062 42.04375 297.42188 41.934376Q297.71875 41.809376 298.01562 41.590626Q298.32812 41.35625 298.5625 41.059376Q298.8125 40.7625 299.01562 40.278126Q299.17188 39.91875 299.34375 39.10625L300.17188 35.153126L302.40625 35.153126L300.67188 43.45L298.57812 43.45L298.8125 42.325Q297.4375 43.653126 295.82812 43.653126Q294.79688 43.653126 294.20312 43.059376Q293.625 42.465626 293.625 41.48125Q293.625 41.059376 293.89062 39.778126L294.85938 35.153126ZM304.90625 35.153126L307.03125 35.153126L306.8125 36.23125Q307.60938 35.54375 308.29688 35.246876Q309.0 34.95 309.76562 34.95Q310.78125 34.95 311.375 35.54375Q311.96875 36.121876 311.96875 37.090626Q311.96875 37.528126 311.70312 38.746876L310.73438 43.45L308.48438 43.45L309.46875 38.73125Q309.6875 37.684376 309.6875 37.48125Q309.6875 37.04375 309.4375 36.809376Q309.1875 36.559376 308.73438 36.559376Q308.23438 36.559376 307.625 36.98125Q307.03125 37.3875 306.6875 38.059376Q306.4375 38.54375 306.125 40.04375L305.42188 43.45L303.17188 43.45L304.90625 35.153126ZM320.8125 43.45L318.6875 43.45L318.875 42.54375Q318.26562 43.1375 317.67188 43.403126Q317.07812 43.653126 316.34375 43.653126Q315.04688 43.653126 314.25 42.778126Q313.45312 41.8875 313.45312 40.16875Q313.45312 38.16875 314.57812 36.559376Q315.70312 34.95 317.54688 34.95Q319.21875 34.95 320.0625 36.278126L320.95312 31.996876L323.20312 31.996876L320.8125 43.45ZM315.625 40.075Q315.625 40.965626 316.07812 41.465626Q316.53125 41.965626 317.1875 41.965626Q317.79688 41.965626 318.3125 41.54375Q318.84375 41.121876 319.15625 40.2625Q319.48438 39.403126 319.48438 38.621876Q319.48438 37.715626 319.0 37.16875Q318.51562 36.60625 317.875 36.60625Q316.89062 36.60625 316.25 37.7Q315.625 38.79375 315.625 40.075ZM330.34375 46.825L328.8125 46.825Q328.17188 45.325 327.85938 43.79375Q327.5625 42.2625 327.5625 40.996876Q327.5625 39.403126 328.0625 37.79375Q328.57812 36.184376 329.64062 34.528126Q330.29688 33.465626 331.76562 31.79375L333.46875 31.79375Q331.98438 33.54375 331.17188 35.090626Q330.35938 36.621876 329.95312 38.434376Q329.5625 40.246876 329.5625 41.98125Q329.5625 43.153126 329.73438 44.2625Q329.92188 45.3875 330.34375 46.825ZM332.51562 39.73125L334.76562 39.621876Q334.8125 40.684376 335.125 41.059376Q335.64062 41.66875 337.03125 41.66875Q338.1875 41.66875 338.70312 41.2625Q339.21875 40.840626 339.21875 40.2625Q339.21875 39.746876 338.79688 39.403126Q338.5 39.1375 337.17188 38.559376Q335.84375 37.98125 335.21875 37.60625Q334.60938 37.215626 334.25 36.60625Q333.90625 35.98125 333.90625 35.153126Q333.90625 33.7 334.95312 32.746876Q336.0 31.79375 337.98438 31.79375Q340.0 31.79375 341.10938 32.746876Q342.21875 33.684376 342.32812 35.2625L340.0625 35.35625Q339.98438 34.54375 339.46875 34.10625Q338.96875 33.66875 337.96875 33.66875Q337.0 33.66875 336.57812 34.0125Q336.15625 34.35625 336.15625 34.871876Q336.15625 35.371876 336.54688 35.684376Q336.92188 36.0125 338.23438 36.590626Q340.21875 37.434376 340.75 37.965626Q341.5625 38.746876 341.5625 39.98125Q341.5625 41.496876 340.35938 42.575Q339.15625 43.653126 337.01562 43.653126Q335.54688 43.653126 334.45312 43.153126Q333.375 42.653126 332.92188 41.778126Q332.48438 40.8875 332.51562 39.73125ZM343.70312 36.809376L344.04688 35.153126L345.14062 35.153126L345.42188 33.825L347.98438 32.278126L347.39062 35.153126L348.75 35.153126L348.40625 36.809376L347.03125 36.809376L346.3125 40.29375Q346.10938 41.23125 346.10938 41.371876Q346.10938 41.621876 346.26562 41.778126Q346.4375 41.91875 346.875 41.91875Q347.01562 41.91875 347.60938 41.85625L347.26562 43.528126Q346.6875 43.653126 346.07812 43.653126Q344.89062 43.653126 344.34375 43.2Q343.8125 42.73125 343.8125 41.91875Q343.8125 41.528126 344.09375 40.153126L344.79688 36.809376L343.70312 36.809376ZM348.46875 39.996876Q348.46875 37.7 349.76562 36.325Q351.07812 34.95 353.1875 34.95Q355.03125 34.95 356.0625 35.965626Q357.09375 36.98125 357.09375 38.684376Q357.09375 40.7 355.79688 42.184376Q354.51562 43.653126 352.34375 43.653126Q351.17188 43.653126 350.26562 43.184376Q349.35938 42.7 348.90625 41.840626Q348.46875 40.98125 348.46875 39.996876ZM354.85938 38.403126Q354.85938 37.60625 354.39062 37.121876Q353.9375 36.6375 353.20312 36.6375Q352.46875 36.6375 351.90625 37.090626Q351.34375 37.54375 351.03125 38.403126Q350.71875 39.246876 350.71875 39.965626Q350.71875 40.85625 351.20312 41.3875Q351.6875 41.903126 352.42188 41.903126Q353.34375 41.903126 353.96875 41.121876Q354.85938 39.996876 354.85938 38.403126ZM363.76562 40.325L365.95312 40.66875Q365.40625 42.121876 364.34375 42.8875Q363.29688 43.653126 361.90625 43.653126Q360.32812 43.653126 359.39062 42.7Q358.46875 41.746876 358.46875 40.090626Q358.46875 38.746876 359.03125 37.54375Q359.59375 36.340626 360.71875 35.653126Q361.85938 34.95 363.20312 34.95Q364.67188 34.95 365.54688 35.715626Q366.42188 36.48125 366.53125 37.73125L364.40625 37.965626Q364.32812 37.2625 363.96875 36.934376Q363.625 36.60625 363.0625 36.60625Q362.42188 36.60625 361.85938 37.090626Q361.29688 37.575 360.98438 38.54375Q360.6875 39.5125 360.6875 40.35625Q360.6875 41.090626 361.04688 41.496876Q361.40625 41.8875 361.95312 41.8875Q362.48438 41.8875 362.98438 41.496876Q363.48438 41.10625 363.76562 40.325ZM367.10938 43.45L369.5 31.996876L371.75 31.996876L370.5 37.95L373.42188 35.153126L376.32812 35.153126L373.0 38.16875L374.76562 43.45L372.53125 43.45L371.39062 39.60625L369.875 40.95L369.34375 43.45L367.10938 43.45ZM377.39062 31.79375L378.90625 31.79375Q379.54688 33.278126 379.85938 34.809376Q380.17188 36.340626 380.17188 37.60625Q380.17188 39.2 379.65625 40.809376Q379.14062 42.41875 378.09375 44.090626Q377.42188 45.153126 375.95312 46.825L374.25 46.825Q375.73438 45.075 376.54688 43.528126Q377.35938 41.996876 377.75 40.184376Q378.15625 38.371876 378.15625 36.621876Q378.15625 35.45 377.98438 34.340626Q377.8125 33.23125 377.39062 31.79375Z" fill-rule="nonzero"/><path fill="#5891ad" d="M408.5 37.95C408.5 41.26371 405.81372 43.95 402.5 43.95C399.18628 43.95 396.5 41.26371 396.5 37.95C396.5 34.63629 399.18628 31.95 402.5 31.95C405.81372 31.95 408.5 34.63629 408.5 37.95Z" fill-rule="nonzero"/><path fill="#1a1a1a" d="M417.125 43.45L419.53125 31.996876L427.54688 31.996876L427.14062 33.903126L421.48438 33.903126L420.90625 36.653126L426.45312 36.653126L426.04688 38.575L420.5 38.575L419.48438 43.45L417.125 43.45ZM429.53125 31.996876L431.78125 31.996876L431.35938 34.028126L429.10938 34.028126L429.53125 31.996876ZM428.875 35.153126L431.125 35.153126L429.39062 43.45L427.14062 43.45L428.875 35.153126ZM438.8125 43.45L436.6875 43.45L436.875 42.54375Q436.26562 43.1375 435.67188 43.403126Q435.07812 43.653126 434.34375 43.653126Q433.04688 43.653126 432.25 42.778126Q431.45312 41.8875 431.45312 40.16875Q431.45312 38.16875 432.57812 36.559376Q433.70312 34.95 435.54688 34.95Q437.21875 34.95 438.0625 36.278126L438.95312 31.996876L441.20312 31.996876L438.8125 43.45ZM433.625 40.075Q433.625 40.965626 434.07812 41.465626Q434.53125 41.965626 435.1875 41.965626Q435.79688 41.965626 436.3125 41.54375Q436.84375 41.121876 437.15625 40.2625Q437.48438 39.403126 437.48438 38.621876Q437.48438 37.715626 437.0 37.16875Q436.51562 36.60625 435.875 36.60625Q434.89062 36.60625 434.25 37.7Q433.625 38.79375 433.625 40.075ZM449.21875 39.996876L443.59375 39.996876Q443.59375 40.121876 443.59375 40.2Q443.59375 41.028126 444.0625 41.54375Q444.53125 42.04375 445.21875 42.04375Q446.32812 42.04375 446.95312 40.8875L448.96875 41.215626Q448.375 42.434376 447.39062 43.04375Q446.42188 43.653126 445.20312 43.653126Q443.53125 43.653126 442.48438 42.590626Q441.4375 41.528126 441.4375 39.778126Q441.4375 38.075 442.375 36.746876Q443.67188 34.95 446.0625 34.95Q447.57812 34.95 448.46875 35.903126Q449.375 36.840626 449.375 38.528126Q449.375 39.340626 449.21875 39.996876ZM447.32812 38.621876Q447.34375 38.48125 447.34375 38.403126Q447.34375 37.48125 446.92188 37.028126Q446.51562 36.559376 445.8125 36.559376Q445.125 36.559376 444.5625 37.090626Q444.01562 37.60625 443.82812 38.621876L447.32812 38.621876ZM450.125 43.45L452.53125 31.996876L454.76562 31.996876L452.375 43.45L450.125 43.45ZM456.53125 31.996876L458.78125 31.996876L458.35938 34.028126L456.10938 34.028126L456.53125 31.996876ZM455.875 35.153126L458.125 35.153126L456.39062 43.45L454.14062 43.45L455.875 35.153126ZM458.70312 36.809376L459.04688 35.153126L460.14062 35.153126L460.42188 33.825L462.98438 32.278126L462.39062 35.153126L463.75 35.153126L463.40625 36.809376L462.03125 36.809376L461.3125 40.29375Q461.10938 41.23125 461.10938 41.371876Q461.10938 41.621876 461.26562 41.778126Q461.4375 41.91875 461.875 41.91875Q462.01562 41.91875 462.60938 41.85625L462.26562 43.528126Q461.6875 43.653126 461.07812 43.653126Q459.89062 43.653126 459.34375 43.2Q458.8125 42.73125 458.8125 41.91875Q458.8125 41.528126 459.09375 40.153126L459.79688 36.809376L458.70312 36.809376ZM463.84375 35.153126L466.07812 35.153126L466.64062 39.278126Q466.84375 40.871876 466.875 41.5125Q467.3125 40.246876 468.07812 38.825L470.0625 35.153126L472.4375 35.153126L467.3125 44.2625Q466.67188 45.403126 466.3125 45.85625Q465.95312 46.309376 465.4375 46.559376Q464.92188 46.825 464.20312 46.825Q463.5 46.825 462.60938 46.575L462.79688 44.903126Q463.20312 45.0125 463.59375 45.0125Q464.625 45.0125 465.28125 43.45L463.84375 35.153126ZM478.1875 31.7625Q479.71875 31.7625 481.125 32.528126Q482.54688 33.29375 483.35938 34.73125Q484.17188 36.16875 484.17188 37.746876Q484.17188 39.309376 483.375 40.73125Q482.57812 42.1375 481.15625 42.934376Q479.75 43.73125 478.1875 43.73125Q476.625 43.73125 475.20312 42.934376Q473.78125 42.1375 472.98438 40.73125Q472.20312 39.309376 472.20312 37.746876Q472.20312 36.16875 473.0 34.73125Q473.8125 33.29375 475.21875 32.528126Q476.64062 31.7625 478.1875 31.7625ZM478.1875 32.934376Q476.95312 32.934376 475.8125 33.559376Q474.6875 34.16875 474.03125 35.325Q473.39062 36.48125 473.39062 37.746876Q473.39062 38.996876 474.01562 40.1375Q474.65625 41.278126 475.79688 41.91875Q476.9375 42.559376 478.1875 42.559376Q479.45312 42.559376 480.57812 41.91875Q481.71875 41.278126 482.35938 40.1375Q483.0 38.996876 483.0 37.746876Q483.0 36.48125 482.34375 35.325Q481.70312 34.16875 480.5625 33.559376Q479.42188 32.934376 478.1875 32.934376ZM475.48438 40.95L475.48438 34.590626L476.76562 34.590626Q478.57812 34.590626 478.79688 34.60625Q479.4375 34.66875 479.79688 34.871876Q480.15625 35.059376 480.39062 35.48125Q480.625 35.8875 480.625 36.3875Q480.625 37.075 480.17188 37.559376Q479.73438 38.04375 478.92188 38.16875Q479.20312 38.278126 479.35938 38.403126Q479.51562 38.528126 479.79688 38.8875Q479.85938 38.98125 480.26562 39.66875L481.01562 40.95L479.42188 40.95L478.89062 39.91875Q478.34375 38.871876 477.98438 38.60625Q477.64062 38.340626 477.10938 38.340626L476.76562 38.340626L476.76562 40.95L475.48438 40.95ZM476.76562 37.340626L477.29688 37.340626Q478.40625 37.340626 478.67188 37.2625Q478.95312 37.16875 479.10938 36.95Q479.26562 36.73125 479.26562 36.465626Q479.26562 36.2 479.10938 35.996876Q478.95312 35.778126 478.67188 35.7Q478.39062 35.60625 477.29688 35.60625L476.76562 35.60625L476.76562 37.340626ZM490.5625 31.996876L492.90625 31.996876L491.60938 38.215626L491.29688 39.746876Q491.26562 39.934376 491.26562 40.10625Q491.26562 40.79375 491.75 41.23125Q492.25 41.66875 493.20312 41.66875Q494.04688 41.66875 494.59375 41.35625Q495.15625 41.028126 495.45312 40.403126Q495.76562 39.7625 496.07812 38.246876L497.39062 31.996876L499.75 31.996876L498.4375 38.2625Q498.03125 40.23125 497.48438 41.278126Q496.95312 42.325 495.85938 42.996876Q494.76562 43.653126 493.09375 43.653126Q491.09375 43.653126 490.03125 42.66875Q488.96875 41.684376 488.96875 40.1375Q488.96875 39.825 489.01562 39.45Q489.04688 39.2 489.29688 38.028126L490.5625 31.996876ZM500.65625 41.278126L502.875 41.278126L502.42188 43.45L500.20312 43.45L500.65625 41.278126ZM504.51562 39.73125L506.76562 39.621876Q506.8125 40.684376 507.125 41.059376Q507.64062 41.66875 509.03125 41.66875Q510.1875 41.66875 510.70312 41.2625Q511.21875 40.840626 511.21875 40.2625Q511.21875 39.746876 510.79688 39.403126Q510.5 39.1375 509.17188 38.559376Q507.84375 37.98125 507.21875 37.60625Q506.60938 37.215626 506.25 36.60625Q505.90625 35.98125 505.90625 35.153126Q505.90625 33.7 506.95312 32.746876Q508.0 31.79375 509.98438 31.79375Q512.0 31.79375 513.1094 32.746876Q514.21875 33.684376 514.3281 35.2625L512.0625 35.35625Q511.98438 34.54375 511.46875 34.10625Q510.96875 33.66875 509.96875 33.66875Q509.0 33.66875 508.57812 34.0125Q508.15625 34.35625 508.15625 34.871876Q508.15625 35.371876 508.54688 35.684376Q508.92188 36.0125 510.23438 36.590626Q512.21875 37.434376 512.75 37.965626Q513.5625 38.746876 513.5625 39.98125Q513.5625 41.496876 512.3594 42.575Q511.15625 43.653126 509.01562 43.653126Q507.54688 43.653126 506.45312 43.153126Q505.375 42.653126 504.92188 41.778126Q504.48438 40.8875 504.51562 39.73125ZM515.65625 41.278126L517.875 41.278126L517.4219 43.45L515.2031 43.45L515.65625 41.278126ZM523.1406 43.45L525.5469 31.996876L529.4531 31.996876Q530.7344 31.996876 531.2344 32.075Q532.0781 32.184376 532.65625 32.54375Q533.25 32.8875 533.5469 33.48125Q533.8594 34.059376 533.8594 34.778126Q533.8594 35.73125 533.3281 36.434376Q532.7969 37.121876 531.6875 37.48125Q532.5781 37.73125 533.0625 38.35625Q533.5625 38.965626 533.5625 39.746876Q533.5625 40.778126 532.96875 41.715626Q532.3906 42.6375 531.3594 43.04375Q530.3281 43.45 528.5469 43.45L523.1406 43.45ZM526.9219 36.621876L528.71875 36.621876Q529.9375 36.621876 530.46875 36.45Q531.0 36.278126 531.2656 35.8875Q531.53125 35.496876 531.53125 35.04375Q531.53125 34.60625 531.28125 34.325Q531.03125 34.04375 530.5625 33.95Q530.3125 33.903126 529.3281 33.903126L527.5 33.903126L526.9219 36.621876ZM525.8906 41.60625L528.15625 41.60625Q529.59375 41.60625 530.0781 41.41875Q530.5625 41.23125 530.8594 40.809376Q531.15625 40.3875 531.15625 39.91875Q531.15625 39.35625 530.7344 38.98125Q530.3125 38.60625 529.3281 38.60625L526.5156 38.60625L525.8906 41.60625ZM535.46875 39.996876Q535.46875 37.7 536.7656 36.325Q538.0781 34.95 540.1875 34.95Q542.03125 34.95 543.0625 35.965626Q544.09375 36.98125 544.09375 38.684376Q544.09375 40.7 542.7969 42.184376Q541.5156 43.653126 539.34375 43.653126Q538.1719 43.653126 537.2656 43.184376Q536.3594 42.7 535.90625 41.840626Q535.46875 40.98125 535.46875 39.996876ZM541.8594 38.403126Q541.8594 37.60625 541.3906 37.121876Q540.9375 36.6375 540.2031 36.6375Q539.46875 36.6375 538.90625 37.090626Q538.34375 37.54375 538.03125 38.403126Q537.71875 39.246876 537.71875 39.965626Q537.71875 40.85625 538.2031 41.3875Q538.6875 41.903126 539.4219 41.903126Q540.34375 41.903126 540.96875 41.121876Q541.8594 39.996876 541.8594 38.403126ZM546.90625 35.153126L549.03125 35.153126L548.8125 36.23125Q549.6094 35.54375 550.2969 35.246876Q551.0 34.95 551.7656 34.95Q552.78125 34.95 553.375 35.54375Q553.96875 36.121876 553.96875 37.090626Q553.96875 37.528126 553.7031 38.746876L552.7344 43.45L550.4844 43.45L551.46875 38.73125Q551.6875 37.684376 551.6875 37.48125Q551.6875 37.04375 551.4375 36.809376Q551.1875 36.559376 550.7344 36.559376Q550.2344 36.559376 549.625 36.98125Q549.03125 37.3875 548.6875 38.059376Q548.4375 38.54375 548.125 40.04375L547.4219 43.45L545.1719 43.45L546.90625 35.153126ZM562.8125 43.45L560.6875 43.45L560.875 42.54375Q560.2656 43.1375 559.6719 43.403126Q559.0781 43.653126 558.34375 43.653126Q557.0469 43.653126 556.25 42.778126Q555.4531 41.8875 555.4531 40.16875Q555.4531 38.16875 556.5781 36.559376Q557.7031 34.95 559.5469 34.95Q561.21875 34.95 562.0625 36.278126L562.9531 31.996876L565.2031 31.996876L562.8125 43.45ZM557.625 40.075Q557.625 40.965626 558.0781 41.465626Q558.53125 41.965626 559.1875 41.965626Q559.7969 41.965626 560.3125 41.54375Q560.84375 41.121876 561.15625 40.2625Q561.4844 39.403126 561.4844 38.621876Q561.4844 37.715626 561.0 37.16875Q560.5156 36.60625 559.875 36.60625Q558.8906 36.60625 558.25 37.7Q557.625 38.79375 557.625 40.075ZM569.0625 43.45L571.4531 31.996876L573.8125 31.996876L571.4219 43.45L569.0625 43.45ZM574.90625 35.153126L577.03125 35.153126L576.8125 36.23125Q577.6094 35.54375 578.2969 35.246876Q579.0 34.95 579.7656 34.95Q580.78125 34.95 581.375 35.54375Q581.96875 36.121876 581.96875 37.090626Q581.96875 37.528126 581.7031 38.746876L580.7344 43.45L578.4844 43.45L579.46875 38.73125Q579.6875 37.684376 579.6875 37.48125Q579.6875 37.04375 579.4375 36.809376Q579.1875 36.559376 578.7344 36.559376Q578.2344 36.559376 577.625 36.98125Q577.03125 37.3875 576.6875 38.059376Q576.4375 38.54375 576.125 40.04375L575.4219 43.45L573.1719 43.45L574.90625 35.153126ZM590.8125 43.45L588.6875 43.45L588.875 42.54375Q588.2656 43.1375 587.6719 43.403126Q587.0781 43.653126 586.34375 43.653126Q585.0469 43.653126 584.25 42.778126Q583.4531 41.8875 583.4531 40.16875Q583.4531 38.16875 584.5781 36.559376Q585.7031 34.95 587.5469 34.95Q589.21875 34.95 590.0625 36.278126L590.9531 31.996876L593.2031 31.996876L590.8125 43.45ZM585.625 40.075Q585.625 40.965626 586.0781 41.465626Q586.53125 41.965626 587.1875 41.965626Q587.7969 41.965626 588.3125 41.54375Q588.84375 41.121876 589.15625 40.2625Q589.4844 39.403126 589.4844 38.621876Q589.4844 37.715626 589.0 37.16875Q588.5156 36.60625 587.875 36.60625Q586.8906 36.60625 586.25 37.7Q585.625 38.79375 585.625 40.075ZM601.21875 39.996876L595.59375 39.996876Q595.59375 40.121876 595.59375 40.2Q595.59375 41.028126 596.0625 41.54375Q596.53125 42.04375 597.21875 42.04375Q598.3281 42.04375 598.9531 40.8875L600.96875 41.215626Q600.375 42.434376 599.3906 43.04375Q598.4219 43.653126 597.2031 43.653126Q595.53125 43.653126 594.4844 42.590626Q593.4375 41.528126 593.4375 39.778126Q593.4375 38.075 594.375 36.746876Q595.6719 34.95 598.0625 34.95Q599.5781 34.95 600.46875 35.903126Q601.375 36.840626 601.375 38.528126Q601.375 39.340626 601.21875 39.996876ZM599.3281 38.621876Q599.34375 38.48125 599.34375 38.403126Q599.34375 37.48125 598.9219 37.028126Q598.5156 36.559376 597.8125 36.559376Q597.125 36.559376 596.5625 37.090626Q596.0156 37.60625 595.8281 38.621876L599.3281 38.621876ZM605.96875 41.121876L603.90625 43.45L601.1406 43.45L604.9844 39.2L602.875 35.153126L605.2656 35.153126L606.46875 37.5125L608.5781 35.153126L611.2969 35.153126L607.4531 39.45L609.5469 43.45L607.15625 43.45L605.96875 41.121876ZM615.125 43.45L617.53125 31.996876L625.5469 31.996876L625.1406 33.903126L619.4844 33.903126L618.90625 36.653126L624.4531 36.653126L624.0469 38.575L618.5 38.575L617.4844 43.45L615.125 43.45ZM626.8594 35.153126L629.1094 35.153126L628.0781 40.059376Q627.8906 40.95 627.8906 41.16875Q627.8906 41.528126 628.15625 41.79375Q628.4219 42.04375 628.84375 42.04375Q629.1406 42.04375 629.4219 41.934376Q629.71875 41.809376 630.0156 41.590626Q630.3281 41.35625 630.5625 41.059376Q630.8125 40.7625 631.0156 40.278126Q631.1719 39.91875 631.34375 39.10625L632.1719 35.153126L634.40625 35.153126L632.6719 43.45L630.5781 43.45L630.8125 42.325Q629.4375 43.653126 627.8281 43.653126Q626.7969 43.653126 626.2031 43.059376Q625.625 42.465626 625.625 41.48125Q625.625 41.059376 625.8906 39.778126L626.8594 35.153126ZM636.90625 35.153126L639.03125 35.153126L638.8125 36.23125Q639.6094 35.54375 640.2969 35.246876Q641.0 34.95 641.7656 34.95Q642.78125 34.95 643.375 35.54375Q643.96875 36.121876 643.96875 37.090626Q643.96875 37.528126 643.7031 38.746876L642.7344 43.45L640.4844 43.45L641.46875 38.73125Q641.6875 37.684376 641.6875 37.48125Q641.6875 37.04375 641.4375 36.809376Q641.1875 36.559376 640.7344 36.559376Q640.2344 36.559376 639.625 36.98125Q639.03125 37.3875 638.6875 38.059376Q638.4375 38.54375 638.125 40.04375L637.4219 43.45L635.1719 43.45L636.90625 35.153126ZM652.8125 43.45L650.6875 43.45L650.875 42.54375Q650.2656 43.1375 649.6719 43.403126Q649.0781 43.653126 648.34375 43.653126Q647.0469 43.653126 646.25 42.778126Q645.4531 41.8875 645.4531 40.16875Q645.4531 38.16875 646.5781 36.559376Q647.7031 34.95 649.5469 34.95Q651.21875 34.95 652.0625 36.278126L652.9531 31.996876L655.2031 31.996876L652.8125 43.45ZM647.625 40.075Q647.625 40.965626 648.0781 41.465626Q648.53125 41.965626 649.1875 41.965626Q649.7969 41.965626 650.3125 41.54375Q650.84375 41.121876 651.15625 40.2625Q651.4844 39.403126 651.4844 38.621876Q651.4844 37.715626 651.0 37.16875Q650.5156 36.60625 649.875 36.60625Q648.8906 36.60625 648.25 37.7Q647.625 38.79375 647.625 40.075ZM662.34375 46.825L660.8125 46.825Q660.1719 45.325 659.8594 43.79375Q659.5625 42.2625 659.5625 40.996876Q659.5625 39.403126 660.0625 37.79375Q660.5781 36.184376 661.6406 34.528126Q662.2969 33.465626 663.7656 31.79375L665.46875 31.79375Q663.9844 33.54375 663.1719 35.090626Q662.3594 36.621876 661.9531 38.434376Q661.5625 40.246876 661.5625 41.98125Q661.5625 43.153126 661.7344 44.2625Q661.9219 45.3875 662.34375 46.825ZM664.1406 43.45L666.5469 31.996876L670.4531 31.996876Q671.7344 31.996876 672.2344 32.075Q673.0781 32.184376 673.65625 32.54375Q674.25 32.8875 674.5469 33.48125Q674.8594 34.059376 674.8594 34.778126Q674.8594 35.73125 674.3281 36.434376Q673.7969 37.121876 672.6875 37.48125Q673.5781 37.73125 674.0625 38.35625Q674.5625 38.965626 674.5625 39.746876Q674.5625 40.778126 673.96875 41.715626Q673.3906 42.6375 672.3594 43.04375Q671.3281 43.45 669.5469 43.45L664.1406 43.45ZM667.9219 36.621876L669.71875 36.621876Q670.9375 36.621876 671.46875 36.45Q672.0 36.278126 672.2656 35.8875Q672.53125 35.496876 672.53125 35.04375Q672.53125 34.60625 672.28125 34.325Q672.03125 34.04375 671.5625 33.95Q671.3125 33.903126 670.3281 33.903126L668.5 33.903126L667.9219 36.621876ZM666.8906 41.60625L669.15625 41.60625Q670.59375 41.60625 671.0781 41.41875Q671.5625 41.23125 671.8594 40.809376Q672.15625 40.3875 672.15625 39.91875Q672.15625 39.35625 671.7344 38.98125Q671.3125 38.60625 670.3281 38.60625L667.5156 38.60625L666.8906 41.60625ZM676.46875 39.996876Q676.46875 37.7 677.7656 36.325Q679.0781 34.95 681.1875 34.95Q683.03125 34.95 684.0625 35.965626Q685.09375 36.98125 685.09375 38.684376Q685.09375 40.7 683.7969 42.184376Q682.5156 43.653126 680.34375 43.653126Q679.1719 43.653126 678.2656 43.184376Q677.3594 42.7 676.90625 41.840626Q676.46875 40.98125 676.46875 39.996876ZM682.8594 38.403126Q682.8594 37.60625 682.3906 37.121876Q681.9375 36.6375 681.2031 36.6375Q680.46875 36.6375 679.90625 37.090626Q679.34375 37.54375 679.03125 38.403126Q678.71875 39.246876 678.71875 39.965626Q678.71875 40.85625 679.2031 41.3875Q679.6875 41.903126 680.4219 41.903126Q681.34375 41.903126 681.96875 41.121876Q682.8594 39.996876 682.8594 38.403126ZM687.90625 35.153126L690.03125 35.153126L689.8125 36.23125Q690.6094 35.54375 691.2969 35.246876Q692.0 34.95 692.7656 34.95Q693.78125 34.95 694.375 35.54375Q694.96875 36.121876 694.96875 37.090626Q694.96875 37.528126 694.7031 38.746876L693.7344 43.45L691.4844 43.45L692.46875 38.73125Q692.6875 37.684376 692.6875 37.48125Q692.6875 37.04375 692.4375 36.809376Q692.1875 36.559376 691.7344 36.559376Q691.2344 36.559376 690.625 36.98125Q690.03125 37.3875 689.6875 38.059376Q689.4375 38.54375 689.125 40.04375L688.4219 43.45L686.1719 43.45L687.90625 35.153126ZM703.8125 43.45L701.6875 43.45L701.875 42.54375Q701.2656 43.1375 700.6719 43.403126Q700.0781 43.653126 699.34375 43.653126Q698.0469 43.653126 697.25 42.778126Q696.4531 41.8875 696.4531 40.16875Q696.4531 38.16875 697.5781 36.559376Q698.7031 34.95 700.5469 34.95Q702.21875 34.95 703.0625 36.278126L703.9531 31.996876L706.2031 31.996876L703.8125 43.45ZM698.625 40.075Q698.625 40.965626 699.0781 41.465626Q699.53125 41.965626 700.1875 41.965626Q700.7969 41.965626 701.3125 41.54375Q701.84375 41.121876 702.15625 40.2625Q702.4844 39.403126 702.4844 38.621876Q702.4844 37.715626 702.0 37.16875Q701.5156 36.60625 700.875 36.60625Q699.8906 36.60625 699.25 37.7Q698.625 38.79375 698.625 40.075ZM707.3906 31.79375L708.90625 31.79375Q709.5469 33.278126 709.8594 34.809376Q710.1719 36.340626 710.1719 37.60625Q710.1719 39.2 709.65625 40.809376Q709.1406 42.41875 708.09375 44.090626Q707.4219 45.153126 705.9531 46.825L704.25 46.825Q705.7344 45.075 706.5469 43.528126Q707.3594 41.996876 707.75 40.184376Q708.15625 38.371876 708.15625 36.621876Q708.15625 35.45 707.9844 34.340626Q707.8125 33.23125 707.3906 31.79375Z" fill-rule="nonzero"/></svg>